<svg width="35" height="35" viewBox="0 0 35 35" fill="none" xmlns="http://www.w3.org/2000/svg">
<path fill-rule="evenodd" clip-rule="evenodd" d="M17.5 2.1875C9.04094 2.1875 2.1875 9.03438 2.1875 17.4847C2.1875 24.2441 6.57563 29.9753 12.6591 31.9988C13.4247 32.1388 13.7047 31.6663 13.7047 31.2616C13.7047 30.8984 13.6916 29.9359 13.6828 28.6584C9.42375 29.5838 8.52688 26.6088 8.52688 26.6088C7.82906 24.8413 6.825 24.3709 6.825 24.3709C5.43594 23.4216 6.93 23.4413 6.93 23.4413C8.46781 23.5506 9.27719 25.0163 9.27719 25.0163C10.6422 27.3569 12.8603 26.6788 13.7331 26.2894C13.8709 25.3006 14.2669 24.6269 14.7044 24.2441C11.305 23.8591 7.73062 22.5466 7.73062 16.6841C7.73062 15.015 8.32781 13.6478 9.30563 12.5803C9.14813 12.1931 8.62312 10.6378 9.45875 8.53344C9.45875 8.53344 10.7406 8.12 13.6675 10.0997C14.9166 9.75936 16.2053 9.58577 17.5 9.58344C18.8016 9.59 20.1119 9.75844 21.3347 10.0997C24.2572 8.12 25.5412 8.53125 25.5412 8.53125C26.3769 10.6378 25.8519 12.1931 25.6944 12.5781C26.6744 13.65 27.2694 15.015 27.2694 16.6841C27.2694 22.5597 23.6863 23.8547 20.2759 24.2309C20.825 24.7034 21.315 25.6375 21.315 27.0659C21.315 29.1091 21.2953 30.7584 21.2953 31.2616C21.2953 31.6706 21.5731 32.1453 22.3497 31.9966C25.3955 30.9809 28.0448 29.0331 29.9225 26.4287C31.8002 23.8244 32.8112 20.6954 32.8125 17.4847C32.8102 13.4257 31.1957 9.53381 28.3241 6.66509C25.4525 3.79638 21.559 2.18576 17.5 2.1875Z" fill="#611F69"/>
</svg>
