<svg width="34" height="35" viewBox="0 0 34 35" fill="none" xmlns="http://www.w3.org/2000/svg">
<path fill-rule="evenodd" clip-rule="evenodd" d="M17.0003 26.7727C22.1214 26.7727 26.273 22.6212 26.273 17.5C26.273 12.3788 22.1214 8.22726 17.0003 8.22726C11.8791 8.22726 7.72754 12.3788 7.72754 17.5C7.72754 22.6212 11.8791 26.7727 17.0003 26.7727ZM17.0003 23.6818C20.4143 23.6818 23.1821 20.9141 23.1821 17.5C23.1821 14.0859 20.4143 11.3182 17.0003 11.3182C13.5861 11.3182 10.8184 14.0859 10.8184 17.5C10.8184 20.9141 13.5861 23.6818 17.0003 23.6818Z" fill="#0F0F0F"/>
<path d="M26.273 6.68182C25.4194 6.68182 24.7275 7.37375 24.7275 8.22728C24.7275 9.0808 25.4194 9.77273 26.273 9.77273C27.1265 9.77273 27.8184 9.0808 27.8184 8.22728C27.8184 7.37375 27.1265 6.68182 26.273 6.68182Z" fill="#0F0F0F"/>
<path fill-rule="evenodd" clip-rule="evenodd" d="M1.01067 5.563C0 7.54655 0 10.1432 0 15.3364V19.6636C0 24.8568 0 27.4535 1.01067 29.4369C1.89967 31.1818 3.31821 32.6003 5.063 33.4893C7.04655 34.5 9.64316 34.5 14.8364 34.5H19.1636C24.3568 34.5 26.9535 34.5 28.9369 33.4893C30.6818 32.6003 32.1003 31.1818 32.9893 29.4369C34 27.4535 34 24.8568 34 19.6636V15.3364C34 10.1432 34 7.54655 32.9893 5.563C32.1003 3.81821 30.6818 2.39967 28.9369 1.51067C26.9535 0.5 24.3568 0.5 19.1636 0.5H14.8364C9.64316 0.5 7.04655 0.5 5.063 1.51067C3.31821 2.39967 1.89967 3.81821 1.01067 5.563ZM19.1636 3.59091H14.8364C12.1888 3.59091 10.3889 3.59332 8.99776 3.70697C7.64264 3.81769 6.94966 4.01837 6.46624 4.26468C5.30306 4.85736 4.35736 5.80306 3.76468 6.96624C3.51837 7.44966 3.31769 8.14264 3.20697 9.49776C3.09332 10.8889 3.09091 12.6888 3.09091 15.3364V19.6636C3.09091 22.3113 3.09332 24.111 3.20697 25.5022C3.31769 26.8574 3.51837 27.5504 3.76468 28.0338C4.35736 29.1969 5.30306 30.1426 6.46624 30.7353C6.94966 30.9816 7.64264 31.1824 8.99776 31.293C10.3889 31.4066 12.1888 31.4091 14.8364 31.4091H19.1636C21.8113 31.4091 23.611 31.4066 25.0022 31.293C26.3574 31.1824 27.0504 30.9816 27.5338 30.7353C28.6969 30.1426 29.6426 29.1969 30.2353 28.0338C30.4816 27.5504 30.6824 26.8574 30.793 25.5022C30.9066 24.111 30.9091 22.3113 30.9091 19.6636V15.3364C30.9091 12.6888 30.9066 10.8889 30.793 9.49776C30.6824 8.14264 30.4816 7.44966 30.2353 6.96624C29.6426 5.80306 28.6969 4.85736 27.5338 4.26468C27.0504 4.01837 26.3574 3.81769 25.0022 3.70697C23.611 3.59332 21.8113 3.59091 19.1636 3.59091Z" fill="#0F0F0F"/>
</svg>
