<svg width="34" height="34" viewBox="0 0 34 34" fill="none" xmlns="http://www.w3.org/2000/svg">
<g clip-path="url(#clip0_72_58)">
<path fill-rule="evenodd" clip-rule="evenodd" d="M17 15.9375C15.2394 15.9375 13.8125 14.5106 13.8125 12.75C13.8125 10.9894 15.2394 9.5625 17 9.5625C18.7606 9.5625 20.1875 10.9894 20.1875 12.75C20.1875 14.5106 18.7606 15.9375 17 15.9375ZM17 7.4375C14.0664 7.4375 11.6875 9.81538 11.6875 12.75C11.6875 15.6846 14.0664 18.0625 17 18.0625C19.9336 18.0625 22.3125 15.6846 22.3125 12.75C22.3125 9.81538 19.9336 7.4375 17 7.4375ZM17 30.8125C15.2331 30.8221 6.375 17.1923 6.375 12.75C6.375 6.88287 11.1318 2.125 17 2.125C22.8682 2.125 27.625 6.88287 27.625 12.75C27.625 17.1328 18.7393 30.8221 17 30.8125ZM17 0C9.95881 0 4.25 5.70881 4.25 12.75C4.25 18.0816 14.8803 34.0117 17 34C19.0868 34.0117 29.75 18.0094 29.75 12.75C29.75 5.70881 24.0412 0 17 0Z" fill="#616161"/>
</g>
<defs>
<clipPath id="clip0_72_58">
<rect width="34" height="34" fill="white"/>
</clipPath>
</defs>
</svg>
