<svg width="303" height="137" viewBox="0 0 303 137" fill="none" xmlns="http://www.w3.org/2000/svg">
<g clip-path="url(#clip0_96_79)">
<path d="M129.306 1.1349C130.563 1.58897 131.594 1.59033 132.93 1.58597C133.174 1.58581 133.419 1.58564 133.671 1.58547C134.186 1.58438 134.7 1.58154 135.214 1.57705C136.003 1.57041 136.792 1.56963 137.58 1.56971C139.997 1.70432 139.997 1.70432 142.268 1.14065C142.268 1.37951 142.268 1.61838 142.268 1.86448C142.682 1.82529 142.682 1.82529 143.104 1.78531C144.272 1.68027 145.441 1.58856 146.611 1.50256C146.916 1.47784 147.221 1.45311 147.536 1.42763C147.806 1.41504 148.075 1.40244 148.353 1.38946C148.587 1.37593 148.821 1.3624 149.061 1.34847C151.402 1.79524 152.765 3.20935 154.099 5.07649C154.409 5.49918 154.721 5.92091 155.033 6.34178C155.194 6.55866 155.355 6.77554 155.521 6.99899C156.354 8.09082 157.249 9.12818 158.148 10.1659C158.329 10.3753 158.51 10.5846 158.697 10.8003C159.066 11.2265 159.436 11.6524 159.806 12.078C160.742 13.1565 161.674 14.2394 162.604 15.3233C162.786 15.5348 162.968 15.7463 163.155 15.9642C164.508 17.5448 165.83 19.1494 167.141 20.7647C168.366 22.2583 169.619 23.7271 170.872 25.1968C171.034 25.3966 171.196 25.5965 171.362 25.8024C171.957 26.5117 171.957 26.5117 172.751 27.2109C175.417 29.8919 175.619 32.1326 175.62 35.7808C175.609 36.4672 175.598 37.1535 175.586 37.8398C175.585 38.5528 175.584 39.2659 175.585 39.9789C175.583 41.4657 175.571 42.9519 175.55 44.4385C175.523 46.3441 175.519 48.2489 175.522 50.1546C175.523 51.6236 175.514 53.0923 175.503 54.5612C175.498 55.2641 175.496 55.9669 175.495 56.6698C175.493 57.6497 175.479 58.6287 175.462 59.6085C175.463 59.8982 175.464 60.1879 175.466 60.4864C175.428 61.8765 175.328 62.5318 174.373 63.5711C173.021 64.3213 171.792 64.2951 170.289 64.2555C169.847 64.2524 169.847 64.2524 169.396 64.2493C168.459 64.2412 167.522 64.2231 166.586 64.2046C165.949 64.1973 165.312 64.1907 164.675 64.1848C163.117 64.1689 161.56 64.1439 160.003 64.1141C159.933 64.3343 159.864 64.5545 159.792 64.7813C159.698 65.072 159.604 65.3627 159.507 65.6622C159.415 65.9495 159.322 66.2369 159.228 66.5329C158.794 67.705 158.247 68.5651 157.469 69.5429C157.231 69.5429 156.992 69.5429 156.746 69.5429C156.66 69.7556 156.574 69.9684 156.485 70.1875C155.023 72.7193 151.48 74.1625 148.783 74.9716C145.258 75.6958 141.748 75.5177 138.287 74.6097C137.928 74.6097 137.57 74.6097 137.201 74.6097C137.201 74.3708 137.201 74.132 137.201 73.8859C136.673 73.4953 136.126 73.1303 135.572 72.7775C132.516 70.6899 130.503 68.1398 128.876 64.838C128.757 64.5991 128.637 64.3602 128.514 64.1141C114.062 64.1141 99.6098 64.1141 84.7196 64.1141C84.3612 65.189 84.0029 66.2639 83.6337 67.3714C81.1047 71.3948 77.701 73.9249 73.1163 75.0974C69.9715 75.6179 66.3191 75.9395 63.3651 74.6097C62.5535 74.7137 62.5535 74.7137 61.9174 74.9716C61.9174 74.6133 61.9174 74.255 61.9174 73.8859C61.1117 73.2217 61.1117 73.2217 60.0851 72.5739C58.0958 71.1856 56.781 69.7068 55.4025 67.7333C54.7009 66.8421 54.0318 66.0008 53.2308 65.1999C53.2308 64.8416 53.2308 64.4833 53.2308 64.1141C52.9443 64.1217 52.6577 64.1293 52.3625 64.1371C51.0609 64.1672 49.7595 64.186 48.4578 64.2046C48.0068 64.2167 47.5559 64.2289 47.0913 64.2414C46.6562 64.246 46.2211 64.2507 45.7729 64.2555C45.373 64.2631 44.973 64.2707 44.561 64.2785C43.1819 64.0729 42.6017 63.6745 41.6488 62.6665C41.1788 61.0826 41.2404 59.4673 41.2515 57.8301C41.252 57.5434 41.2525 57.2568 41.253 56.9615C41.255 56.0507 41.2596 55.14 41.2642 54.2293C41.266 53.6098 41.2677 52.9904 41.2692 52.3709C41.2731 50.8566 41.2794 49.3422 41.2868 47.8279C40.9236 47.8266 40.5603 47.8252 40.186 47.8239C36.7617 47.8105 33.3374 47.7896 29.9132 47.7613C28.1527 47.747 26.3924 47.7354 24.6319 47.7298C22.9327 47.7243 21.2337 47.7119 19.5347 47.6946C18.8866 47.6892 18.2385 47.6864 17.5905 47.6861C16.6822 47.6852 15.7745 47.6754 14.8664 47.6635C14.5988 47.6654 14.3311 47.6672 14.0554 47.6691C12.7615 47.6429 12.0095 47.4904 10.898 46.8075C10.16 46.0183 10.16 46.0183 9.93381 44.7742C10.2268 43.104 10.6097 42.6847 11.9697 41.6753C13.2698 41.3847 14.5548 41.3884 15.8832 41.3812C16.2839 41.3727 16.6846 41.3641 17.0975 41.3553C18.2587 41.3345 19.4196 41.3233 20.581 41.3176C21.4358 41.3131 22.2906 41.3059 23.1455 41.2984C25.0454 41.2826 26.9452 41.2737 28.8452 41.2681C29.1502 41.2671 29.4552 41.266 29.7695 41.2649C33.7473 41.2555 37.6808 41.3877 41.6488 41.6753C41.5293 38.4506 41.4099 35.2259 41.2868 31.9036C39.5799 31.9149 39.5799 31.9149 37.8384 31.9265C34.0766 31.9505 30.3148 31.9665 26.5529 31.9786C24.2723 31.9861 21.9918 31.9964 19.7112 32.0128C17.5099 32.0285 15.3087 32.0372 13.1074 32.0409C12.268 32.0436 11.4286 32.0488 10.5892 32.0566C9.41249 32.0671 8.23613 32.0686 7.05942 32.0679C6.71316 32.0731 6.36691 32.0783 6.01016 32.0837C3.82925 32.0702 2.53138 31.7394 0.749599 30.4559C0.190088 29.3369 0.281396 28.4312 0.38766 27.1986C1.06343 26.3427 1.58952 25.8739 2.5593 25.3891C3.07739 25.3516 3.59716 25.3361 4.11659 25.3318C4.44345 25.3283 4.77031 25.3247 5.10707 25.3211C5.4666 25.319 5.82612 25.3169 6.19654 25.3147C6.57438 25.3112 6.95222 25.3076 7.34151 25.3039C8.59488 25.2924 9.84825 25.2835 11.1016 25.2745C11.9689 25.2671 12.8361 25.2595 13.7034 25.2518C15.9894 25.2317 18.2755 25.2139 20.5616 25.1964C22.893 25.1783 25.2244 25.1581 27.5557 25.1381C32.1328 25.0992 36.7098 25.0624 41.2868 25.0271C41.2826 24.7733 41.2784 24.5196 41.2741 24.2581C41.2544 22.1821 41.3389 20.2036 41.6488 18.1507C41.1039 18.1543 41.1039 18.1543 40.548 18.158C37.1237 18.18 33.6994 18.1963 30.2751 18.207C28.5146 18.2126 26.7542 18.2203 24.9938 18.2326C23.2947 18.2444 21.5957 18.2509 19.8966 18.2537C19.2485 18.2557 18.6005 18.2597 17.9524 18.2655C17.0443 18.2734 16.1365 18.2745 15.2283 18.274C14.8269 18.2798 14.8269 18.2798 14.4173 18.2858C12.8216 18.2763 11.7695 18.087 10.522 17.065C10.0946 15.6226 10.0058 14.8693 10.6351 13.491C11.2458 12.722 11.2458 12.722 11.9697 12.3601C12.4614 12.3278 12.9546 12.3175 13.4473 12.319C13.9038 12.319 13.9038 12.319 14.3694 12.3191C14.8626 12.3219 14.8626 12.3219 15.3657 12.3247C15.7021 12.3252 16.0385 12.3257 16.3851 12.3263C17.462 12.3283 18.5388 12.3328 19.6157 12.3374C20.3448 12.3393 21.0738 12.3409 21.8029 12.3424C23.5923 12.3464 25.3818 12.3526 27.1712 12.3601C27.1712 12.1212 27.1712 11.8823 27.1712 11.6362C27.4166 11.695 27.6619 11.7537 27.9148 11.8142C29.1474 12.0269 30.31 12.0451 31.5611 12.0462C31.9257 12.0467 31.9257 12.0467 32.2976 12.0473C32.809 12.0475 33.3203 12.0468 33.8316 12.0453C34.6124 12.0434 35.393 12.0453 36.1737 12.0476C36.6721 12.0474 37.1705 12.0469 37.6688 12.0462C38.3453 12.0456 38.3453 12.0456 39.0354 12.045C39.9838 12.0069 40.7501 11.919 41.6488 11.6362C41.589 11.1884 41.5293 10.7405 41.4678 10.279C41.1467 7.3335 41.0259 4.6811 42.0107 1.86448C50.2504 1.83914 58.49 1.81998 66.7297 1.80822C70.5554 1.80262 74.381 1.79498 78.2067 1.78257C81.5403 1.77176 84.8739 1.76475 88.2076 1.76232C89.9734 1.7609 91.7393 1.75756 93.5051 1.74968C95.1661 1.74233 96.8269 1.74004 98.4879 1.74167C99.0985 1.74137 99.7092 1.7392 100.32 1.73505C101.152 1.72967 101.983 1.73094 102.815 1.73391C103.514 1.73241 103.514 1.73241 104.227 1.73088C105.35 1.86448 105.35 1.86448 106.043 2.29486C106.582 3.19338 106.57 3.83455 106.567 4.8807C106.569 5.48133 106.569 5.48133 106.571 6.09409C106.567 6.53351 106.563 6.97294 106.559 7.42568C106.559 7.88826 106.56 8.35085 106.56 8.82745C106.56 10.0963 106.554 11.3651 106.546 12.634C106.539 13.9599 106.539 15.2858 106.537 16.6117C106.534 19.1226 106.525 21.6336 106.514 24.1445C106.502 27.003 106.496 29.8616 106.491 32.7201C106.479 38.6005 106.46 44.4809 106.436 50.3613C107.373 50.1896 108.159 50.0428 109.015 49.6148C109.693 49.2755 109.693 49.2755 110.779 49.2755C110.899 33.7493 111.018 18.2231 111.141 2.2264C112.546 1.75799 113.927 1.71848 115.394 1.63828C115.679 1.61962 115.963 1.60096 116.256 1.58173C117.992 1.48371 119.564 1.55785 121.275 1.86448C121.395 1.62561 121.514 1.38675 121.637 1.14065C121.637 1.37951 121.637 1.61838 121.637 1.86448C122.175 1.50618 122.175 1.50618 122.723 1.14065C124.035 1.09541 124.035 1.09541 125.257 1.14065C126.086 1.14065 126.902 0.92724 127.717 0.787212C128.514 0.778729 128.514 0.778729 129.306 1.1349ZM127.428 1.50256C128.876 1.86448 128.876 1.86448 128.876 1.86448L127.428 1.50256ZM63.6182 54.7326C62.2076 56.328 61.7197 57.9979 61.8142 60.1161C62.1385 62.4437 62.9909 64.0436 64.8129 65.5618C66.9535 66.9888 68.7951 67.28 71.3278 67.0095C73.2693 66.3914 74.7308 65.3224 76.033 63.7522C77.0547 61.6474 77.0605 59.5282 76.7569 57.2377C76.0244 55.3716 74.9389 54.0509 73.1827 53.0757C69.5605 51.5745 66.4763 52.015 63.6182 54.7326ZM139.01 54.3424C137.3 56.5619 136.945 58.4718 137.201 61.2188C137.977 63.669 139.417 65.2502 141.544 66.6475C143.763 67.168 146.444 67.381 148.458 66.2022C150.368 64.851 151.55 63.548 152.04 61.2188C152.251 59.1615 152.257 57.3948 151.069 55.6444C149.435 53.6611 147.948 52.5981 145.364 52.2133C142.915 52.101 140.899 52.7612 139.01 54.3424ZM53.5928 64.1141C53.9547 64.838 53.9547 64.838 53.9547 64.838L53.5928 64.1141Z" fill="#1F3E52"/>
<path d="M42.0107 1.86446C50.2504 1.83912 58.4901 1.81997 66.7298 1.80821C70.5554 1.80261 74.3811 1.79496 78.2067 1.78256C81.5403 1.77175 84.8739 1.76473 88.2076 1.76231C89.9734 1.76089 91.7393 1.75755 93.5051 1.74967C95.1661 1.74232 96.8269 1.74002 98.4879 1.74166C99.0985 1.74136 99.7092 1.73919 100.32 1.73504C101.152 1.72966 101.983 1.73093 102.815 1.7339C103.514 1.7324 103.514 1.7324 104.227 1.73087C105.35 1.86446 105.35 1.86446 106.043 2.29485C106.582 3.19337 106.57 3.83453 106.567 4.88069C106.569 5.48131 106.569 5.48131 106.571 6.09407C106.567 6.5335 106.563 6.97292 106.559 7.42566C106.559 7.88825 106.56 8.35084 106.56 8.82744C106.56 10.0963 106.554 11.3651 106.546 12.634C106.539 13.9599 106.539 15.2858 106.537 16.6117C106.534 19.1226 106.525 21.6335 106.514 24.1445C106.502 27.003 106.496 29.8615 106.491 32.7201C106.479 38.6005 106.46 44.4809 106.436 50.3613C106.114 50.3662 105.791 50.3712 105.459 50.3763C104.757 50.3871 104.055 50.3979 103.352 50.4087C102.008 50.4294 100.664 50.4498 99.3197 50.4697C96.7887 50.5075 94.258 50.5486 91.7274 50.6065C90.4919 50.6311 89.2566 50.6363 88.0209 50.644C87.6454 50.6554 87.6454 50.6554 87.2623 50.667C83.1279 50.7856 83.1279 50.7856 81.6972 49.7388C81.0296 48.9695 81.0296 48.9695 80.5176 48.2042C78.7626 45.6294 75.5883 44.7496 72.6964 44.097C69.3745 43.4896 66.508 43.7033 63.3651 44.9325C63.1207 45.0249 62.8762 45.1173 62.6243 45.2125C58.7783 46.8892 56.542 49.8045 54.779 53.463C54.199 54.8854 54.199 54.8854 53.9547 57.2377C50.0132 57.2377 46.0717 57.2377 42.0107 57.2377C42.0107 59.0292 42.0107 60.8207 42.0107 62.6665C41.2084 61.062 41.1934 59.8867 41.2161 58.1482C41.2172 57.853 41.2182 57.5578 41.2192 57.2537C41.2233 56.3133 41.2324 55.3731 41.2416 54.4328C41.2452 53.7943 41.2485 53.1558 41.2515 52.5172C41.2595 50.9541 41.2719 49.391 41.2868 47.8279C40.9236 47.8266 40.5603 47.8252 40.186 47.8239C36.7617 47.8105 33.3374 47.7896 29.9132 47.7613C28.1527 47.747 26.3924 47.7354 24.6319 47.7298C22.9327 47.7243 21.2337 47.7119 19.5347 47.6946C18.8866 47.6892 18.2385 47.6863 17.5905 47.686C16.6822 47.6852 15.7745 47.6754 14.8664 47.6635C14.5988 47.6653 14.3311 47.6672 14.0554 47.669C12.7615 47.6429 12.0095 47.4904 10.898 46.8075C10.16 46.0183 10.16 46.0183 9.93382 44.7742C10.2268 43.104 10.6097 42.6847 11.9697 41.6753C13.2698 41.3847 14.5548 41.3884 15.8832 41.3812C16.2839 41.3727 16.6846 41.3641 17.0975 41.3553C18.2587 41.3345 19.4196 41.3233 20.581 41.3176C21.4358 41.3131 22.2906 41.3059 23.1455 41.2984C25.0454 41.2826 26.9452 41.2737 28.8452 41.2681C29.1502 41.2671 29.4552 41.266 29.7695 41.2649C33.7473 41.2555 37.6808 41.3876 41.6488 41.6753C41.5293 38.4506 41.4099 35.2259 41.2868 31.9035C39.5799 31.9149 39.5799 31.9149 37.8384 31.9265C34.0766 31.9505 30.3148 31.9665 26.5529 31.9785C24.2723 31.9861 21.9918 31.9963 19.7112 32.0128C17.5099 32.0285 15.3087 32.0371 13.1074 32.0409C12.268 32.0436 11.4286 32.0488 10.5892 32.0566C9.4125 32.0671 8.23613 32.0686 7.05942 32.0679C6.71316 32.0731 6.36691 32.0783 6.01017 32.0837C3.82926 32.0702 2.53139 31.7394 0.749599 30.4559C0.190088 29.3369 0.281396 28.4312 0.38766 27.1986C1.06343 26.3427 1.58952 25.8739 2.5593 25.389C3.07739 25.3516 3.59716 25.336 4.11659 25.3318C4.44345 25.3282 4.7703 25.3247 5.10706 25.321C5.46659 25.319 5.82612 25.3169 6.19654 25.3147C6.57438 25.3112 6.95222 25.3076 7.3415 25.3039C8.59487 25.2924 9.84825 25.2835 11.1016 25.2745C11.9689 25.2671 12.8361 25.2595 13.7034 25.2517C15.9894 25.2317 18.2755 25.2139 20.5616 25.1964C22.893 25.1783 25.2244 25.1581 27.5557 25.1381C32.1328 25.0991 36.7098 25.0624 41.2868 25.0271C41.2826 24.7733 41.2784 24.5195 41.2741 24.2581C41.2544 22.1821 41.3389 20.2036 41.6488 18.1507C41.1039 18.1543 41.1039 18.1543 40.548 18.158C37.1237 18.18 33.6994 18.1963 30.2751 18.207C28.5146 18.2126 26.7542 18.2203 24.9938 18.2326C23.2947 18.2444 21.5957 18.2509 19.8966 18.2537C19.2485 18.2557 18.6005 18.2596 17.9524 18.2655C17.0443 18.2734 16.1365 18.2745 15.2283 18.274C14.8269 18.2798 14.8269 18.2798 14.4173 18.2858C12.8217 18.2762 11.7695 18.087 10.522 17.065C10.0946 15.6225 10.0058 14.8693 10.6351 13.491C11.2458 12.722 11.2458 12.722 11.9697 12.36C12.4614 12.3278 12.9546 12.3175 13.4474 12.319C13.9038 12.319 13.9038 12.319 14.3694 12.319C14.8626 12.3218 14.8626 12.3218 15.3657 12.3247C15.7021 12.3252 16.0385 12.3257 16.3851 12.3263C17.462 12.3283 18.5388 12.3328 19.6157 12.3374C20.3448 12.3392 21.0738 12.3409 21.8029 12.3424C23.5923 12.3464 25.3818 12.3526 27.1712 12.36C27.1712 12.1212 27.1712 11.8823 27.1712 11.6362C27.4166 11.6949 27.662 11.7537 27.9148 11.8142C29.1475 12.0269 30.31 12.0451 31.5611 12.0462C31.9257 12.0467 31.9257 12.0467 32.2976 12.0472C32.809 12.0475 33.3203 12.0468 33.8316 12.0453C34.6124 12.0434 35.393 12.0453 36.1737 12.0476C36.6721 12.0474 37.1705 12.0469 37.6688 12.0462C38.3453 12.0456 38.3453 12.0456 39.0354 12.045C39.9838 12.0069 40.7501 11.919 41.6488 11.6362C41.589 11.1883 41.5293 10.7405 41.4678 10.279C41.1467 7.33349 41.0259 4.68109 42.0107 1.86446Z" fill="#EC7B27"/>
<path d="M118.38 8.37898C123.135 8.28194 127.89 8.1849 132.79 8.08492C134.284 8.04208 135.778 7.99925 137.318 7.95512C139.161 7.93387 139.161 7.93387 140.027 7.92992C140.625 7.92276 141.222 7.90633 141.819 7.88225C146.712 7.69504 146.712 7.69504 148.347 8.83042C149.515 9.91663 150.417 11.151 151.28 12.4861C151.903 13.42 152.629 14.2632 153.352 15.1197C153.88 15.7679 154.408 16.4163 154.936 17.065C155.441 17.6835 155.946 18.3017 156.451 18.9198C156.719 19.2473 156.987 19.5748 157.263 19.9122C157.964 20.7679 158.668 21.6212 159.372 22.4739C159.585 22.7309 159.797 22.9879 160.015 23.2527C160.424 23.7475 160.833 24.242 161.242 24.7361C161.664 25.2462 162.076 25.7641 162.481 26.2874C163.098 27.0087 163.665 27.5549 164.381 28.1615C166.902 30.487 167.821 32.7303 167.99 36.1345C168.075 38.8934 167.997 41.651 167.902 44.4086C167.857 45.857 167.838 47.3057 167.816 48.7546C167.77 51.5833 167.693 54.41 167.604 57.2377C165.095 57.2377 162.587 57.2377 160.003 57.2377C159.869 56.5958 159.734 55.9538 159.596 55.2924C158.528 51.0923 156.274 48.1263 152.602 45.8246C148.366 43.5442 143.924 43.3195 139.333 44.5791C135.063 46.0217 132.37 48.5774 130.324 52.5328C129.846 54.0854 129.368 55.638 128.876 57.2377C125.412 57.2377 121.949 57.2377 118.38 57.2377C118.38 41.1143 118.38 24.9909 118.38 8.37898Z" fill="#EB7B25"/>
<path d="M110.055 93.0675C110.414 93.4258 110.414 93.4258 110.779 93.7913C111.138 93.7913 111.496 93.7913 111.865 93.7913C111.865 94.1496 111.865 94.5079 111.865 94.8771C112.223 95.0562 112.223 95.0562 112.589 95.239C112.675 95.0239 112.762 94.8088 112.851 94.5873C113.411 93.6224 113.983 93.2356 114.919 92.6377C115.202 92.4534 115.485 92.2691 115.777 92.0793C119.119 90.1432 124.213 90.8 127.79 91.6198C127.79 91.8587 127.79 92.0975 127.79 92.3437C128.058 92.4332 128.326 92.5228 128.602 92.6151C130.555 93.5002 131.971 95.2597 132.91 97.1659C133.648 99.366 133.761 101.618 133.867 103.924C133.899 105.029 133.899 105.029 134.305 106.096C134.186 106.455 134.066 106.813 133.943 107.182C134.003 107.384 134.063 107.585 134.124 107.793C134.305 108.63 134.305 108.63 134.138 109.771C133.838 112.002 133.889 114.25 133.896 116.497C133.898 117.276 133.896 118.055 133.894 118.834C133.894 119.33 133.895 119.826 133.895 120.321C133.896 120.993 133.896 120.993 133.897 121.679C133.87 122.72 133.87 122.72 134.305 123.468C133.335 123.954 132.538 123.908 131.452 123.945C131.03 123.96 130.608 123.975 130.173 123.991C129.73 124.005 129.287 124.019 128.831 124.034C128.385 124.05 127.94 124.065 127.481 124.081C126.378 124.12 125.274 124.157 124.171 124.192C124.169 123.921 124.167 123.649 124.165 123.369C124.144 120.802 124.117 118.236 124.086 115.669C124.07 114.35 124.055 113.031 124.046 111.711C124.036 110.437 124.022 109.163 124.003 107.889C123.994 107.168 123.991 106.448 123.987 105.727C123.98 105.286 123.973 104.844 123.966 104.389C123.962 104.001 123.958 103.614 123.953 103.215C123.785 101.93 123.384 101.052 122.723 99.9439C121.222 98.9725 119.39 99.0096 117.656 99.2201C116.294 99.8396 116.294 99.8396 115.484 101.03C115.246 101.149 115.007 101.269 114.761 101.392C114.381 102.531 114.342 103.363 114.324 104.561C114.317 104.988 114.31 105.416 114.302 105.856C114.296 106.317 114.29 106.779 114.284 107.254C114.273 107.963 114.273 107.963 114.261 108.686C114.241 109.941 114.223 111.196 114.206 112.45C114.188 113.731 114.168 115.012 114.148 116.293C114.109 118.805 114.072 121.318 114.037 123.83C113.678 123.83 113.32 123.83 112.951 123.83C112.951 124.069 112.951 124.308 112.951 124.554C112.743 124.497 112.534 124.44 112.32 124.38C111.536 124.2 110.818 124.12 110.016 124.078C109.743 124.063 109.47 124.047 109.189 124.032C108.907 124.018 108.626 124.003 108.336 123.989C107.906 123.965 107.906 123.965 107.467 123.941C106.761 123.903 106.056 123.867 105.35 123.83C105.35 124.069 105.35 124.308 105.35 124.554C104.992 124.435 104.634 124.315 104.264 124.192C104.262 123.92 104.26 123.647 104.258 123.366C104.237 120.794 104.211 118.223 104.179 115.651C104.163 114.329 104.149 113.006 104.139 111.684C104.13 110.408 104.115 109.131 104.097 107.854C104.088 107.132 104.084 106.409 104.081 105.686C104.073 105.245 104.066 104.803 104.059 104.347C104.053 103.765 104.053 103.765 104.047 103.171C103.835 101.621 103.185 100.674 102.093 99.582C100.321 98.9005 98.3394 99.089 96.5279 99.4915C95.5731 99.8581 95.5731 99.8581 95.1254 100.532C94.2146 103.416 94.0096 105.983 93.9802 109.003C93.9732 109.449 93.9661 109.895 93.9589 110.354C93.9374 111.77 93.9205 113.186 93.9038 114.602C93.8904 115.565 93.8759 116.528 93.8614 117.491C93.8267 119.846 93.7959 122.2 93.7681 124.554C92.8126 124.554 91.857 124.554 90.8726 124.554C90.8726 124.435 90.8726 124.315 90.8726 124.192C89.9225 124.183 88.9724 124.175 88.0223 124.17C87.6171 124.165 87.6171 124.165 87.2037 124.16C85.7336 124.117 85.7336 124.117 84.3577 124.554C83.8942 123.164 83.9648 121.868 83.9879 120.422C83.9913 120.111 83.9948 119.8 83.9984 119.48C84.0103 118.452 84.0249 117.424 84.0395 116.396C84.0483 115.683 84.057 114.971 84.0654 114.258C84.0882 112.382 84.1132 110.506 84.1386 108.63C84.1642 106.716 84.1877 104.802 84.2113 102.888C84.258 99.1319 84.3071 95.3759 84.3577 91.6198C85.2775 91.5543 86.1974 91.491 87.1174 91.429C87.3755 91.4104 87.6335 91.3918 87.8993 91.3726C89.8889 91.2409 91.7943 91.3114 93.7681 91.6198C93.9843 92.6197 94.13 93.4874 94.13 94.5152C94.3988 94.239 94.6675 93.9628 94.9444 93.6782C98.9741 89.7403 105.479 90.1416 110.055 93.0675ZM133.581 107.544C133.943 108.268 133.943 108.268 133.943 108.268L133.581 107.544Z" fill="#1C3B4D"/>
<path d="M232.029 90.5341C232.387 90.7729 232.746 91.0118 233.115 91.2579C234.082 91.3184 234.082 91.3184 235.151 91.2579C237.143 91.224 238.804 91.4178 240.716 91.9817C240.895 92.34 240.895 92.34 241.077 92.7056C240.719 92.7056 240.361 92.7056 239.992 92.7056C240.005 93.0483 240.017 93.391 240.031 93.744C240.266 100.2 240.423 106.651 240.283 113.112C240.27 113.704 240.259 114.296 240.249 114.888C240.14 121.203 239.686 126.847 235.241 131.702C232.124 134.677 228.106 136.241 223.819 136.206C223.439 136.205 223.439 136.205 223.051 136.203C222.251 136.199 221.451 136.19 220.651 136.181C220.104 136.177 219.558 136.174 219.011 136.171C217.68 136.163 216.349 136.15 215.018 136.136C215.018 135.777 215.018 135.419 215.018 135.05C214.761 135.011 214.504 134.971 214.239 134.931C211.976 134.397 209.834 133.166 208.254 131.476C208.019 131.095 208.019 131.095 207.779 130.707C207.905 130.537 208.032 130.366 208.162 130.191C208.409 129.853 208.409 129.853 208.661 129.508C208.907 129.174 208.907 129.174 209.158 128.834C209.651 128.138 209.651 128.138 209.951 127.088C210.63 126.42 211.372 125.869 212.122 125.278C212.35 125.426 212.578 125.575 212.812 125.728C216.534 128.07 219.678 128.544 224.066 128.173C226.534 127.611 228.13 126.688 229.495 124.554C230.085 123.178 230.307 122.066 230.219 120.573C229.09 120.47 229.09 120.47 228.183 121.229C225.83 122.834 223.569 123.203 220.741 123.22C220.496 123.222 220.251 123.224 219.998 123.226C218.452 123.204 217.18 122.944 215.742 122.383C215.622 122.622 215.503 122.86 215.38 123.107C215.38 122.748 215.38 122.39 215.38 122.021C214.943 121.92 214.943 121.92 214.498 121.817C211.771 120.717 209.832 118.857 208.246 116.413C208.092 116.233 207.938 116.053 207.779 115.868C207.421 115.868 207.062 115.868 206.693 115.868C206.708 115.502 206.723 115.137 206.738 114.76C206.757 113.36 206.757 113.36 206.337 112.174C205.147 107.731 205.761 102.698 207.908 98.6588C210.127 95.1196 213.137 92.4221 217.189 91.2579C222.113 90.5189 226.108 90.8993 230.219 93.7913C230.339 93.5524 230.458 93.3136 230.581 93.0675C230.342 93.0675 230.103 93.0675 229.857 93.0675C229.925 92.4115 229.925 92.4115 230.219 91.6198C231.147 90.9865 231.147 90.9865 232.029 90.5341ZM217.266 101.076C215.529 103.574 215.125 105.606 215.38 108.63C215.945 111.028 217.031 112.699 219.044 114.149C221.254 115.313 223.903 115.447 226.28 114.73C227.987 113.955 229.161 112.761 230.174 111.209C230.794 109.488 231.175 107.877 230.581 106.096C230.525 105.503 230.525 105.503 230.468 104.898C230.044 102.624 228.692 101.065 226.962 99.582C223.83 98.0161 219.581 98.3218 217.266 101.076Z" fill="#203F50"/>
<path d="M41.6488 80.4004C45.1126 80.4004 48.5763 80.4004 52.145 80.4004C52.0256 81.4753 51.9062 82.5502 51.7831 83.6576C51.7525 84.5126 51.7359 85.3681 51.735 86.2236C51.7346 86.6866 51.7341 87.1496 51.7336 87.6267C51.7357 88.3381 51.7357 88.3381 51.7379 89.0638C51.7365 89.5366 51.7351 90.0094 51.7336 90.4966C51.7359 92.7911 51.8119 95.0269 52.0758 97.3052C52.1952 98.735 52.0885 100.144 51.9867 101.573C51.9503 102.175 51.9145 102.777 51.8792 103.379C51.8622 103.662 51.8452 103.945 51.8276 104.237C51.6192 107.858 51.621 111.089 53.9547 114.059C55.4183 115.663 57.0657 116.174 59.1887 116.311C62.0298 116.358 62.0298 116.358 64.8129 115.868C64.9324 115.629 65.0518 115.39 65.1749 115.144C65.4511 115.01 65.7273 114.876 66.0118 114.737C67.3678 113.791 67.8947 112.712 68.4323 111.163C68.5919 109.948 68.5717 108.767 68.5228 107.544C68.5163 107.229 68.5097 106.914 68.503 106.59C68.4861 105.822 68.4602 105.054 68.4323 104.287C68.1934 104.167 67.9546 104.048 67.7084 103.925C67.7084 99.506 67.7084 95.087 67.7084 90.5341C67.9473 90.5341 68.1862 90.5341 68.4323 90.5341C68.4323 88.5037 68.4323 86.4734 68.4323 84.3815C68.3129 84.3815 68.1934 84.3815 68.0704 84.3815C68.0063 82.7159 68.0312 81.9263 68.7943 80.4004C72.1386 80.4004 75.4829 80.4004 78.9286 80.4004C78.8091 82.789 78.6897 85.1777 78.5666 87.6387C78.8055 87.7582 79.0444 87.8776 79.2905 88.0006C79.0516 88.0006 78.8127 88.0006 78.5666 88.0006C78.6263 88.2395 78.6861 88.4784 78.7476 88.7245C79.0113 90.3066 78.9439 91.8745 78.9144 93.4718C78.9023 94.5464 78.9163 95.5408 79.1322 96.5962C79.3108 97.5151 79.1617 97.9611 78.9286 98.8581C78.912 99.7811 78.913 100.695 78.9286 101.618C79.0029 114.799 79.0029 114.799 74.2912 119.825C69.581 124.241 63.5403 125.063 57.3408 124.877C53.0201 124.462 48.413 122.49 45.4887 119.198C42.995 115.79 41.9221 112.47 41.8609 108.293C41.8538 107.985 41.8468 107.676 41.8396 107.359C41.8177 106.35 41.801 105.341 41.7845 104.332C41.7708 103.629 41.7569 102.927 41.7429 102.224C41.6071 94.9497 41.6153 87.6754 41.6488 80.4004ZM68.4323 91.6198C68.1863 92.4874 68.1863 92.4874 68.0704 93.4294C68.3093 93.6683 68.5481 93.9071 68.7943 94.1532C68.7943 93.3172 68.7943 92.4812 68.7943 91.6198C68.6748 91.6198 68.5554 91.6198 68.4323 91.6198ZM68.4323 94.5151C68.4323 95.1123 68.4323 95.7095 68.4323 96.3247C68.5518 96.3247 68.6712 96.3247 68.7943 96.3247C68.7943 95.7276 68.7943 95.1304 68.7943 94.5151C68.6748 94.5151 68.5554 94.5151 68.4323 94.5151Z" fill="#272937"/>
<path d="M260.894 90.8055C265.349 90.8942 269.095 92.5153 272.317 95.533C273.84 97.1388 275.462 99.103 275.462 101.392C275.701 101.511 275.939 101.63 276.186 101.753C276.548 104.287 276.548 104.287 276.548 110.801C269.023 110.921 261.498 111.04 253.745 111.163C255.17 114.587 255.17 114.587 257.953 116.321C260.811 116.956 263.432 116.839 266.051 115.506C266.914 114.625 266.914 114.625 267.499 113.697C267.857 113.338 267.857 113.338 268.223 112.973C268.439 113.085 268.656 113.197 268.879 113.312C269.703 113.734 269.703 113.734 270.757 114.059C271.059 114.294 271.059 114.294 271.367 114.534C272.532 115.383 273.802 115.972 275.1 116.592C273.114 120.345 270.114 122.909 266.051 124.192C262.505 125.001 259.456 124.903 255.917 124.192C255.337 124.111 254.757 124.034 254.175 123.966C253.604 123.899 253.604 123.899 253.021 123.83C253.021 123.592 253.021 123.353 253.021 123.107C252.494 122.716 251.947 122.351 251.393 121.998C249.154 120.477 247.309 118.677 245.928 116.335C245.495 115.464 245.495 115.464 244.697 115.144C243.246 108.824 243.926 102.949 247.23 97.4105C249.286 94.2863 252.64 92.0586 256.279 91.2579C257.813 90.9926 259.342 90.9089 260.894 90.8055ZM254.529 101.423C253.974 102.246 253.974 102.246 253.745 103.925C258.284 103.925 262.823 103.925 267.499 103.925C266.423 101.057 265.931 100.206 263.427 98.745C259.848 97.8502 256.935 98.605 254.529 101.423Z" fill="#223F50"/>
<path d="M171.866 91.5717C172.284 91.5713 172.701 91.5708 173.131 91.5703C173.569 91.5717 174.007 91.5731 174.458 91.5746C174.894 91.5732 175.331 91.5718 175.781 91.5703C176.407 91.571 176.407 91.571 177.047 91.5717C177.431 91.5721 177.815 91.5726 178.21 91.573C179.186 91.6198 179.186 91.6198 180.272 91.9817C180.272 92.2206 180.272 92.4595 180.272 92.7056C179.913 92.7056 179.555 92.7056 179.186 92.7056C179.21 95.3778 179.243 98.0498 179.281 100.722C179.293 101.63 179.303 102.538 179.311 103.446C179.323 104.755 179.342 106.064 179.363 107.373C179.365 107.776 179.367 108.179 179.37 108.594C179.413 110.906 179.588 113.045 180.634 115.144C182.244 116.581 183.969 116.388 186.026 116.332C187.384 116.209 188.233 115.981 189.32 115.144C190.673 113.389 191.17 112.094 191.204 109.903C191.211 109.498 191.219 109.092 191.226 108.674C191.235 108.017 191.235 108.017 191.244 107.348C191.252 106.899 191.259 106.451 191.267 105.989C191.287 104.799 191.305 103.608 191.322 102.417C191.341 101.202 191.361 99.9866 191.381 98.7712C191.42 96.3874 191.456 94.0036 191.492 91.6198C194.597 91.6198 197.703 91.6198 200.902 91.6198C200.902 102.249 200.902 112.879 200.902 123.83C197.639 124.238 197.639 124.238 196.391 124.24C196.124 124.241 195.857 124.241 195.583 124.242C195.181 124.24 195.181 124.24 194.772 124.238C194.494 124.239 194.217 124.24 193.931 124.242C191.9 124.238 191.9 124.238 191.492 123.83C191.359 122.988 191.238 122.143 191.13 121.297C190.898 121.566 190.667 121.834 190.429 122.111C188.122 124.367 185.374 124.784 182.244 124.933C180.278 124.906 178.506 124.501 176.621 123.986C175.87 123.791 175.87 123.791 174.843 123.83C174.719 123.517 174.719 123.517 174.594 123.197C174.153 122.322 174.153 122.322 173.259 121.727C172.065 120.732 171.574 119.774 170.861 118.402C170.622 118.402 170.383 118.402 170.137 118.402C169.793 115.355 169.727 112.346 169.74 109.282C169.741 108.805 169.741 108.329 169.742 107.838C169.743 106.586 169.747 105.333 169.751 104.081C169.754 102.797 169.756 101.514 169.758 100.23C169.762 97.722 169.768 95.2138 169.775 92.7056C169.537 92.7056 169.298 92.7056 169.052 92.7056C169.052 92.4667 169.052 92.2278 169.052 91.9817C170.023 91.496 170.78 91.5729 171.866 91.5717Z" fill="#272937"/>
<path d="M138.649 90.5341C138.768 90.8924 138.887 91.2507 139.011 91.6198C139.13 91.3809 139.249 91.1421 139.372 90.896C139.731 91.0154 140.089 91.1348 140.458 91.2579C140.954 91.2907 141.451 91.3042 141.948 91.3047C142.396 91.3064 142.396 91.3064 142.853 91.3082C143.334 91.3071 143.334 91.3071 143.826 91.306C144.323 91.3065 144.323 91.3065 144.831 91.307C145.532 91.3073 146.234 91.3066 146.936 91.3051C148.007 91.3031 149.079 91.3051 150.15 91.3074C150.832 91.3071 151.514 91.3067 152.196 91.306C152.516 91.3067 152.835 91.3074 153.165 91.3082C154.655 91.3025 156.01 91.2335 157.469 90.896C157.955 91.006 158.437 91.1286 158.917 91.2579C160.153 91.3382 161.387 91.3998 162.625 91.4452C163.974 91.5116 164.645 91.5778 165.794 92.3436C165.555 92.4631 165.316 92.5825 165.07 92.7056C165.086 93.2984 165.104 93.8912 165.136 94.4833C165.273 98.7165 163.103 100.916 160.343 103.88C159.222 105.108 158.191 106.405 157.153 107.702C156.766 108.18 156.379 108.656 155.992 109.133C154.668 110.769 153.352 112.412 152.04 114.059C151.563 114.656 151.085 115.253 150.593 115.868C155.609 115.868 160.626 115.868 165.794 115.868C166.073 116.984 166.2 117.697 166.191 118.803C166.19 119.213 166.19 119.213 166.188 119.63C166.183 120.052 166.183 120.052 166.179 120.483C166.177 120.77 166.175 121.056 166.174 121.352C166.169 122.058 166.163 122.763 166.156 123.468C164.883 124.254 163.864 124.28 162.384 124.274C161.678 124.274 161.678 124.274 160.957 124.274C160.445 124.271 159.933 124.267 159.421 124.263C158.895 124.262 158.37 124.261 157.844 124.26C156.464 124.257 155.083 124.25 153.703 124.242C152.293 124.235 150.884 124.231 149.474 124.228C146.71 124.22 143.946 124.208 141.182 124.192C141.182 124.312 141.182 124.431 141.182 124.554C140.227 124.554 139.271 124.554 138.287 124.554C138.167 124.315 138.048 124.076 137.925 123.83C137.686 123.711 137.447 123.592 137.201 123.468C137.316 123.265 137.43 123.062 137.549 122.852C137.95 121.966 138.066 121.267 138.151 120.302C138.191 119.868 138.191 119.868 138.233 119.425C138.259 119.098 138.259 119.098 138.287 118.764C137.928 118.644 137.57 118.525 137.201 118.402C137.201 117.804 137.201 117.207 137.201 116.592C137.559 116.592 137.917 116.592 138.287 116.592C139.128 115.83 139.128 115.83 139.983 114.828C140.144 114.646 140.305 114.464 140.471 114.277C141.682 112.899 142.84 111.483 143.972 110.039C144.648 109.186 145.334 108.343 146.027 107.503C146.243 107.242 146.458 106.98 146.68 106.71C147.112 106.186 147.546 105.662 147.981 105.14C148.178 104.899 148.376 104.659 148.579 104.411C148.847 104.088 148.847 104.088 149.121 103.757C149.576 103.215 149.576 103.215 149.507 102.477C149.79 102.253 150.074 102.029 150.366 101.799C151.289 101.052 151.571 100.629 152.04 99.582C151.637 99.5839 151.233 99.5858 150.817 99.5877C149.324 99.5942 147.831 99.5984 146.339 99.6019C145.692 99.6037 145.045 99.6061 144.397 99.6093C143.469 99.6136 142.541 99.6157 141.613 99.6173C141.177 99.6201 141.177 99.6201 140.731 99.623C140.037 99.623 139.343 99.6044 138.649 99.582C138.065 98.9987 138.24 98.3655 138.239 97.5603C138.238 97.2235 138.238 96.8867 138.237 96.5396C138.239 96.185 138.24 95.8305 138.241 95.4652C138.24 95.1134 138.239 94.7616 138.237 94.3992C138.238 94.0614 138.238 93.7237 138.239 93.3757C138.239 92.91 138.239 92.91 138.24 92.435C138.287 91.6198 138.287 91.6198 138.649 90.5341Z" fill="#1F3D4E"/>
<path d="M281.253 90.8959C281.492 90.8959 281.731 90.8959 281.977 90.8959C281.977 91.1348 281.977 91.3737 281.977 91.6198C282.214 91.605 282.451 91.5903 282.696 91.5751C283.768 91.5106 284.84 91.452 285.913 91.3936C286.286 91.3702 286.66 91.3469 287.045 91.3229C287.402 91.3042 287.759 91.2856 288.127 91.2663C288.457 91.2474 288.786 91.2284 289.126 91.2089C289.939 91.2579 289.939 91.2579 290.663 91.9817C290.708 93.2936 290.708 93.2936 290.663 94.5151C290.817 94.3709 290.97 94.2268 291.128 94.0783C294.227 91.2796 297.07 90.9163 301.159 90.8959C301.747 91.483 301.568 92.1338 301.569 92.943C301.57 93.4532 301.57 93.4532 301.571 93.9736C301.569 94.3315 301.568 94.6893 301.567 95.058C301.569 95.5947 301.569 95.5947 301.571 96.1423C301.57 96.4824 301.57 96.8225 301.569 97.1729C301.569 97.4871 301.569 97.8013 301.568 98.1251C301.521 98.8581 301.521 98.8581 301.159 99.22C300.369 99.278 299.576 99.3205 298.784 99.3557C296.09 99.5392 294.175 99.7318 292.156 101.663C290.5 104.196 290.549 106.689 290.526 109.632C290.52 110.037 290.514 110.441 290.507 110.858C290.488 112.143 290.474 113.429 290.46 114.715C290.444 116.007 290.427 117.299 290.408 118.591C290.396 119.394 290.387 120.196 290.379 120.999C290.374 121.36 290.369 121.722 290.364 122.094C290.361 122.413 290.357 122.731 290.354 123.06C290.301 123.83 290.301 123.83 289.939 124.554C289.223 124.554 288.506 124.554 287.768 124.554C287.768 124.315 287.768 124.076 287.768 123.83C287.357 123.898 286.947 123.965 286.524 124.034C284.844 124.25 283.281 124.081 281.615 123.83C281.615 124.069 281.615 124.308 281.615 124.554C281.376 124.435 281.137 124.315 280.891 124.192C280.882 119.958 280.876 115.723 280.872 111.489C280.87 109.523 280.868 107.557 280.864 105.591C280.86 103.695 280.857 101.799 280.856 99.9026C280.856 99.178 280.855 98.4533 280.853 97.7286C280.85 96.7164 280.85 95.7042 280.85 94.692C280.848 94.39 280.847 94.088 280.846 93.7769C280.85 91.7023 280.85 91.7023 281.253 90.8959Z" fill="#1D3A4B"/>
<path d="M132.858 14.8935C145.429 14.2078 145.429 14.2078 147.686 15.9623C148.724 17.0588 149.493 18.2888 150.201 19.6183C150.778 20.6562 151.535 21.5093 152.312 22.4032C152.825 23.036 153.338 23.6694 153.85 24.3033C155.596 26.4548 157.347 28.591 159.201 30.651C159.641 31.1797 159.641 31.1797 159.641 31.5416C150.803 31.5416 141.964 31.5416 132.858 31.5416C132.858 26.0477 132.858 20.5538 132.858 14.8935Z" fill="#1C3B53"/>
<path d="M118.38 8.37897C123.172 8.32672 127.965 8.27447 132.903 8.22063C134.414 8.19757 135.924 8.1745 137.481 8.15074C139.332 8.1393 139.332 8.1393 140.2 8.13717C140.803 8.13329 141.407 8.1244 142.01 8.1115C147.127 8.00761 147.127 8.00761 148.589 8.95983C149.197 9.66114 149.197 9.66114 149.869 10.9124C149.749 11.1513 149.63 11.3901 149.507 11.6362C148.888 11.0487 148.285 10.4444 147.697 9.82664C147.697 9.58777 147.697 9.34891 147.697 9.1028C138.261 9.1028 128.826 9.1028 119.104 9.1028C119.104 24.7485 119.104 40.3941 119.104 56.5139C122.209 56.5139 125.315 56.5139 128.514 56.5139C128.634 56.1556 128.753 55.7973 128.876 55.4281C128.876 56.0253 128.876 56.6225 128.876 57.2377C125.412 57.2377 121.949 57.2377 118.38 57.2377C118.38 41.1143 118.38 24.9909 118.38 8.37897Z" fill="#D48225"/>
<path d="M68.7943 80.4004C72.1386 80.4004 75.4829 80.4004 78.9286 80.4004C78.8091 82.789 78.6897 85.1777 78.5666 87.6387C78.8055 87.7582 79.0444 87.8776 79.2905 88.0006C79.0516 88.0006 78.8127 88.0006 78.5666 88.0006C78.6562 88.3589 78.6562 88.3589 78.7476 88.7245C79.0113 90.3066 78.9439 91.8745 78.9144 93.4718C78.9023 94.5464 78.9163 95.5408 79.1322 96.5962C79.3108 97.5151 79.1617 97.9611 78.9286 98.8581C78.912 99.7811 78.9126 100.695 78.9286 101.618C78.9606 104.931 78.7831 108.22 78.5666 111.525C78.4472 111.525 78.3277 111.525 78.2047 111.525C78.2047 101.373 78.2047 91.2217 78.2047 80.7623C75.2187 80.7623 72.2327 80.7623 69.1562 80.7623C69.1562 90.6752 69.1562 100.588 69.1562 110.801C69.0368 110.801 68.9173 110.801 68.7943 110.801C68.6748 108.652 68.5554 106.502 68.4323 104.287C68.1934 104.167 67.9546 104.048 67.7084 103.925C67.7084 99.506 67.7084 95.087 67.7084 90.5341C67.9473 90.5341 68.1862 90.5341 68.4323 90.5341C68.4323 88.5037 68.4323 86.4734 68.4323 84.3815C68.3129 84.3815 68.1934 84.3815 68.0704 84.3815C68.0063 82.7159 68.0312 81.9263 68.7943 80.4004ZM68.4323 91.6198C68.1863 92.4874 68.1863 92.4874 68.0704 93.4294C68.3093 93.6683 68.5481 93.9071 68.7943 94.1532C68.7943 93.3172 68.7943 92.4812 68.7943 91.6198C68.6748 91.6198 68.5554 91.6198 68.4323 91.6198ZM68.4323 94.5151C68.4323 95.1123 68.4323 95.7095 68.4323 96.3247C68.5518 96.3247 68.6712 96.3247 68.7943 96.3247C68.7943 95.7276 68.7943 95.1304 68.7943 94.5151C68.6748 94.5151 68.5554 94.5151 68.4323 94.5151Z" fill="#687377"/>
<path d="M281.253 90.8959C281.492 90.8959 281.731 90.8959 281.977 90.8959C281.977 91.1348 281.977 91.3737 281.977 91.6198C282.214 91.605 282.451 91.5903 282.696 91.5751C283.768 91.5106 284.84 91.452 285.913 91.3936C286.286 91.3702 286.66 91.3469 287.045 91.3229C287.402 91.3042 287.759 91.2856 288.127 91.2663C288.457 91.2474 288.786 91.2284 289.126 91.2089C289.939 91.2579 289.939 91.2579 290.663 91.9817C290.708 93.2936 290.708 93.2936 290.663 94.5151C291.141 94.0374 291.619 93.5596 292.111 93.0674C292.35 93.1869 292.589 93.3063 292.835 93.4294C292.421 93.8527 292.006 94.2747 291.591 94.6961C291.36 94.9312 291.129 95.1663 290.891 95.4086C290.301 95.9628 290.301 95.9628 289.939 95.9628C289.939 94.649 289.939 93.3353 289.939 91.9817C287.073 91.9817 284.206 91.9817 281.253 91.9817C281.253 102.372 281.253 112.763 281.253 123.468C284.119 123.468 286.986 123.468 289.939 123.468C289.927 121.495 289.927 121.495 289.914 119.482C289.908 118.208 289.904 116.935 289.9 115.662C289.896 114.777 289.891 113.891 289.885 113.006C289.876 111.734 289.872 110.462 289.869 109.19C289.865 108.793 289.861 108.397 289.857 107.989C289.857 107.619 289.857 107.25 289.857 106.869C289.856 106.545 289.854 106.22 289.852 105.885C289.945 104.954 290.193 104.364 290.663 103.563C290.688 107.611 290.625 111.654 290.528 115.701C290.504 116.72 290.483 117.738 290.462 118.757C290.447 119.406 290.431 120.055 290.416 120.705C290.407 121.16 290.407 121.16 290.397 121.625C290.343 123.748 290.343 123.748 289.939 124.554C289.223 124.554 288.506 124.554 287.768 124.554C287.768 124.315 287.768 124.076 287.768 123.83C287.357 123.898 286.947 123.965 286.524 124.034C284.844 124.25 283.281 124.081 281.615 123.83C281.615 124.069 281.615 124.308 281.615 124.554C281.376 124.435 281.137 124.315 280.891 124.192C280.882 119.958 280.876 115.723 280.872 111.489C280.87 109.523 280.868 107.557 280.864 105.591C280.86 103.695 280.857 101.799 280.856 99.9026C280.856 99.178 280.855 98.4533 280.853 97.7286C280.85 96.7164 280.85 95.7042 280.85 94.692C280.848 94.39 280.847 94.088 280.846 93.7769C280.85 91.7023 280.85 91.7023 281.253 90.8959Z" fill="#7F8888"/>
<path d="M93.7681 91.6198C94.0322 92.8572 94.1662 93.9718 94.13 95.2389C93.8911 95.2389 93.6523 95.2389 93.4061 95.2389C93.4061 94.1641 93.4061 93.0892 93.4061 91.9817C90.5396 91.9817 87.673 91.9817 84.7196 91.9817C84.7196 102.372 84.7196 112.763 84.7196 123.468C87.5862 123.468 90.4527 123.468 93.4061 123.468C93.3978 122.048 93.3894 120.628 93.3807 119.165C93.3751 117.791 93.3707 116.417 93.3664 115.043C93.3627 114.088 93.3578 113.132 93.3515 112.177C93.3428 110.804 93.3387 109.431 93.3355 108.059C93.3317 107.631 93.328 107.203 93.3241 106.762C93.3241 106.364 93.324 105.965 93.324 105.555C93.3224 105.204 93.3208 104.854 93.3191 104.493C93.4061 103.563 93.4061 103.563 94.13 102.115C94.0106 109.52 93.8911 116.925 93.7681 124.554C92.8126 124.554 91.857 124.554 90.8726 124.554C90.8726 124.435 90.8726 124.315 90.8726 124.192C89.9225 124.183 88.9724 124.175 88.0223 124.17C87.6171 124.165 87.6171 124.165 87.2037 124.16C85.7336 124.117 85.7336 124.117 84.3577 124.554C83.8942 123.164 83.9648 121.868 83.9879 120.422C83.9913 120.111 83.9948 119.8 83.9984 119.48C84.0103 118.452 84.0249 117.424 84.0395 116.396C84.0483 115.683 84.057 114.971 84.0654 114.258C84.0882 112.382 84.1132 110.506 84.1386 108.63C84.1642 106.716 84.1877 104.802 84.2113 102.888C84.258 99.1319 84.3071 95.3758 84.3577 91.6198C85.1502 91.554 85.9429 91.4909 86.7357 91.4289C87.1771 91.3935 87.6186 91.3581 88.0734 91.3216C89.9934 91.2311 91.8626 91.3929 93.7681 91.6198Z" fill="#707879"/>
<path d="M191.492 91.6198C194.597 91.6198 197.703 91.6198 200.902 91.6198C200.902 102.249 200.902 112.879 200.902 123.83C197.639 124.238 197.639 124.238 196.391 124.24C196.124 124.241 195.857 124.241 195.583 124.242C195.315 124.24 195.048 124.239 194.772 124.237C194.494 124.239 194.217 124.24 193.931 124.242C191.9 124.238 191.9 124.238 191.492 123.83C191.398 123.298 191.326 122.762 191.266 122.224C191.231 121.934 191.196 121.643 191.161 121.344C191.13 120.573 191.13 120.573 191.492 119.849C191.731 119.849 191.97 119.849 192.216 119.849C192.096 121.044 191.977 122.238 191.854 123.468C194.72 123.468 197.587 123.468 200.54 123.468C200.54 113.078 200.54 102.687 200.54 91.9817C197.674 91.9817 194.807 91.9817 191.854 91.9817C191.857 92.5918 191.861 93.202 191.865 93.8307C191.877 95.8444 191.885 97.858 191.891 99.8718C191.895 101.093 191.9 102.314 191.908 103.535C191.917 104.938 191.921 106.342 191.924 107.745C191.928 108.184 191.932 108.624 191.936 109.077C191.936 109.483 191.936 109.888 191.936 110.306C191.937 110.665 191.939 111.023 191.941 111.393C191.854 112.249 191.854 112.249 191.13 112.973C191.249 105.926 191.369 98.8798 191.492 91.6198Z" fill="#787E7E"/>
<path d="M139.734 115.144C139.734 115.503 139.734 115.861 139.734 116.23C139.496 116.469 139.257 116.708 139.011 116.954C138.891 119.104 138.772 121.253 138.649 123.468C147.487 123.468 156.326 123.468 165.432 123.468C165.432 121.199 165.432 118.93 165.432 116.592C160.177 116.592 154.921 116.592 149.507 116.592C150.231 115.868 150.231 115.868 150.909 115.781C151.321 115.784 151.321 115.784 151.741 115.786C152.209 115.786 152.209 115.786 152.686 115.786C153.022 115.79 153.359 115.794 153.706 115.797C154.05 115.799 154.395 115.8 154.75 115.801C155.852 115.805 156.955 115.814 158.058 115.823C158.804 115.827 159.551 115.83 160.297 115.833C162.129 115.841 163.962 115.853 165.794 115.868C166.06 116.88 166.199 117.755 166.191 118.803C166.19 119.212 166.19 119.212 166.188 119.63C166.183 120.052 166.183 120.052 166.179 120.483C166.177 120.77 166.175 121.056 166.174 121.352C166.169 122.058 166.163 122.763 166.156 123.468C164.883 124.254 163.864 124.28 162.384 124.274C161.678 124.274 161.678 124.274 160.957 124.274C160.445 124.271 159.933 124.267 159.42 124.263C158.895 124.262 158.37 124.261 157.844 124.26C156.464 124.257 155.083 124.25 153.703 124.242C152.293 124.235 150.884 124.231 149.474 124.228C146.71 124.22 143.946 124.208 141.182 124.192C141.182 124.312 141.182 124.431 141.182 124.554C140.227 124.554 139.271 124.554 138.287 124.554C138.167 124.315 138.048 124.076 137.925 123.83C137.686 123.711 137.447 123.591 137.201 123.468C137.316 123.265 137.43 123.062 137.549 122.852C137.95 121.966 138.066 121.267 138.151 120.302C138.178 120.012 138.205 119.723 138.233 119.425C138.251 119.207 138.268 118.988 138.287 118.764C137.928 118.644 137.57 118.525 137.201 118.402C137.201 117.804 137.201 117.207 137.201 116.592C137.559 116.592 137.917 116.592 138.287 116.592C139.078 115.891 139.078 115.891 139.734 115.144Z" fill="#697174"/>
<path d="M163.26 27.9225C165.414 29.4236 167.35 31.2106 167.826 33.8702C167.896 35.3631 167.889 36.8358 167.851 38.329C167.846 38.8761 167.843 39.4232 167.84 39.9703C167.831 41.4003 167.806 42.8297 167.778 44.2594C167.752 45.7224 167.74 47.1854 167.727 48.6485C167.7 51.5119 167.656 54.3747 167.604 57.2377C165.215 57.2377 162.826 57.2377 160.365 57.2377C160.365 56.9988 160.365 56.76 160.365 56.5139C162.515 56.5139 164.665 56.5139 166.88 56.5139C166.906 53.4679 166.919 50.4229 166.907 47.3769C166.902 45.9621 166.903 44.5478 166.918 43.1331C166.933 41.7647 166.931 40.3972 166.918 39.0288C166.916 38.5099 166.92 37.9908 166.929 37.472C166.988 34.0146 166.421 31.9491 163.959 29.3905C163.26 28.6463 163.26 28.6463 163.26 27.9225Z" fill="#E08823"/>
<path d="M239.63 91.9817C240.399 92.1174 240.399 92.1174 241.077 92.3436C240.719 92.463 240.361 92.5825 239.992 92.7055C240.005 93.0482 240.017 93.3909 240.031 93.744C240.279 100.566 240.403 107.369 240.218 114.194C240.21 114.495 240.202 114.796 240.194 115.106C240.171 115.966 240.146 116.826 240.119 117.686C240.112 117.936 240.104 118.187 240.097 118.444C239.933 123.128 239.933 123.128 239.072 124.095C238.898 124.246 238.723 124.398 238.544 124.554C238.574 120.414 238.609 116.274 238.648 112.134C238.666 110.212 238.683 108.29 238.697 106.367C238.71 104.513 238.727 102.66 238.746 100.806C238.753 100.097 238.758 99.3888 238.762 98.6803C238.768 97.6906 238.779 96.701 238.79 95.7113C238.791 95.4161 238.792 95.1209 238.793 94.8167C238.823 92.7881 238.823 92.7881 239.63 91.9817Z" fill="#4C5F66"/>
<path d="M133.219 99.9438C133.339 99.9438 133.458 99.9438 133.581 99.9438C133.603 100.297 133.625 100.65 133.648 101.014C133.693 101.705 133.693 101.705 133.74 102.409C133.769 102.867 133.799 103.325 133.829 103.796C133.897 105.008 133.897 105.008 134.305 106.096C134.186 106.455 134.066 106.813 133.943 107.182C134.003 107.384 134.063 107.585 134.124 107.793C134.305 108.63 134.305 108.63 134.138 109.771C133.838 112.002 133.889 114.25 133.896 116.497C133.898 117.276 133.896 118.055 133.894 118.834C133.894 119.33 133.895 119.826 133.895 120.321C133.896 120.769 133.896 121.217 133.897 121.678C133.87 122.72 133.87 122.72 134.305 123.468C131.276 124.983 127.555 124.062 124.171 124.192C124.171 116.907 124.171 109.621 124.171 102.115C124.29 102.115 124.41 102.115 124.533 102.115C124.533 109.162 124.533 116.208 124.533 123.468C127.399 123.468 130.266 123.468 133.219 123.468C133.219 115.705 133.219 107.942 133.219 99.9438ZM133.581 107.544C133.943 108.268 133.943 108.268 133.943 108.268L133.581 107.544Z" fill="#656E71"/>
<path d="M104.264 102.115C104.384 102.115 104.503 102.115 104.626 102.115C104.626 109.162 104.626 116.208 104.626 123.468C107.612 123.468 110.598 123.468 113.675 123.468C113.675 116.661 113.675 109.853 113.675 102.839C113.794 102.839 113.914 102.839 114.037 102.839C114.037 109.766 114.037 116.693 114.037 123.83C113.678 123.83 113.32 123.83 112.951 123.83C112.951 124.069 112.951 124.308 112.951 124.554C112.743 124.497 112.534 124.439 112.32 124.38C111.536 124.2 110.818 124.12 110.016 124.078C109.606 124.055 109.606 124.055 109.189 124.032C108.907 124.018 108.626 124.003 108.336 123.989C108.049 123.973 107.762 123.957 107.467 123.941C106.761 123.903 106.056 123.867 105.35 123.83C105.35 124.069 105.35 124.308 105.35 124.554C104.992 124.435 104.633 124.315 104.264 124.192C104.264 116.907 104.264 109.622 104.264 102.115Z" fill="#848D8E"/>
<path d="M230.943 91.9817C233.81 91.9817 236.676 91.9817 239.63 91.9817C239.63 100.342 239.63 108.702 239.63 117.316C239.51 117.316 239.391 117.316 239.268 117.316C239.268 109.194 239.268 101.073 239.268 92.7055C236.76 92.7055 234.251 92.7055 231.667 92.7055C231.667 93.661 231.667 94.6164 231.667 95.6009C230.827 94.2351 230.943 93.7869 230.943 91.9817Z" fill="#272937"/>
<path d="M34.41 46.7421C35.6692 46.7317 36.9284 46.7252 38.1877 46.7195C38.7269 46.715 38.7269 46.715 39.2771 46.7103C39.6188 46.7092 39.9606 46.708 40.3127 46.7068C40.7875 46.704 40.7875 46.704 41.2719 46.701C42.0107 46.7421 42.0107 46.7421 42.3726 47.1041C42.409 47.7904 42.42 48.478 42.4207 49.1653C42.4218 49.8086 42.4218 49.8086 42.4228 50.4649C42.4212 50.9233 42.4196 51.3818 42.4179 51.8542C42.4172 52.3146 42.4165 52.7749 42.4158 53.2492C42.4013 56.4024 42.3097 59.5271 42.0107 62.6665C41.0653 61.2598 41.1948 59.7752 41.2161 58.1482C41.2172 57.853 41.2182 57.5578 41.2192 57.2537C41.2233 56.3134 41.2324 55.3732 41.2416 54.4329C41.2452 53.7943 41.2485 53.1558 41.2515 52.5173C41.2594 50.9541 41.2719 49.391 41.2868 47.8279C40.8814 47.8102 40.4759 47.7924 40.0582 47.7742C39.5252 47.747 38.9922 47.7197 38.4592 47.6922C38.1921 47.681 37.925 47.6698 37.6498 47.6582C36.2852 47.5841 35.5694 47.5151 34.41 46.7421Z" fill="#DB752F"/>
<path d="M290.301 103.563C290.421 103.563 290.54 103.563 290.663 103.563C290.688 107.611 290.625 111.655 290.528 115.701C290.504 116.72 290.483 117.739 290.462 118.757C290.447 119.406 290.431 120.055 290.416 120.705C290.407 121.16 290.407 121.16 290.397 121.625C290.343 123.748 290.343 123.748 289.939 124.554C289.223 124.554 288.506 124.554 287.768 124.554C287.768 124.315 287.768 124.076 287.768 123.83C287.357 123.898 286.947 123.965 286.523 124.034C284.844 124.25 283.281 124.081 281.615 123.83C281.615 124.069 281.615 124.308 281.615 124.554C281.376 124.435 281.137 124.315 280.891 124.192C281.01 123.953 281.13 123.715 281.253 123.468C284.119 123.468 286.986 123.468 289.939 123.468C289.935 122.153 289.931 120.837 289.927 119.482C289.924 118.208 289.922 116.935 289.919 115.662C289.918 114.777 289.915 113.891 289.912 113.006C289.908 111.734 289.906 110.462 289.904 109.19C289.902 108.793 289.9 108.397 289.898 107.989C289.898 107.619 289.898 107.25 289.898 106.869C289.897 106.545 289.897 106.22 289.896 105.886C289.937 105.06 290.069 104.354 290.301 103.563Z" fill="#758081"/>
<path d="M27.1712 11.6362C27.4185 11.6955 27.6657 11.7547 27.9205 11.8158C29.1249 12.0229 30.2471 12.0326 31.4692 12.0208C31.9451 12.018 32.421 12.0152 32.9113 12.0123C33.4109 12.0078 33.9104 12.0031 34.41 11.9981C35.3902 11.9885 36.3704 11.9813 37.3507 11.9755C37.7846 11.9713 38.2185 11.9671 38.6656 11.9628C39.7109 11.9943 40.6346 12.1171 41.6488 12.3601C41.6488 12.4795 41.6488 12.5989 41.6488 12.722C31.8547 12.722 22.0606 12.722 11.9697 12.722C11.9697 12.6025 11.9697 12.4831 11.9697 12.3601C16.9862 12.3601 22.0027 12.3601 27.1712 12.3601C27.1712 12.1212 27.1712 11.8823 27.1712 11.6362Z" fill="#EE893B"/>
<path d="M74.9472 54.3424C75.6202 54.4329 75.6202 54.4329 76.395 54.7043C77.6019 56.3731 78.0759 58.3566 77.9898 60.3918C77.7275 61.8668 77.0919 63.16 76.395 64.476C76.2755 64.476 76.1561 64.476 76.033 64.476C76.0592 64.1658 76.0853 63.8556 76.1122 63.5359C76.214 62.2814 76.3051 61.0265 76.395 59.7711C76.4323 59.3158 76.4696 58.8605 76.5081 58.3913C76.3554 56.834 75.7262 55.6812 74.9472 54.3424Z" fill="#2F3C47"/>
<path d="M191.13 113.335C191.249 113.574 191.369 113.813 191.492 114.059C191.163 114.468 190.831 114.875 190.496 115.28C190.312 115.507 190.127 115.734 189.937 115.967C188.612 117.31 187.341 117.437 185.497 117.565C185.086 117.596 184.675 117.627 184.252 117.659C183.167 117.678 183.167 117.678 182.081 117.316C182.081 117.077 182.081 116.838 182.081 116.592C182.422 116.578 182.762 116.565 183.113 116.551C183.564 116.527 184.015 116.503 184.479 116.479C185.147 116.447 185.147 116.447 185.828 116.415C188.187 116.084 189.543 115.061 191.13 113.335Z" fill="#2F3B45"/>
<path d="M51.0592 89.8102C51.1786 89.8102 51.2981 89.8102 51.4211 89.8102C51.9864 94.9391 52.2273 99.8659 51.7831 105.011C51.0592 104.287 51.0592 104.287 50.977 102.876C50.9771 102.267 50.9812 101.658 50.9885 101.049C50.9895 100.729 50.9906 100.409 50.9916 100.079C50.9957 99.0536 51.0048 98.0285 51.014 97.0033C51.0176 96.3091 51.0209 95.615 51.0239 94.9208C51.0318 93.2172 51.0443 91.5137 51.0592 89.8102Z" fill="#434C50"/>
<path d="M138.649 73.524C138.929 73.5795 139.21 73.635 139.5 73.6922C141.19 73.9401 142.87 74.0152 144.575 74.0895C144.911 74.1051 145.246 74.1207 145.592 74.1368C146.414 74.175 147.237 74.2119 148.059 74.2478C146.468 75.7436 144.861 75.463 142.788 75.4155C141.378 75.3226 140.301 75.1799 139.01 74.6097C138.891 74.2514 138.772 73.8931 138.649 73.524Z" fill="#34444F"/>
<path d="M266.051 91.6198C264.521 92.4394 263.244 92.7526 261.51 92.7409C261.204 92.7397 260.899 92.7385 260.584 92.7373C260.268 92.7343 259.952 92.7313 259.627 92.7281C259.305 92.7265 258.984 92.7249 258.653 92.7232C257.861 92.7189 257.07 92.713 256.279 92.7055C256.757 92.4667 257.234 92.2278 257.727 91.9817C256.771 91.9817 255.816 91.9817 254.831 91.9817C258.19 90.1206 262.474 90.7988 266.051 91.6198Z" fill="#40555E"/>
<path d="M139.734 115.144C139.734 115.503 139.734 115.861 139.734 116.23C139.496 116.469 139.257 116.708 139.011 116.954C138.91 117.655 138.91 117.655 138.94 118.45C138.942 118.741 138.944 119.033 138.947 119.333C138.953 119.638 138.959 119.943 138.965 120.256C138.97 120.718 138.97 120.718 138.975 121.188C138.984 121.948 138.997 122.708 139.011 123.468C139.727 123.707 140.444 123.946 141.182 124.192C141.182 124.312 141.182 124.431 141.182 124.554C140.227 124.554 139.271 124.554 138.287 124.554C138.167 124.315 138.048 124.076 137.925 123.83C137.686 123.711 137.447 123.591 137.201 123.468C137.316 123.265 137.43 123.062 137.549 122.852C137.95 121.966 138.066 121.267 138.151 120.302C138.178 120.012 138.205 119.723 138.233 119.425C138.251 119.207 138.268 118.988 138.287 118.764C137.928 118.644 137.57 118.525 137.201 118.402C137.201 117.804 137.201 117.207 137.201 116.592C137.559 116.592 137.917 116.592 138.287 116.592C139.078 115.891 139.078 115.891 139.734 115.144Z" fill="#566267"/>
<path d="M50.6973 101.392C50.8167 101.392 50.9361 101.392 51.0592 101.392C51.5481 105.036 51.8984 108.566 51.7831 112.249C50.8012 110.776 50.6528 109.802 50.6619 108.071C50.6631 107.683 50.6642 107.295 50.6654 106.895C50.6685 106.489 50.6715 106.084 50.6746 105.667C50.6763 105.257 50.6779 104.848 50.6796 104.426C50.6839 103.415 50.6898 102.403 50.6973 101.392Z" fill="#22323C"/>
<path d="M232.029 90.5341C232.387 90.7729 232.746 91.0118 233.115 91.2579C234.118 91.3321 234.118 91.3321 235.219 91.2805C236.74 91.2528 238.136 91.2878 239.63 91.6198C239.63 91.7392 239.63 91.8587 239.63 91.9817C236.763 91.9817 233.897 91.9817 230.943 91.9817C231.063 93.2955 231.182 94.6092 231.305 95.9628C230.219 94.5151 230.219 94.5151 230.332 93.7008C230.414 93.4918 230.497 93.2828 230.581 93.0675C230.342 93.0675 230.103 93.0675 229.857 93.0675C229.925 92.4115 229.925 92.4115 230.219 91.6198C231.147 90.9865 231.147 90.9865 232.029 90.5341Z" fill="#6B7779"/>
<path d="M149.507 103.201C149.626 103.559 149.746 103.918 149.869 104.287C149.501 104.93 149.501 104.93 148.926 105.634C148.719 105.889 148.512 106.143 148.299 106.405C148.078 106.669 147.857 106.933 147.629 107.205C147.415 107.47 147.201 107.735 146.981 108.009C145.964 109.243 145.207 110.157 143.716 110.801C144.225 109.687 144.835 108.807 145.619 107.866C145.845 107.594 146.071 107.321 146.304 107.039C146.54 106.758 146.776 106.477 147.018 106.187C147.376 105.757 147.376 105.757 147.741 105.317C148.328 104.611 148.917 103.906 149.507 103.201Z" fill="#333D45"/>
<path d="M226.586 98.5499C227.324 98.8581 227.324 98.8581 227.686 99.5819C227.298 99.5297 226.909 99.4774 226.509 99.4236C224.494 99.1699 222.471 99.0166 220.447 98.8581C220.447 98.6192 220.447 98.3804 220.447 98.1342C222.415 97.1504 224.609 97.9588 226.586 98.5499Z" fill="#2F3E48"/>
<path d="M191.492 119.849C191.731 119.849 191.97 119.849 192.216 119.849C192.096 121.044 191.977 122.238 191.854 123.468C194.72 123.468 197.587 123.468 200.54 123.468C200.54 123.588 200.54 123.707 200.54 123.83C198.609 124.153 196.751 124.248 194.794 124.237C194.515 124.239 194.236 124.24 193.949 124.242C191.9 124.238 191.9 124.238 191.492 123.83C191.398 123.298 191.326 122.762 191.266 122.224C191.231 121.934 191.196 121.643 191.161 121.344C191.13 120.573 191.13 120.573 191.492 119.849Z" fill="#656B6E"/>
<path d="M67.7084 93.0674C68.7943 94.1532 68.7943 94.1532 68.8843 95.2067C68.8634 95.6256 68.8426 96.0444 68.8211 96.476C68.8013 96.9297 68.7815 97.3834 68.761 97.8508C68.7347 98.3251 68.7083 98.7993 68.6811 99.2879C68.6582 99.7711 68.6359 100.254 68.614 100.738C68.5584 101.921 68.4977 103.104 68.4323 104.287C68.1934 104.167 67.9546 104.048 67.7084 103.925C67.7084 100.342 67.7084 96.759 67.7084 93.0674Z" fill="#4C626B"/>
<path d="M117.656 98.4962C121.96 98.2127 121.96 98.2127 123.515 99.3105C124.044 100.113 124.532 100.864 124.895 101.753C124.537 101.873 124.178 101.992 123.809 102.115C123.667 101.772 123.525 101.429 123.379 101.075C122.833 99.9281 122.833 99.9281 121.954 99.4689C120.532 99.1289 119.111 98.9786 117.656 98.8581C117.656 98.7387 117.656 98.6193 117.656 98.4962Z" fill="#39464E"/>
<path d="M289.939 123.107C290.059 123.345 290.178 123.584 290.301 123.83C290.182 124.069 290.062 124.308 289.939 124.554C289.223 124.554 288.506 124.554 287.768 124.554C287.768 124.315 287.768 124.076 287.768 123.83C287.152 123.931 287.152 123.931 286.523 124.034C284.844 124.25 283.281 124.081 281.615 123.83C281.615 124.069 281.615 124.308 281.615 124.554C281.376 124.435 281.137 124.315 280.891 124.192C281.01 123.953 281.13 123.715 281.253 123.468C284.119 123.349 286.986 123.23 289.939 123.107Z" fill="#5A6264"/>
<path d="M230.581 104.649C230.701 104.649 230.82 104.649 230.943 104.649C230.965 104.881 230.987 105.113 231.01 105.351C231.04 105.664 231.07 105.978 231.101 106.3C231.133 106.63 231.164 106.961 231.196 107.301C231.3 108.342 231.3 108.342 231.577 109.648C231.683 111.011 231.394 111.538 230.581 112.611C229.857 111.525 229.857 111.525 230.024 110.469C230.133 110.079 230.243 109.688 230.355 109.286C230.462 108.893 230.57 108.499 230.68 108.094C230.767 107.793 230.854 107.492 230.943 107.182C230.704 107.063 230.465 106.943 230.219 106.82C230.1 106.581 229.98 106.343 229.857 106.096C230.096 106.096 230.335 106.096 230.581 106.096C230.581 105.619 230.581 105.141 230.581 104.649Z" fill="#485B65"/>
<path d="M117.656 91.9817C117.294 92.7055 117.294 92.7055 116.412 93.0448C115.376 93.3734 115.376 93.3734 114.761 94.5151C113.63 94.9449 113.63 94.9449 112.589 95.2389C113.113 93.9375 113.757 93.3612 114.919 92.5924C115.202 92.3997 115.485 92.207 115.777 92.0085C116.57 91.6198 116.57 91.6198 117.656 91.9817Z" fill="#36444D"/>
<path d="M135.029 46.3802C135.029 47.466 135.029 47.466 134.667 48.1898C134.448 48.2831 134.229 48.3764 134.003 48.4725C132.924 49.0798 132.538 49.849 131.907 50.9042C130.741 52.8396 130.741 52.8396 129.962 53.6185C130.444 50.4307 132.574 48.2949 135.029 46.3802Z" fill="#272937"/>
<path d="M113.675 123.107C113.794 123.345 113.914 123.584 114.037 123.83C113.678 123.83 113.32 123.83 112.951 123.83C112.951 124.069 112.951 124.308 112.951 124.554C112.743 124.497 112.534 124.439 112.32 124.38C111.536 124.2 110.818 124.12 110.016 124.078C109.743 124.063 109.47 124.047 109.189 124.032C108.767 124.01 108.767 124.01 108.336 123.989C107.906 123.965 107.906 123.965 107.467 123.941C106.761 123.903 106.056 123.867 105.35 123.83C105.35 124.069 105.35 124.308 105.35 124.554C104.992 124.435 104.633 124.315 104.264 124.192C104.384 123.953 104.503 123.715 104.626 123.468C109.105 123.289 109.105 123.289 113.675 123.107Z" fill="#5D6466"/>
<path d="M239.268 117.316C239.387 117.316 239.507 117.316 239.63 117.316C239.951 119.453 240.07 121.342 239.63 123.468C239.07 124.093 239.07 124.093 238.544 124.554C238.595 123.619 238.648 122.684 238.702 121.749C238.716 121.485 238.731 121.221 238.745 120.949C238.819 119.695 238.937 118.527 239.268 117.316Z" fill="#212E37"/>
<path d="M230.943 91.9817C233.451 92.1011 235.96 92.2206 238.544 92.3436C238.544 92.463 238.544 92.5825 238.544 92.7055C236.275 92.7055 234.005 92.7055 231.667 92.7055C231.667 93.661 231.667 94.6164 231.667 95.6009C230.827 94.2351 230.943 93.7869 230.943 91.9817Z" fill="#272937"/>
<path d="M59.3838 71.7144C61.1427 71.9342 62.5474 72.7015 64.089 73.5239C63.6113 74.0017 63.1335 74.4794 62.6413 74.9716C62.4024 74.8522 62.1635 74.7327 61.9174 74.6097C61.9174 74.3708 61.9174 74.132 61.9174 73.8859C61.3523 73.4078 61.3523 73.4078 60.6506 72.9584C60.2228 72.6724 59.799 72.3802 59.3838 72.0763C59.3838 71.9568 59.3838 71.8374 59.3838 71.7144Z" fill="#39454E"/>
<path d="M68.7943 84.0195C68.9137 84.0195 69.0331 84.0195 69.1562 84.0195C69.1562 86.8859 69.1562 89.7523 69.1562 92.7055C68.7979 92.825 68.4396 92.9444 68.0704 93.0674C67.9509 92.2314 67.8315 91.3954 67.7084 90.534C67.9473 90.534 68.1862 90.534 68.4323 90.534C68.6115 87.3094 68.6115 87.3094 68.7943 84.0195Z" fill="#748386"/>
<path d="M54.3167 64.838C54.4137 65.0694 54.5107 65.3008 54.6107 65.5392C54.9995 66.4055 54.9995 66.4055 56.1263 66.6475C57.1274 67.943 57.7437 68.994 57.936 70.6286C56.4304 69.2521 55.222 67.7651 54.3167 65.9237C54.3167 65.5654 54.3167 65.2071 54.3167 64.838Z" fill="#3D484F"/>
<path d="M227.324 127.811C226.686 128.626 226.308 128.88 225.288 129.123C223.908 129.277 222.593 129.217 221.216 129.101C220.967 129.082 220.718 129.063 220.461 129.044C219.853 128.997 219.245 128.947 218.637 128.897C218.637 128.778 218.637 128.658 218.637 128.535C219.004 128.518 219.371 128.5 219.748 128.482C220.238 128.454 220.727 128.427 221.216 128.4C221.457 128.388 221.698 128.377 221.946 128.366C223.13 128.296 224.133 128.151 225.262 127.775C226.238 127.45 226.238 127.45 227.324 127.811Z" fill="#5A6569"/>
<path d="M237.096 127.45C237.349 128.079 237.349 128.079 237.458 128.897C236.99 129.659 236.99 129.659 236.304 130.413C235.972 130.79 235.972 130.79 235.633 131.175C234.893 131.82 234.435 132.012 233.477 132.154C233.716 131.796 233.955 131.438 234.201 131.069C234.44 131.069 234.678 131.069 234.925 131.069C235.014 130.875 235.104 130.681 235.196 130.481C235.756 129.417 236.419 128.442 237.096 127.45Z" fill="#28333B"/>
<path d="M289.577 91.9817C289.697 91.9817 289.816 91.9817 289.939 91.9817C290.059 93.176 290.178 94.3703 290.301 95.6009C290.66 95.362 291.018 95.1231 291.387 94.877C291.116 95.5782 291.116 95.5782 290.663 96.3247C289.911 96.5523 289.911 96.5523 289.215 96.6866C289.206 96.0382 289.199 95.3898 289.193 94.7413C289.189 94.3802 289.184 94.0191 289.18 93.6471C289.215 92.7055 289.215 92.7055 289.577 91.9817Z" fill="#132635"/>
<path d="M215.018 91.9817C215.376 92.1011 215.734 92.2206 216.104 92.3436C215.872 92.3809 215.641 92.4183 215.402 92.4567C215.156 92.5388 214.91 92.6209 214.656 92.7055C214.536 93.0638 214.417 93.4221 214.294 93.7913C213.625 94.2931 213.625 94.2931 212.824 94.7639C212.425 95.0012 212.425 95.0012 212.019 95.2432C211.814 95.3612 211.609 95.4792 211.398 95.6009C211.398 95.2426 211.398 94.8843 211.398 94.5151C212.152 93.8422 212.152 93.8422 213.14 93.1579C213.625 92.8136 213.625 92.8136 214.12 92.4624C214.564 92.2244 214.564 92.2244 215.018 91.9817Z" fill="#3B474E"/>
<path d="M63.7271 64.838C63.9137 64.935 64.1003 65.032 64.2926 65.132C64.5837 65.2738 64.8749 65.4157 65.1748 65.5618C65.5481 65.7484 65.9213 65.935 66.3059 66.1273C67.9202 66.8236 69.5896 66.908 71.3278 67.0095C71.3278 67.1289 71.3278 67.2483 71.3278 67.3714C66.804 67.5186 66.804 67.5186 64.8129 66.6475C64.1116 65.6975 64.1116 65.6975 63.7271 64.838Z" fill="#565F64"/>
<path d="M166.88 21.0461C168.327 22.1213 169.385 23.2644 170.499 24.6652C170.38 24.9041 170.26 25.1429 170.137 25.389C169.713 25.0448 169.291 24.6974 168.871 24.3485C168.635 24.1554 168.4 23.9623 168.158 23.7633C167.975 23.5832 167.792 23.4031 167.604 23.2176C167.604 22.9787 167.604 22.7398 167.604 22.4937C167.365 22.4937 167.126 22.4937 166.88 22.4937C166.88 22.016 166.88 21.5383 166.88 21.0461Z" fill="#3F484C"/>
<path d="M211.76 125.278C212.37 125.629 212.974 125.991 213.57 126.364C213.57 126.483 213.57 126.603 213.57 126.726C213.242 126.83 212.913 126.935 212.575 127.042C211.644 127.365 210.814 127.708 209.951 128.173C209.951 127.088 209.951 127.088 210.856 126.115C211.154 125.839 211.453 125.563 211.76 125.278Z" fill="#424F56"/>
<path d="M260.391 98.0353C260.639 98.0381 260.887 98.0409 261.142 98.0438C261.389 98.041 261.636 98.0382 261.89 98.0353C263.233 98.0406 263.82 98.0947 264.965 98.8581C264.965 99.097 264.965 99.3359 264.965 99.582C264.644 99.4625 264.323 99.3431 263.993 99.2201C261.957 98.6227 259.826 98.8013 257.727 98.8581C258.625 97.9594 259.162 98.0402 260.391 98.0353Z" fill="#505C62"/>
<path d="M137.563 55.0662C137.918 56.171 137.918 56.8567 137.563 57.9615C137.324 57.9615 137.085 57.9615 136.839 57.9615C136.839 59.1558 136.839 60.3502 136.839 61.5807C136.719 61.5807 136.6 61.5807 136.477 61.5807C136.405 57.0774 136.405 57.0774 136.839 55.4281C137.078 55.3087 137.317 55.1892 137.563 55.0662Z" fill="#1E2A37"/>
<path d="M273.652 118.04C273.652 119.125 273.652 119.125 273.098 119.706C272.863 119.895 272.628 120.084 272.385 120.279C272.15 120.471 271.915 120.663 271.673 120.86C271.49 121.004 271.307 121.148 271.118 121.297C270.999 120.819 270.88 120.341 270.757 119.849C271.683 119.121 272.583 118.536 273.652 118.04Z" fill="#3C4D55"/>
<path d="M133.219 99.9438C133.339 99.9438 133.458 99.9438 133.581 99.9438C133.603 100.297 133.625 100.65 133.648 101.014C133.678 101.475 133.709 101.935 133.74 102.409C133.769 102.867 133.799 103.325 133.829 103.796C133.897 105.008 133.897 105.008 134.305 106.096C133.947 106.455 133.589 106.813 133.219 107.182C133.219 104.794 133.219 102.405 133.219 99.9438Z" fill="#5C676C"/>
<path d="M209.227 129.621C209.264 129.83 209.301 130.039 209.34 130.254C209.624 131.185 210.061 131.77 210.675 132.516C209.501 132.39 209.004 132.313 208.209 131.408C207.996 131.061 207.996 131.061 207.779 130.707C208.257 130.348 208.735 129.99 209.227 129.621Z" fill="#2F3B42"/>
<path d="M229.857 119.125C229.977 119.603 230.096 120.081 230.219 120.573C229.861 120.573 229.503 120.573 229.133 120.573C228.397 121.035 227.671 121.517 226.962 122.021C226.723 121.901 226.484 121.782 226.238 121.659C227.369 120.43 228.252 119.63 229.857 119.125Z" fill="#465257"/>
<path d="M97.0255 91.6198C97.2644 91.8586 97.5033 92.0975 97.7494 92.3436C96.7169 93.4047 95.7042 94.3859 94.4919 95.2389C94.5598 94.402 94.5598 94.402 94.8539 93.4293C95.7587 92.8186 95.7587 92.8186 96.6636 92.3436C96.783 92.1047 96.9025 91.8659 97.0255 91.6198Z" fill="#35424C"/>
<path d="M61.9174 60.8569C62.0242 61.0761 62.1311 61.2954 62.2412 61.5213C62.6476 62.3489 62.6476 62.3489 63.252 63.2546C63.4088 63.5382 63.5656 63.8219 63.7271 64.1141C63.6077 64.353 63.4882 64.5919 63.3652 64.838C63.0068 64.838 62.6485 64.838 62.2793 64.838C61.9174 64.476 61.9174 64.476 61.882 63.649C61.8862 63.3173 61.8904 62.9856 61.8948 62.6438C61.898 62.3112 61.9013 61.9786 61.9047 61.6358C61.9089 61.3788 61.9131 61.1217 61.9174 60.8569Z" fill="#3C4F58"/>
<path d="M213.57 126.726C213.891 126.837 213.891 126.837 214.219 126.95C215.683 127.449 217.106 127.926 218.637 128.173C218.637 128.293 218.637 128.412 218.637 128.535C216.662 129.065 215.672 128.767 213.932 127.811C213.813 127.453 213.693 127.095 213.57 126.726Z" fill="#434D55"/>
<path d="M249.402 94.877C249.641 94.9964 249.88 95.1159 250.126 95.2389C249.209 96.7672 248.473 97.6938 246.868 98.4962C247.472 97.0697 248.398 96.039 249.402 94.877Z" fill="#404B51"/>
<path d="M64.089 74.2478C67.8514 74.6061 67.8514 74.6061 71.6898 74.9716C71.6898 75.0911 71.6898 75.2105 71.6898 75.3336C70.6264 75.3628 69.5638 75.3844 68.5002 75.4014C68.1985 75.4105 67.8969 75.4196 67.5861 75.429C67.1505 75.4342 67.1505 75.4342 66.706 75.4396C66.3051 75.4481 66.3051 75.4481 65.8962 75.4568C65.1748 75.3336 65.1748 75.3336 64.089 74.2478Z" fill="#6F797B"/>
<path d="M250.126 120.211C251.493 120.867 252.794 121.625 254.107 122.383C254.107 122.502 254.107 122.622 254.107 122.745C253.316 122.858 253.316 122.858 252.298 122.745C251.386 121.957 250.667 121.293 250.126 120.211Z" fill="#25313B"/>
<path d="M245.421 113.335C246.378 114.466 246.812 115.538 247.23 116.954C246.023 116.552 245.552 116.059 244.697 115.144C244.936 114.547 245.175 113.95 245.421 113.335Z" fill="#2F3840"/>
<path d="M51.7831 110.801C53.2308 112.973 53.2308 112.973 54.6786 115.144C53.4552 114.62 52.6045 114.029 51.7831 112.973C51.6926 111.797 51.6926 111.797 51.7831 110.801Z" fill="#4B565C"/>
<path d="M149.507 103.201C149.626 103.559 149.746 103.918 149.869 104.287C148.383 106.35 148.383 106.35 146.973 106.82C147.577 105.394 148.503 104.363 149.507 103.201Z" fill="#3F474D"/>
<path d="M102.093 99.22C102.93 99.2427 102.93 99.2427 103.902 99.5819C104.558 100.871 104.558 100.871 104.988 102.115C104.63 102.115 104.272 102.115 103.902 102.115C103.337 101.278 103.337 101.278 102.817 100.306C102.578 99.9475 102.339 99.5892 102.093 99.22Z" fill="#36424B"/>
<path d="M231.667 133.964C230.508 134.99 229.575 135.238 228.048 135.412C227.928 135.173 227.809 134.934 227.686 134.688C229.072 134.036 230.14 133.893 231.667 133.964Z" fill="#38434A"/>
<path d="M68.7942 110.801C69.1525 110.921 69.5109 111.04 69.88 111.163C69.88 112.249 69.88 112.249 69.3824 112.814C69.1883 112.986 68.9942 113.158 68.7942 113.335C68.5553 113.574 68.3165 113.812 68.0703 114.059C67.7084 112.973 67.7084 112.973 68.2287 111.819C68.4153 111.483 68.6019 111.147 68.7942 110.801Z" fill="#33424C"/>
<path d="M170.499 114.059C171.206 115.472 171.406 116.491 171.585 118.04C171.227 117.92 170.868 117.801 170.499 117.678C170.38 117.917 170.26 118.155 170.137 118.402C170.257 116.968 170.376 115.535 170.499 114.059Z" fill="#232C35"/>
<path d="M137.563 122.383C137.682 122.622 137.802 122.86 137.925 123.107C138.69 123.435 138.69 123.435 139.576 123.695C139.875 123.789 140.174 123.883 140.482 123.98C140.829 124.085 140.829 124.085 141.182 124.192C141.182 124.312 141.182 124.431 141.182 124.554C140.227 124.554 139.271 124.554 138.287 124.554C138.167 124.315 138.048 124.076 137.925 123.83C137.686 123.711 137.447 123.591 137.201 123.468C137.32 123.11 137.44 122.752 137.563 122.383Z" fill="#4D5B60"/>
<path d="M191.854 118.764C192.093 118.764 192.331 118.764 192.578 118.764C192.578 120.197 192.578 121.63 192.578 123.107C192.339 123.107 192.1 123.107 191.854 123.107C191.973 122.032 192.093 120.957 192.216 119.849C191.977 119.849 191.738 119.849 191.492 119.849C191.611 119.491 191.731 119.133 191.854 118.764Z" fill="#272937"/>
<path d="M141.544 67.0095C143.575 67.0095 145.605 67.0095 147.697 67.0095C147.578 67.3678 147.458 67.7261 147.335 68.0952C146.505 68.0541 145.676 68.0079 144.847 67.9595C144.385 67.9343 143.923 67.9091 143.447 67.8831C142.268 67.7333 142.268 67.7333 141.544 67.0095Z" fill="#272937"/>
<path d="M171.223 26.1129C172.181 27.0459 173.013 27.8922 173.757 29.0082C172.587 28.8066 171.938 28.5262 171.223 27.5606C171.223 27.0828 171.223 26.6051 171.223 26.1129Z" fill="#374147"/>
<path d="M68.7943 122.021C69.1526 122.26 69.5109 122.498 69.8801 122.745C67.4822 123.876 67.4822 123.876 66.2607 123.468C66.4996 123.468 66.7384 123.468 66.9846 123.468C66.9846 123.23 66.9846 122.991 66.9846 122.745C67.8215 122.337 67.8215 122.337 68.7943 122.021Z" fill="#38434B"/>
<path d="M154.212 6.5694C155.319 7.19754 156.251 7.79439 157.107 8.7409C156.988 8.97976 156.869 9.21863 156.746 9.46473C156.321 9.12048 155.899 8.77305 155.479 8.42422C155.244 8.23107 155.008 8.03793 154.766 7.83893C154.583 7.65885 154.4 7.47877 154.212 7.29323C154.212 7.05437 154.212 6.8155 154.212 6.5694Z" fill="#374045"/>
<path d="M129.962 65.9237C131.048 66.2856 131.048 66.2856 131.5 66.9642C131.772 67.7333 131.772 67.7333 131.41 68.819C129.962 66.738 129.962 66.738 129.962 65.9237Z" fill="#394248"/>
<path d="M63.0032 54.3424C63.507 55.8537 62.9392 56.5626 62.2793 57.9615C62.1599 57.9615 62.0405 57.9615 61.9174 57.9615C61.7838 56.0016 61.7838 56.0016 62.4603 54.9305C62.6395 54.7364 62.8186 54.5423 63.0032 54.3424Z" fill="#3F484E"/>
<path d="M74.9472 54.3424C75.425 54.4618 75.9027 54.5812 76.395 54.7043C76.5144 55.5403 76.6338 56.3763 76.7569 57.2377C75.9416 56.2647 75.3518 55.5561 74.9472 54.3424Z" fill="#424D55"/>
<path d="M161.813 15.6173C164.191 17.065 164.191 17.065 164.708 18.5126C162.33 17.065 162.33 17.065 161.813 15.6173Z" fill="#354048"/>
<path d="M191.492 119.849C191.731 119.849 191.97 119.849 192.216 119.849C192.096 121.163 191.977 122.477 191.854 123.83C191.734 123.83 191.615 123.83 191.492 123.83C191.421 123.303 191.354 122.775 191.288 122.247C191.25 121.953 191.213 121.659 191.174 121.356C191.13 120.573 191.13 120.573 191.492 119.849Z" fill="#6D797D"/>
<path d="M77.4808 113.335C77.6002 113.574 77.7197 113.813 77.8427 114.059C77.504 114.913 77.1429 115.758 76.7569 116.592C76.6375 116.592 76.518 116.592 76.395 116.592C76.607 114.365 76.607 114.365 76.7569 113.697C76.9958 113.577 77.2347 113.458 77.4808 113.335Z" fill="#3D484E"/>
<path d="M272.204 96.6866C272.682 96.806 273.16 96.9254 273.652 97.0485C273.771 97.7651 273.891 98.4817 274.014 99.22C273.395 98.6325 272.793 98.0281 272.204 97.4104C272.204 97.1716 272.204 96.9327 272.204 96.6866Z" fill="#2C3740"/>
<path d="M128.876 94.1532C129.093 94.2726 129.309 94.3921 129.532 94.5151C130.343 94.9523 130.343 94.9523 131.41 94.877C131.41 95.2353 131.41 95.5936 131.41 95.9628C130.365 95.8187 130.027 95.6768 129.329 94.8544C129.179 94.623 129.03 94.3916 128.876 94.1532Z" fill="#324D5B"/>
<path d="M68.0704 84.7433C68.1898 84.7433 68.3093 84.7433 68.4323 84.7433C68.4323 86.5348 68.4323 88.3263 68.4323 90.1721C68.1934 89.9332 67.9546 89.6944 67.7084 89.4483C67.7169 88.3484 67.7169 88.3484 67.8442 87.0506C67.8843 86.6204 67.9244 86.1903 67.9658 85.7471C68.0003 85.4159 68.0348 85.0846 68.0704 84.7433Z" fill="#4F646C"/>
<path d="M169.052 98.8581C169.171 98.8581 169.29 98.8581 169.413 98.8581C169.413 100.65 169.413 102.441 169.413 104.287C169.294 104.287 169.175 104.287 169.052 104.287C169.052 102.495 169.052 100.704 169.052 98.8581Z" fill="#272937"/>
<path d="M50.6973 123.107C51.175 123.345 51.6528 123.584 52.145 123.83C51.9061 124.069 51.6673 124.308 51.4211 124.554C51.0628 124.435 50.7045 124.315 50.3353 124.192C50.4548 123.834 50.5742 123.476 50.6973 123.107Z" fill="#485458"/>
<path d="M123.447 112.611C123.567 112.611 123.686 112.611 123.809 112.611C123.809 113.925 123.809 115.238 123.809 116.592C123.69 116.592 123.57 116.592 123.447 116.592C123.377 116.065 123.309 115.537 123.244 115.009C123.206 114.715 123.168 114.421 123.129 114.118C123.085 113.335 123.085 113.335 123.447 112.611Z" fill="#475A62"/>
<path d="M67.7084 104.649C67.9473 104.649 68.1862 104.649 68.4323 104.649C68.4323 105.604 68.4323 106.56 68.4323 107.544C67.7936 106.427 67.7084 106.012 67.7084 104.649Z" fill="#4C6069"/>
<path d="M67.7084 107.906C67.9473 107.906 68.1862 107.906 68.4323 107.906C68.4323 108.742 68.4323 109.578 68.4323 110.439C67.7084 109.716 67.7084 109.716 67.6632 108.766C67.6781 108.482 67.693 108.198 67.7084 107.906Z" fill="#4C6068"/>
<path d="M65.8987 112.973C66.3765 113.092 66.8543 113.212 67.3465 113.335C66.6299 113.693 66.6299 113.693 65.8987 114.059C65.8987 113.7 65.8987 113.342 65.8987 112.973Z" fill="#272937"/>
<path d="M138.287 74.6097C138.884 74.7291 139.481 74.8485 140.096 74.9716C140.096 75.091 140.096 75.2105 140.096 75.3335C139.38 75.3335 138.663 75.3335 137.925 75.3335C138.044 75.0946 138.164 74.8558 138.287 74.6097Z" fill="#272937"/>
<path d="M226.962 125.278C227.499 125.636 227.499 125.636 228.048 126.002C227.809 126.002 227.57 126.002 227.324 126.002C227.204 126.36 227.085 126.718 226.962 127.088C226.962 126.49 226.962 125.893 226.962 125.278Z" fill="#475A61"/>
<path d="M183.891 115.868C184.727 115.868 185.563 115.868 186.425 115.868C186.425 115.988 186.425 116.107 186.425 116.23C185.589 116.23 184.752 116.23 183.891 116.23C183.891 116.111 183.891 115.991 183.891 115.868Z" fill="#495A62"/>
<path d="M169.052 107.544C169.171 107.544 169.29 107.544 169.413 107.544C169.413 108.38 169.413 109.216 169.413 110.078C169.294 110.078 169.175 110.078 169.052 110.078C169.052 109.242 169.052 108.405 169.052 107.544Z" fill="#272937"/>
<path d="M169.052 104.649C169.171 104.649 169.29 104.649 169.413 104.649C169.413 105.485 169.413 106.321 169.413 107.182C169.294 107.182 169.175 107.182 169.052 107.182C169.052 106.346 169.052 105.51 169.052 104.649Z" fill="#272937"/>
<path d="M264.604 100.306C264.962 100.425 265.32 100.545 265.689 100.668C265.57 100.907 265.45 101.145 265.327 101.392C265.089 101.392 264.85 101.392 264.604 101.392C264.604 101.033 264.604 100.675 264.604 100.306Z" fill="#4D5E65"/>
<path d="M137.201 96.3247C137.44 96.3247 137.679 96.3247 137.925 96.3247C137.925 97.0413 137.925 97.7579 137.925 98.4962C137.805 98.4962 137.686 98.4962 137.563 98.4962C137.443 97.7796 137.324 97.063 137.201 96.3247Z" fill="#4B5C63"/>
<path d="M301.883 95.6008C302.003 95.6008 302.122 95.6008 302.245 95.6008C302.245 96.4369 302.245 97.2729 302.245 98.1342C302.126 98.1342 302.006 98.1342 301.883 98.1342C301.883 97.2982 301.883 96.4622 301.883 95.6008Z" fill="#47555A"/>
<path d="M280.167 94.1532C280.286 94.1532 280.406 94.1532 280.529 94.1532C280.529 94.8698 280.529 95.5864 280.529 96.3247C280.409 96.3247 280.29 96.3247 280.167 96.3247C280.167 95.6081 280.167 94.8915 280.167 94.1532Z" fill="#272937"/>
<path d="M130.324 92.7055C130.682 92.8249 131.041 92.9444 131.41 93.0674C130.932 93.1869 130.454 93.3063 129.962 93.4293C130.081 93.1905 130.201 92.9516 130.324 92.7055Z" fill="#4B5B63"/>
<path d="M148.783 63.7522C149.141 63.9313 149.141 63.9313 149.507 64.1141C149.507 64.4724 149.507 64.8307 149.507 65.1999C149.268 65.1999 149.029 65.1999 148.783 65.1999C148.783 64.7221 148.783 64.2444 148.783 63.7522Z" fill="#455760"/>
<path d="M198.369 124.192C198.966 124.192 199.563 124.192 200.178 124.192C200.178 124.312 200.178 124.431 200.178 124.554C199.581 124.554 198.984 124.554 198.369 124.554C198.369 124.435 198.369 124.315 198.369 124.192Z" fill="#272937"/>
<path d="M60.8316 115.868C61.4288 115.868 62.026 115.868 62.6413 115.868C62.6413 115.988 62.6413 116.107 62.6413 116.23C62.0441 116.23 61.4469 116.23 60.8316 116.23C60.8316 116.111 60.8316 115.991 60.8316 115.868Z" fill="#272937"/>
<path d="M169.052 113.697C169.29 114.174 169.529 114.652 169.775 115.144C169.537 115.144 169.298 115.144 169.052 115.144C169.052 114.667 169.052 114.189 169.052 113.697Z" fill="#272937"/>
<path d="M229.857 107.544C229.977 107.544 230.096 107.544 230.219 107.544C230.219 108.141 230.219 108.738 230.219 109.354C230.1 109.354 229.98 109.354 229.857 109.354C229.857 108.757 229.857 108.159 229.857 107.544Z" fill="#4B5C65"/>
<path d="M121.999 100.306C122.358 100.485 122.358 100.485 122.723 100.668C122.723 100.907 122.723 101.145 122.723 101.392C122.484 101.392 122.245 101.392 121.999 101.392C121.999 101.033 121.999 100.675 121.999 100.306Z" fill="#485B62"/>
<path d="M169.052 95.9628C169.171 95.9628 169.29 95.9628 169.413 95.9628C169.413 96.5599 169.413 97.1571 169.413 97.7724C169.294 97.7724 169.175 97.7724 169.052 97.7724C169.052 97.1752 169.052 96.578 169.052 95.9628Z" fill="#272937"/>
<path d="M301.883 93.4294C302.003 93.4294 302.122 93.4294 302.245 93.4294C302.245 94.0265 302.245 94.6237 302.245 95.239C302.126 95.239 302.006 95.239 301.883 95.239C301.883 94.6418 301.883 94.0446 301.883 93.4294Z" fill="#465358"/>
<path d="M112.951 92.7055C113.309 92.8249 113.668 92.9444 114.037 93.0674C113.559 93.1869 113.081 93.3063 112.589 93.4293C112.708 93.1905 112.828 92.9516 112.951 92.7055Z" fill="#272937"/>
<path d="M73.8614 64.1141C73.9808 64.4724 74.1003 64.8307 74.2233 65.1999C73.9844 65.1999 73.7456 65.1999 73.4995 65.1999C73.6189 64.8416 73.7383 64.4833 73.8614 64.1141Z" fill="#485962"/>
<path d="M213.208 135.05C213.566 135.169 213.925 135.289 214.294 135.412C213.936 135.412 213.577 135.412 213.208 135.412C213.208 135.292 213.208 135.173 213.208 135.05Z" fill="#465458"/>
<path d="M219.361 127.45C219.6 127.688 219.839 127.927 220.085 128.173C219.727 128.054 219.368 127.934 218.999 127.811C219.119 127.692 219.238 127.573 219.361 127.45Z" fill="#485A61"/>
<path d="M151.316 124.192C152.764 124.554 152.764 124.554 152.764 124.554L151.316 124.192Z" fill="#46585E"/>
<path d="M131.41 124.192C132.858 124.554 132.858 124.554 132.858 124.554L131.41 124.192Z" fill="#414F55"/>
<path d="M86.1674 124.192C87.6151 124.554 87.6151 124.554 87.6151 124.554L86.1674 124.192Z" fill="#46565D"/>
<path d="M218.637 123.468C218.996 123.588 219.354 123.707 219.723 123.83C219.365 123.95 219.006 124.069 218.637 124.192C218.637 123.953 218.637 123.715 218.637 123.468Z" fill="#272937"/>
<path d="M83.6338 122.021C83.9957 123.468 83.9957 123.468 83.9957 123.468L83.6338 122.021Z" fill="#485659"/>
<path d="M123.447 120.211C123.809 121.659 123.809 121.659 123.809 121.659L123.447 120.211Z" fill="#46595F"/>
<path d="M83.6338 120.211C83.9957 121.659 83.9957 121.659 83.9957 121.659L83.6338 120.211Z" fill="#49595D"/>
<path d="M83.6338 117.316C83.9957 118.764 83.9957 118.764 83.9957 118.764L83.6338 117.316Z" fill="#272937"/>
<path d="M83.6338 114.421C83.9957 115.868 83.9957 115.868 83.9957 115.868L83.6338 114.421Z" fill="#272937"/>
<path d="M41.6488 112.611C42.0071 112.79 42.0071 112.79 42.3727 112.973C42.2532 113.212 42.1338 113.451 42.0107 113.697C41.8913 113.338 41.7718 112.98 41.6488 112.611Z" fill="#445459"/>
<path d="M169.052 110.801C169.413 112.249 169.413 112.249 169.413 112.249L169.052 110.801Z" fill="#4C5C65"/>
<path d="M205.245 108.63C205.607 110.078 205.607 110.078 205.607 110.078L205.245 108.63Z" fill="#475961"/>
<path d="M83.6338 108.63C83.9957 110.078 83.9957 110.078 83.9957 110.078L83.6338 108.63Z" fill="#475861"/>
<path d="M123.447 107.906C123.809 109.354 123.809 109.354 123.809 109.354L123.447 107.906Z" fill="#272937"/>
<path d="M190.768 105.734C191.13 107.182 191.13 107.182 191.13 107.182L190.768 105.734Z" fill="#4A5C66"/>
<path d="M123.447 105.734C123.809 107.182 123.809 107.182 123.809 107.182L123.447 105.734Z" fill="#475C65"/>
<path d="M145.887 104.287C146.249 105.735 146.249 105.735 146.249 105.735L145.887 104.287Z" fill="#475B63"/>
<path d="M83.6338 103.563C83.9957 105.011 83.9957 105.011 83.9957 105.011L83.6338 103.563Z" fill="#465A62"/>
<path d="M190.768 102.839C191.13 104.287 191.13 104.287 191.13 104.287L190.768 102.839Z" fill="#4C5C64"/>
<path d="M227.324 100.668C227.563 100.907 227.802 101.145 228.048 101.392C227.689 101.272 227.331 101.153 226.962 101.03C227.081 100.91 227.201 100.791 227.324 100.668Z" fill="#4A5A63"/>
<path d="M190.768 99.9438C191.13 101.392 191.13 101.392 191.13 101.392L190.768 99.9438Z" fill="#272937"/>
<path d="M280.167 96.6866C280.529 98.1343 280.529 98.1343 280.529 98.1343L280.167 96.6866Z" fill="#4C5C63"/>
<path d="M152.402 90.8959C153.85 91.2579 153.85 91.2579 153.85 91.2579L152.402 90.8959Z" fill="#272937"/>
<path d="M42.3727 79.6765C43.8204 80.0384 43.8204 80.0384 43.8204 80.0384L42.3727 79.6765Z" fill="#595E5D"/>
<path d="M149.145 54.3424C149.384 54.5812 149.623 54.8201 149.869 55.0662C149.51 54.9468 149.152 54.8273 148.783 54.7043C148.902 54.5849 149.022 54.4654 149.145 54.3424Z" fill="#4C5A61"/>
<path d="M73.4995 53.9805C73.8578 54.1596 73.8578 54.1596 74.2233 54.3424C73.9844 54.5813 73.7456 54.8201 73.4995 55.0662C73.4995 54.7079 73.4995 54.3496 73.4995 53.9805Z" fill="#272937"/>
<path d="M106.798 48.9136C107.156 49.4511 107.156 49.4511 107.522 49.9994C107.283 49.9994 107.044 49.9994 106.798 49.9994C106.798 49.6411 106.798 49.2828 106.798 48.9136Z" fill="#967350"/>
<path d="M106.798 47.104C107.16 48.5517 107.16 48.5517 107.16 48.5517L106.798 47.104Z" fill="#A27349"/>
<path d="M56.1263 1.14062C57.5741 1.50254 57.5741 1.50254 57.5741 1.50254L56.1263 1.14062Z" fill="#E48332"/>
<path d="M217.189 127.45C218.275 127.811 218.275 127.811 218.275 127.811L217.189 127.45Z" fill="#465860"/>
<path d="M254.831 124.192C255.917 124.554 255.917 124.554 255.917 124.554L254.831 124.192Z" fill="#485459"/>
<path d="M195.473 124.192C196.559 124.554 196.559 124.554 196.559 124.554L195.473 124.192Z" fill="#43545A"/>
<path d="M147.335 124.192C148.421 124.554 148.421 124.554 148.421 124.554L147.335 124.192Z" fill="#272937"/>
<path d="M141.544 124.192C142.63 124.554 142.63 124.554 142.63 124.554L141.544 124.192Z" fill="#485760"/>
<path d="M220.809 123.468C221.895 123.83 221.895 123.83 221.895 123.83L220.809 123.468Z" fill="#485960"/>
<path d="M229.857 120.935C229.977 121.174 230.096 121.413 230.219 121.659C229.98 121.539 229.742 121.42 229.495 121.297C229.615 121.177 229.734 121.058 229.857 120.935Z" fill="#4E5F67"/>
<path d="M59.3838 115.868C60.4696 116.23 60.4696 116.23 60.4696 116.23L59.3838 115.868Z" fill="#4E5E65"/>
<path d="M222.257 114.421C223.342 114.782 223.342 114.782 223.342 114.782L222.257 114.421Z" fill="#45565E"/>
<path d="M42.0107 114.421C42.2496 114.421 42.4885 114.421 42.7346 114.421C42.6152 114.659 42.4957 114.898 42.3727 115.144C42.2532 114.906 42.1338 114.667 42.0107 114.421Z" fill="#45545A"/>
<path d="M189.32 113.697C189.559 113.936 189.798 114.174 190.044 114.421C189.805 114.421 189.566 114.421 189.32 114.421C189.32 114.182 189.32 113.943 189.32 113.697Z" fill="#46565F"/>
<path d="M123.085 102.839C123.324 102.839 123.563 102.839 123.809 102.839C123.69 103.078 123.57 103.317 123.447 103.563C123.328 103.324 123.208 103.085 123.085 102.839Z" fill="#272937"/>
<path d="M265.689 101.753C265.928 101.753 266.167 101.753 266.413 101.753C266.294 101.992 266.174 102.231 266.051 102.477C265.932 102.238 265.812 102 265.689 101.753Z" fill="#4B5C64"/>
<path d="M255.555 100.668C255.674 100.907 255.794 101.145 255.917 101.392C255.678 101.272 255.439 101.153 255.193 101.03C255.313 100.91 255.432 100.791 255.555 100.668Z" fill="#495961"/>
<path d="M269.309 92.7055C269.548 92.7055 269.787 92.7055 270.033 92.7055C269.913 92.9444 269.794 93.1832 269.671 93.4293C269.551 93.1905 269.432 92.9516 269.309 92.7055Z" fill="#46555B"/>
<path d="M234.924 90.8959C236.01 91.2579 236.01 91.2579 236.01 91.2579L234.924 90.8959Z" fill="#4B595D"/>
<path d="M177.738 90.8959C178.824 91.2579 178.824 91.2579 178.824 91.2579L177.738 90.8959Z" fill="#515D61"/>
<path d="M104.988 90.5341C106.074 90.896 106.074 90.896 106.074 90.896L104.988 90.5341Z" fill="#526064"/>
<path d="M68.0704 80.7623C68.1898 81.0011 68.3093 81.24 68.4323 81.4861C68.1934 81.3667 67.9546 81.2472 67.7084 81.1242C67.8279 81.0048 67.9473 80.8853 68.0704 80.7623Z" fill="#526368"/>
<path d="M45.6301 79.6765C46.7159 80.0384 46.7159 80.0384 46.7159 80.0384L45.6301 79.6765Z" fill="#586161"/>
<path d="M41.6488 63.0284C41.8877 63.2672 42.1265 63.5061 42.3727 63.7522C42.1338 63.7522 41.8949 63.7522 41.6488 63.7522C41.6488 63.5133 41.6488 63.2745 41.6488 63.0284Z" fill="#6F6558"/>
<path d="M14.8653 18.5126C15.9511 18.8746 15.9511 18.8746 15.9511 18.8746L14.8653 18.5126Z" fill="#E98735"/>
<path d="M28.9809 11.6362C30.0667 11.9981 30.0667 11.9981 30.0667 11.9981L28.9809 11.6362Z" fill="#E38631"/>
<path d="M142.992 1.14062C144.078 1.50254 144.078 1.50254 144.078 1.50254L142.992 1.14062Z" fill="#272937"/>
<path d="M137.201 1.14062C138.287 1.50254 138.287 1.50254 138.287 1.50254L137.201 1.14062Z" fill="#272937"/>
<path d="M119.828 1.14062C120.914 1.50254 120.914 1.50254 120.914 1.50254L119.828 1.14062Z" fill="#67625B"/>
<path d="M59.0219 1.14062C60.1077 1.50254 60.1077 1.50254 60.1077 1.50254L59.0219 1.14062Z" fill="#E48433"/>
<path d="M212.484 135.774C213.208 136.136 213.208 136.136 213.208 136.136L212.484 135.774Z" fill="#455256"/>
<path d="M196.921 124.192C197.645 124.554 197.645 124.554 197.645 124.554L196.921 124.192Z" fill="#44565E"/>
<path d="M194.025 124.192C194.749 124.554 194.749 124.554 194.749 124.554L194.025 124.192Z" fill="#41555B"/>
<path d="M163.984 124.192C164.708 124.554 164.708 124.554 164.708 124.554L163.984 124.192Z" fill="#4B5559"/>
<path d="M162.175 124.192C162.899 124.554 162.899 124.554 162.899 124.554L162.175 124.192Z" fill="#47575C"/>
<path d="M159.279 124.192C160.003 124.554 160.003 124.554 160.003 124.554L159.279 124.192Z" fill="#45565F"/>
<path d="M154.574 124.192C155.298 124.554 155.298 124.554 155.298 124.554L154.574 124.192Z" fill="#272937"/>
<path d="M153.488 124.192C154.212 124.554 154.212 124.554 154.212 124.554L153.488 124.192Z" fill="#45585D"/>
<path d="M146.249 124.192C146.973 124.554 146.973 124.554 146.973 124.554L146.249 124.192Z" fill="#44565D"/>
<path d="M89.7867 124.192C90.5106 124.554 90.5106 124.554 90.5106 124.554L89.7867 124.192Z" fill="#46565C"/>
<path d="M66.9846 124.192C67.7084 124.554 67.7084 124.554 67.7084 124.554L66.9846 124.192Z" fill="#48565C"/>
<path d="M67.7084 123.83C68.4323 124.192 68.4323 124.192 68.4323 124.192L67.7084 123.83Z" fill="#49575C"/>
<path d="M102.455 123.468C103.178 123.83 103.178 123.83 103.178 123.83L102.455 123.468Z" fill="#48595D"/>
<path d="M216.466 123.107C217.189 123.468 217.189 123.468 217.189 123.468L216.466 123.107Z" fill="#4B5B61"/>
<path d="M261.346 116.23C262.07 116.592 262.07 116.592 262.07 116.592L261.346 116.23Z" fill="#272937"/>
<path d="M260.26 116.23C260.984 116.592 260.984 116.592 260.984 116.592L260.26 116.23Z" fill="#272937"/>
<path d="M274.738 115.868C275.462 116.23 275.462 116.23 275.462 116.23L274.738 115.868Z" fill="#49585E"/>
<path d="M169.052 115.506C169.775 115.868 169.775 115.868 169.775 115.868L169.052 115.506Z" fill="#495C66"/>
<path d="M224.066 114.059C224.79 114.421 224.79 114.421 224.79 114.421L224.066 114.059Z" fill="#455961"/>
<path d="M254.107 111.163C254.831 111.525 254.831 111.525 254.831 111.525L254.107 111.163Z" fill="#4B5C66"/>
<path d="M145.163 107.182C145.887 107.544 145.887 107.544 145.887 107.544L145.163 107.182Z" fill="#4A5C63"/>
<path d="M264.604 103.201C265.327 103.563 265.327 103.563 265.327 103.563L264.604 103.201Z" fill="#526167"/>
<path d="M294.283 100.306C295.006 100.668 295.006 100.668 295.006 100.668L294.283 100.306Z" fill="#49585F"/>
<path d="M295.006 99.9438C295.73 100.306 295.73 100.306 295.73 100.306L295.006 99.9438Z" fill="#45555A"/>
<path d="M139.01 99.9438C139.734 100.306 139.734 100.306 139.734 100.306L139.01 99.9438Z" fill="#272937"/>
<path d="M117.294 99.582C118.018 99.9439 118.018 99.9439 118.018 99.9439L117.294 99.582Z" fill="#495962"/>
<path d="M111.141 92.7055C111.865 93.0674 111.865 93.0674 111.865 93.0674L111.141 92.7055Z" fill="#4D5E64"/>
<path d="M163.622 90.8959C164.346 91.2579 164.346 91.2579 164.346 91.2579L163.622 90.8959Z" fill="#525F64"/>
<path d="M142.63 90.8959C143.354 91.2579 143.354 91.2579 143.354 91.2579L142.63 90.8959Z" fill="#505E66"/>
<path d="M84.3576 90.8959C85.0815 91.2579 85.0815 91.2579 85.0815 91.2579L84.3576 90.8959Z" fill="#506065"/>
<path d="M72.0517 79.6765C72.7756 80.0384 72.7756 80.0384 72.7756 80.0384L72.0517 79.6765Z" fill="#4E5D65"/>
<path d="M69.8801 79.6765C70.6039 80.0384 70.6039 80.0384 70.6039 80.0384L69.8801 79.6765Z" fill="#4B5A60"/>
<path d="M48.8876 79.6765C49.6115 80.0384 49.6115 80.0384 49.6115 80.0384L48.8876 79.6765Z" fill="#566162"/>
<path d="M131.41 69.9048C132.134 70.2667 132.134 70.2667 132.134 70.2667L131.41 69.9048Z" fill="#4D5A60"/>
<path d="M139.01 63.7522C139.734 64.1141 139.734 64.1141 139.734 64.1141L139.01 63.7522Z" fill="#4A5760"/>
<path d="M107.522 49.2755C108.246 49.6375 108.246 49.6375 108.246 49.6375L107.522 49.2755Z" fill="#8F7250"/>
<path d="M39.8391 48.1898C40.563 48.5517 40.563 48.5517 40.563 48.5517L39.8391 48.1898Z" fill="#E58838"/>
<path d="M18.4846 48.1898C19.2085 48.5517 19.2085 48.5517 19.2085 48.5517L18.4846 48.1898Z" fill="#E38839"/>
<path d="M40.563 47.8279C41.2868 48.1898 41.2868 48.1898 41.2868 48.1898L40.563 47.8279Z" fill="#E3802E"/>
<path d="M1.11154 31.5416C1.83542 31.9035 1.83542 31.9035 1.83542 31.9035L1.11154 31.5416Z" fill="#D68133"/>
<path d="M167.242 20.3222C167.966 20.6841 167.966 20.6841 167.966 20.6841L167.242 20.3222Z" fill="#4F585A"/>
<path d="M38.7533 11.6362C39.4771 11.9981 39.4771 11.9981 39.4771 11.9981L38.7533 11.6362Z" fill="#E68530"/>
<path d="M34.7719 11.6362C35.4958 11.9981 35.4958 11.9981 35.4958 11.9981L34.7719 11.6362Z" fill="#E48732"/>
<path d="M31.8764 11.6362C32.6003 11.9981 32.6003 11.9981 32.6003 11.9981L31.8764 11.6362Z" fill="#E18733"/>
<path d="M20.2943 11.6362C21.0182 11.9981 21.0182 11.9981 21.0182 11.9981L20.2943 11.6362Z" fill="#DF8431"/>
<path d="M140.096 1.14062C140.82 1.50254 140.82 1.50254 140.82 1.50254L140.096 1.14062Z" fill="#575B5A"/>
<path d="M115.846 1.14062C116.57 1.50254 116.57 1.50254 116.57 1.50254L115.846 1.14062Z" fill="#6D6658"/>
</g>
<defs>
<clipPath id="clip0_96_79">
<rect width="303" height="137" fill="white"/>
</clipPath>
</defs>
</svg>
