<svg xmlns="http://www.w3.org/2000/svg" viewBox="0 0 750 500"><g id="freepik--background-complete--inject-2"><rect x="42.39" y="231.75" width="48.65" height="12.87" style="fill:#ebebeb"></rect><path d="M70.47,258.17a2.07,2.07,0,0,1,0-.23l0-.66c0-.61,0-1.45,0-2.53,0-2.22,0-5.42-.08-9.45l.15.15-48.65.1.25-.25h0v6.53q0,3.22,0,6.33l-.24-.24,34.67.11,10.23.07,2.77,0,.73,0h.25s-.07,0-.22,0l-.7,0-2.71,0-10.18.07-34.84.11h-.24v-.25q0-3.1,0-6.33v-6.53h0l.25-.24,48.65.09h.15v.15c0,4.07-.06,7.29-.08,9.54,0,1.07,0,1.9,0,2.5,0,.26,0,.46,0,.63S70.48,258.18,70.47,258.17Z" style="fill:#e0e0e0"></path><rect x="609.58" y="277.19" width="108.13" height="178.98" style="fill:#e0e0e0"></rect><rect x="605.99" y="277.19" width="108.13" height="178.98" style="fill:#ebebeb"></rect><rect x="610.59" y="280.82" width="98.92" height="171.72" style="fill:#fafafa"></rect><rect x="629.42" y="303.14" width="60.83" height="127.09" style="fill:#ebebeb"></rect><path d="M629.42,385.26c-.14-11.88,10.54-23.47,22.29-25.12,5.61-.79,11.57.32,16.8-1.83,9.35-3.83,12.33-16.26,21.74-19.94l.43,91.86H629.42Z" style="fill:#e0e0e0"></path><polygon points="642.79 379.99 642.79 456.05 533.56 456.05 529.62 380.52 642.79 379.99" style="fill:#e0e0e0"></polygon><rect x="546.56" y="363.59" width="75.36" height="109.24" transform="translate(166.03 1002.45) rotate(-90)" style="fill:#fff"></rect><path d="M639.38,456.41H529.1V380H639.38Zm-109.24-1h108.2V381H530.14Z" style="fill:#e0e0e0"></path><rect x="541.45" y="389.89" width="85.57" height="56.64" style="fill:#fff"></rect><path d="M627,389.89h-.43l-1.21,0-4.7,0-17.64.06-61.6.13.25-.25c0,17.3,0,36.48,0,56.63h0l-.27-.26,85.58.05-.22.21c.05-17.23.09-31.36.11-41.2,0-4.92.05-8.76.06-11.4,0-1.3,0-2.3,0-3s0-1,0-1,0,.33,0,1,0,1.67,0,3c0,2.62,0,6.44.06,11.34,0,9.88.06,24.05.11,41.34v.22H627l-85.58.05h-.27v-.28h0c0-20.15,0-39.33,0-56.63v-.25h.25l61.77.12,17.57.07,4.65,0h1.19Z" style="fill:#e0e0e0"></path><path d="M529.62,380.31a9,9,0,0,1,1.88,1.22c1.12.81,2.64,2,4.28,3.27s3.09,2.55,4.11,3.49a8.73,8.73,0,0,1,1.56,1.6c-.1.11-2.73-2.05-6-4.67A58.11,58.11,0,0,1,529.62,380.31Z" style="fill:#e0e0e0"></path><path d="M638.86,380.52a52.79,52.79,0,0,1-5.75,4.9,55.58,55.58,0,0,1-6.08,4.47,52,52,0,0,1,5.74-4.9A54,54,0,0,1,638.86,380.52Z" style="fill:#e0e0e0"></path><path d="M638.77,455.9,626.59,446" style="fill:#fff"></path><path d="M626.59,446a55.82,55.82,0,0,1,6.26,4.72,57.77,57.77,0,0,1,5.92,5.15,57.85,57.85,0,0,1-6.26-4.73A58.47,58.47,0,0,1,626.59,446Z" style="fill:#e0e0e0"></path><path d="M529.62,455.89a50.41,50.41,0,0,1,5.69-4.84,51.13,51.13,0,0,1,6-4.42,53,53,0,0,1-5.69,4.84A51.13,51.13,0,0,1,529.62,455.89Z" style="fill:#e0e0e0"></path><rect x="576.27" y="390.09" width="18.96" height="53.85" transform="translate(168.73 1002.76) rotate(-90)" style="fill:#e0e0e0"></rect><rect x="482.71" y="382.09" width="70.44" height="73.43" style="fill:#e0e0e0"></rect><rect x="477.94" y="382.09" width="70.44" height="73.43" style="fill:#fafafa"></rect><path d="M548.4,455.54H477.91V382.07H548.4Zm-70.44,0h70.39V382.12H478Z" style="fill:#e0e0e0"></path><rect x="487.4" y="391.97" width="51.5" height="53.68" style="fill:#fff"></rect><path d="M487.4,446a7.66,7.66,0,0,1-1.27,1.47c-.82.87-2,2-3.27,3.32s-2.49,2.42-3.36,3.22a8,8,0,0,1-1.49,1.24,8.18,8.18,0,0,1,1.26-1.47c.82-.87,2-2,3.28-3.32s2.5-2.42,3.37-3.23A7.8,7.8,0,0,1,487.4,446Z" style="fill:#e0e0e0"></path><path d="M538.91,445.87a9,9,0,0,1,1.47,1.28c.87.82,2,2,3.32,3.27s2.42,2.49,3.22,3.36a8,8,0,0,1,1.24,1.49,8.18,8.18,0,0,1-1.47-1.26c-.87-.82-2.05-2-3.32-3.28s-2.42-2.5-3.23-3.37A7.31,7.31,0,0,1,538.91,445.87Z" style="fill:#e0e0e0"></path><path d="M538.76,392.11a8.35,8.35,0,0,1,1.28-1.48c.82-.87,2-2,3.27-3.32s2.49-2.41,3.36-3.22a8.54,8.54,0,0,1,1.49-1.24,7.44,7.44,0,0,1-1.26,1.47c-.82.87-2,2.05-3.28,3.33s-2.5,2.42-3.37,3.22A7.63,7.63,0,0,1,538.76,392.11Z" style="fill:#e0e0e0"></path><path d="M487.26,392.24a8.71,8.71,0,0,1-1.47-1.27c-.87-.82-2.05-2-3.32-3.27s-2.42-2.49-3.22-3.37a7.63,7.63,0,0,1-1.24-1.49,8.58,8.58,0,0,1,1.47,1.27c.87.82,2,2,3.32,3.28s2.42,2.49,3.23,3.37A7.8,7.8,0,0,1,487.26,392.24Z" style="fill:#e0e0e0"></path><path d="M538.76,445.65s0-.09,0-.26,0-.43,0-.75c0-.67,0-1.64,0-2.9,0-2.54,0-6.24-.05-10.94,0-9.4-.06-22.8-.1-38.83l.19.19-51.35,0h0l.22-.22c0,19.7,0,38.13,0,53.68l-.19-.2,37.18.1,10.45.05,2.76,0h0l-2.72,0-10.4.06-37.31.1h-.2v-.2c0-15.55,0-34,0-53.68v-.23h.23l51.35,0h.2v.2c0,16.09-.07,29.52-.1,39,0,4.68,0,8.36-.05,10.89,0,1.24,0,2.2,0,2.86,0,.31,0,.55,0,.73A1.1,1.1,0,0,1,538.76,445.65Z" style="fill:#e0e0e0"></path><rect x="504.56" y="410.21" width="17.18" height="17.18" style="fill:#ebebeb"></rect><rect x="22.49" y="324.63" width="170.85" height="131.77" style="fill:#ebebeb"></rect><path d="M150.53,455.48c-.19,0-.34-29.38-.34-65.6s.15-65.6.34-65.6.34,29.36.34,65.6S150.71,455.48,150.53,455.48Z" style="fill:#e0e0e0"></path><rect x="165.75" y="426.41" width="13.1" height="14.81" style="fill:#fafafa"></rect><rect x="74.61" y="324.97" width="19.41" height="28.12" style="fill:#e0e0e0"></rect><rect x="74.61" y="427.9" width="19.41" height="28.12" style="fill:#e0e0e0"></rect><polygon points="76.56 453.51 76.56 137.47 72.65 137.47 72.65 453.58 40.3 456.01 72.65 456.01 76.56 456.01 108.91 456.01 76.56 453.51" style="fill:#e0e0e0"></polygon><polygon points="52.27 109.93 37.74 174.85 111.47 174.85 94.89 110.13 52.27 109.93" style="fill:#e0e0e0"></polygon><path d="M65.78,201.16c-.17,0-.29-8-.26-17.79s.17-17.8.34-17.8.29,8,.27,17.8S66,201.16,65.78,201.16Z" style="fill:#e0e0e0"></path><path d="M65.75,201c0-.08.53,0,.76.66a1.3,1.3,0,0,1-.19,1.19A1.34,1.34,0,0,1,64,202a1.32,1.32,0,0,1,.63-1c.61-.36,1.06-.06,1,0s-.39,0-.75.35a1,1,0,0,0-.32.69.83.83,0,0,0,1.34.49.93.93,0,0,0,.2-.73C66,201.31,65.71,201.12,65.75,201Z" style="fill:#e0e0e0"></path><rect x="269.56" y="245.51" width="122.92" height="94.81" transform="translate(662.05 585.82) rotate(180)" style="fill:#f5f5f5"></rect><path d="M300.36,339.65c.17,0,.31-21.14.31-47.2s-.14-47.2-.31-47.2-.31,21.13-.31,47.2S300.19,339.65,300.36,339.65Z" style="fill:#ebebeb"></path><rect x="279.98" y="318.73" width="9.42" height="10.65" transform="translate(569.39 648.12) rotate(180)" style="fill:#fafafa"></rect><rect x="341.02" y="245.75" width="13.96" height="20.23" style="fill:#ebebeb"></rect><rect x="341.02" y="319.8" width="13.96" height="20.23" style="fill:#ebebeb"></rect><rect x="228.8" y="339.34" width="151.78" height="117.06" style="fill:#ebebeb"></rect><path d="M342.55,455.58c-.17,0-.3-26.09-.3-58.27s.13-58.28.3-58.28.3,26.09.3,58.28S342.72,455.58,342.55,455.58Z" style="fill:#e0e0e0"></path><rect x="356.07" y="429.76" width="11.64" height="13.15" style="fill:#fafafa"></rect><rect x="275.1" y="339.65" width="17.24" height="24.98" style="fill:#e0e0e0"></rect><rect x="275.1" y="431.08" width="17.24" height="24.98" style="fill:#e0e0e0"></rect><rect x="309.2" y="107.03" width="48.65" height="12.87" style="fill:#ebebeb"></rect><path d="M337.28,133.46a1,1,0,0,1,0-.23v-.66c0-.61,0-1.45,0-2.53,0-2.23,0-5.42-.08-9.45l.15.15-48.65.1c.11-.11-.25.25.24-.25h0v12.85l-.25-.24,34.68.11,10.23.07,2.77,0,.72,0h.26l-.23,0h-.69l-2.72,0-10.18.07-34.84.11h-.24v-13.1h0c.49-.49.13-.14.25-.25l48.65.1h.15v.15c0,4.07-.07,7.29-.09,9.54,0,1.06,0,1.9,0,2.49,0,.26,0,.47,0,.64A1.23,1.23,0,0,1,337.28,133.46Z" style="fill:#e0e0e0"></path><rect x="666.57" y="189.66" width="48.65" height="12.87" style="fill:#ebebeb"></rect><path d="M694.65,216.09a1.35,1.35,0,0,1,0-.24c0-.17,0-.38,0-.66,0-.6,0-1.45,0-2.53,0-2.22-.05-5.41-.09-9.44l.16.15-48.65.1c.11-.11-.25.24.24-.25h0v6.52q0,3.23,0,6.33l-.24-.24,34.67.11,10.24.07,2.76,0h.73l.26,0h-.23l-.69,0-2.72,0-10.18.07-34.84.11h-.24v-6.57c0-1.08,0-2.16,0-3.25v-3.27h0c.5-.5.14-.14.26-.25l48.65.1h.15v.15c0,4.06-.07,7.29-.09,9.53,0,1.07,0,1.9,0,2.5,0,.26,0,.47,0,.63A1.66,1.66,0,0,1,694.65,216.09Z" style="fill:#e0e0e0"></path><path d="M476.71,73.22a1.17,1.17,0,0,1,0-.23v-.66c0-.61,0-1.45,0-2.54,0-2.22-.05-5.41-.08-9.44l.15.15-48.65.1c.11-.11-.25.24.24-.25h0V73.22l-.25-.24,34.68.11,10.23.07,2.77,0h.72l.26,0-.23,0h-.69l-2.72,0-10.17.07-34.85.11h-.24V60.37h0l.25-.25,48.65.1h.15v.15c0,4.06-.07,7.29-.08,9.53,0,1.07,0,1.9,0,2.5l0,.64A1.39,1.39,0,0,1,476.71,73.22Z" style="fill:#e0e0e0"></path><path d="M483.3,60.35s0-.09,0-.25l0-.68c0-.63,0-1.49,0-2.58,0-2.26-.05-5.44-.09-9.36l.17.18-29.23.07.25-.25h0v6.61c0,2.15,0,4.24,0,6.24l-.24-.24,20.91.11,6.09.07,1.65,0,.58,0a3.28,3.28,0,0,1-.53,0l-1.59,0-6,.06-21.07.11h-.23v-.24c0-2,0-4.09,0-6.24,0-1.08,0-2.17,0-3.28V47.5h0l.25-.25,29.23.07h.18v.18c0,4-.07,7.19-.09,9.47,0,1.07,0,1.92-.05,2.54A4.88,4.88,0,0,1,483.3,60.35Z" style="fill:#e0e0e0"></path><path d="M174.9,60.34a2.07,2.07,0,0,1,0-.23l0-.66c0-.61,0-1.45,0-2.53,0-2.23,0-5.42-.08-9.45l.15.15-48.65.1.25-.25h0V54q0,3.23,0,6.33l-.24-.24,34.67.11,10.23.07,2.77,0,.73,0h.25s-.07,0-.22,0H174l-2.71,0-10.18.06-34.84.12H126v-.25c0-2.07,0-4.18,0-6.33V47.49h0l.25-.25,48.65.1h.15v.15c0,4.07-.06,7.29-.08,9.54,0,1.06,0,1.9,0,2.49,0,.26,0,.47,0,.64S174.91,60.35,174.9,60.34Z" style="fill:#e0e0e0"></path><path d="M694.15,87.63s0-.08,0-.23l0-.66c0-.61,0-1.45,0-2.54,0-2.22-.05-5.41-.09-9.44l.15.15L645.5,75c.11-.11-.25.24.25-.25h0V81.3c0,2.15,0,4.26,0,6.33l-.24-.24,34.67.11,10.24.07,2.76,0h.73l.25,0s-.07,0-.22,0h-.7l-2.71,0-10.18.07-34.84.11h-.24v-.24q0-3.1,0-6.33V74.78h0l.25-.25,48.65.1h.16v.15c0,4.06-.06,7.29-.08,9.53,0,1.07,0,1.9,0,2.5,0,.26,0,.47,0,.64S694.16,87.63,694.15,87.63Z" style="fill:#e0e0e0"></path></g><g id="freepik--Floor--inject-2"><path d="M711.92,456.41c0,.14-153.1.26-341.9.26s-341.94-.12-341.94-.26,153.06-.26,341.94-.26S711.92,456.26,711.92,456.41Z" style="fill:#263238"></path></g><g id="freepik--Box--inject-2"><rect x="387.57" y="361.6" width="122.92" height="94.81" transform="translate(898.06 818.01) rotate(180)" style="fill:#455a64"></rect><path d="M418.37,455.74c.17,0,.3-21.14.3-47.2s-.13-47.2-.3-47.2-.31,21.13-.31,47.2S418.2,455.74,418.37,455.74Z" style="fill:#263238"></path><rect x="397.99" y="434.83" width="9.42" height="10.65" transform="translate(805.41 880.31) rotate(180)" style="fill:#fafafa"></rect><rect x="459.03" y="361.84" width="13.96" height="20.23" style="fill:#263238"></rect><rect x="459.03" y="435.89" width="13.96" height="20.23" style="fill:#263238"></rect></g><g id="freepik--Table--inject-2"><rect x="224.62" y="358.65" width="83.57" height="8.63" style="fill:#455a64"></rect><polygon points="266.41 366.19 266.41 456.66 272.83 456.66 274.32 366.19 266.41 366.19" style="fill:#455a64"></polygon><polygon points="245.64 366.19 223.39 456.66 229.57 456.66 254.54 366.19 245.64 366.19" style="fill:#455a64"></polygon><polygon points="290.58 365.83 313.64 456.63 307.46 456.63 281.68 365.83 290.58 365.83" style="fill:#455a64"></polygon><path d="M308.19,367.38c0,.11-18.53.2-41.38.2s-41.39-.09-41.39-.2,18.53-.2,41.39-.2S308.19,367.27,308.19,367.38Z" style="fill:#263238"></path></g></svg>