<svg width="750" height="500" viewBox="0 0 750 500" fill="none" xmlns="http://www.w3.org/2000/svg">
<path d="M91.04 231.75H42.39V244.62H91.04V231.75Z" fill="#EBEBEB"/>
<path d="M70.47 258.17C70.4657 258.093 70.4657 258.017 70.47 257.94V257.28C70.47 256.67 70.47 255.83 70.47 254.75C70.47 252.53 70.47 249.33 70.39 245.3L70.54 245.45L21.89 245.55L22.14 245.3V251.83C22.14 253.977 22.14 256.087 22.14 258.16L21.9 257.92L56.57 258.03L66.8 258.1H69.57H70.3H70.55C70.55 258.1 70.48 258.1 70.33 258.1H69.63H66.92L56.74 258.17L21.9 258.28H21.66V258.03C21.66 255.963 21.66 253.853 21.66 251.7V245.17L21.91 244.93L70.56 245.02H70.71V245.17C70.71 249.24 70.65 252.46 70.63 254.71C70.63 255.78 70.63 256.61 70.63 257.21C70.63 257.47 70.63 257.67 70.63 257.84C70.63 258.01 70.48 258.18 70.47 258.17Z" fill="#E0E0E0"/>
<path d="M709.51 280.82H610.59V452.54H709.51V280.82Z" fill="#FAFAFA"/>
<path d="M690.25 303.14H629.42V430.23H690.25V303.14Z" fill="#EBEBEB"/>
<path d="M629.42 385.26C629.28 373.38 639.96 361.79 651.71 360.14C657.32 359.35 663.28 360.46 668.51 358.31C677.86 354.48 680.84 342.05 690.25 338.37L690.68 430.23H629.42V385.26Z" fill="#E0E0E0"/>
<path d="M642.79 379.99V456.05H533.56L529.62 380.52L642.79 379.99Z" fill="#E0E0E0"/>
<path d="M529.62 380.53V455.89H638.86V380.53H529.62Z" fill="white"/>
<path d="M639.38 456.41H529.1V380H639.38V456.41ZM530.14 455.41H638.34V381H530.14V455.41Z" fill="#E0E0E0"/>
<path d="M627.02 389.89H541.45V446.53H627.02V389.89Z" fill="white"/>
<path d="M627 389.89H626.57H625.36H620.66L603.02 389.95L541.42 390.08L541.67 389.83C541.67 407.13 541.67 426.31 541.67 446.46L541.4 446.2L626.98 446.25L626.76 446.46C626.81 429.23 626.85 415.1 626.87 405.26C626.87 400.34 626.92 396.5 626.93 393.86C626.93 392.56 626.93 391.56 626.93 390.86C626.93 390.16 626.93 389.86 626.93 389.86C626.93 389.86 626.93 390.19 626.93 390.86C626.93 391.53 626.93 392.53 626.93 393.86C626.93 396.48 626.93 400.3 626.99 405.2C626.99 415.08 627.05 429.25 627.1 446.54V446.76H627L541.42 446.81H541.15V446.53C541.15 426.38 541.15 407.2 541.15 389.9V389.65H541.4L603.17 389.77L620.74 389.84H625.39H626.58L627 389.89Z" fill="#E0E0E0"/>
<path d="M529.62 380.31C530.295 380.637 530.927 381.047 531.5 381.53C532.62 382.34 534.14 383.53 535.78 384.8C537.42 386.07 538.87 387.35 539.89 388.29C540.476 388.754 541.001 389.292 541.45 389.89C541.35 390 538.72 387.84 535.45 385.22C533.401 383.713 531.454 382.072 529.62 380.31Z" fill="#E0E0E0"/>
<path d="M638.86 380.52C637.063 382.289 635.141 383.926 633.11 385.42C631.187 387.046 629.156 388.539 627.03 389.89C628.822 388.12 630.741 386.482 632.77 384.99C634.693 383.36 636.728 381.866 638.86 380.52Z" fill="#E0E0E0"/>
<path d="M638.77 455.9L626.59 446Z" fill="white"/>
<path d="M626.59 446C628.785 447.425 630.877 449.002 632.85 450.72C634.938 452.301 636.916 454.021 638.77 455.87C636.579 454.437 634.487 452.857 632.51 451.14C630.424 449.561 628.446 447.844 626.59 446Z" fill="#E0E0E0"/>
<path d="M529.62 455.89C531.394 454.138 533.296 452.52 535.31 451.05C537.2 449.433 539.205 447.955 541.31 446.63C539.53 448.375 537.628 449.993 535.62 451.47C533.73 453.087 531.725 454.565 529.62 455.89Z" fill="#E0E0E0"/>
<path d="M558.82 407.53V426.49H612.67V407.53H558.82Z" fill="#E0E0E0"/>
<path d="M553.15 382.09H482.71V455.52H553.15V382.09Z" fill="#E0E0E0"/>
<path d="M548.38 382.09H477.94V455.52H548.38V382.09Z" fill="#FAFAFA"/>
<path d="M548.4 455.54H477.91V382.07H548.4V455.54ZM477.96 455.54H548.35V382.12H478L477.96 455.54Z" fill="#E0E0E0"/>
<path d="M538.9 391.97H487.4V445.65H538.9V391.97Z" fill="white"/>
<path d="M487.4 446C487.041 446.542 486.614 447.036 486.13 447.47C485.31 448.34 484.13 449.47 482.86 450.79C481.59 452.11 480.37 453.21 479.5 454.01C479.055 454.482 478.555 454.899 478.01 455.25C478.37 454.712 478.793 454.218 479.27 453.78C480.09 452.91 481.27 451.78 482.55 450.46C483.83 449.14 485.05 448.04 485.92 447.23C486.361 446.76 486.858 446.347 487.4 446Z" fill="#E0E0E0"/>
<path d="M538.91 445.87C539.445 446.242 539.938 446.671 540.38 447.15C541.25 447.97 542.38 449.15 543.7 450.42C545.02 451.69 546.12 452.91 546.92 453.78C547.392 454.225 547.809 454.725 548.16 455.27C547.622 454.91 547.128 454.487 546.69 454.01C545.82 453.19 544.64 452.01 543.37 450.73C542.1 449.45 540.95 448.23 540.14 447.36C539.666 446.92 539.252 446.419 538.91 445.87Z" fill="#E0E0E0"/>
<path d="M538.76 392.11C539.127 391.568 539.557 391.071 540.04 390.63C540.86 389.76 542.04 388.63 543.31 387.31C544.58 385.99 545.8 384.9 546.67 384.09C547.118 383.621 547.618 383.205 548.16 382.85C547.806 383.393 547.382 383.887 546.9 384.32C546.08 385.19 544.9 386.37 543.62 387.65C542.34 388.93 541.12 390.07 540.25 390.87C539.808 391.345 539.307 391.762 538.76 392.11Z" fill="#E0E0E0"/>
<path d="M487.26 392.24C486.724 391.873 486.231 391.447 485.79 390.97C484.92 390.15 483.74 388.97 482.47 387.7C481.2 386.43 480.05 385.21 479.25 384.33C478.775 383.888 478.358 383.387 478.01 382.84C478.547 383.206 479.04 383.632 479.48 384.11C480.35 384.93 481.48 386.11 482.8 387.39C484.12 388.67 485.22 389.88 486.03 390.76C486.5 391.201 486.913 391.698 487.26 392.24Z" fill="#E0E0E0"/>
<path d="M538.76 445.65C538.76 445.65 538.76 445.56 538.76 445.39C538.76 445.22 538.76 444.96 538.76 444.64C538.76 443.97 538.76 443 538.76 441.74C538.76 439.2 538.76 435.5 538.71 430.8C538.71 421.4 538.65 408 538.61 391.97L538.8 392.16H487.45L487.67 391.94C487.67 411.64 487.67 430.07 487.67 445.62L487.48 445.42L524.66 445.52L535.11 445.57H537.87H535.15L524.75 445.63L487.44 445.73H487.24V445.53C487.24 429.98 487.24 411.53 487.24 391.85V391.62H487.47H538.82H539.02V391.82C539.02 407.91 538.95 421.34 538.92 430.82C538.92 435.5 538.92 439.18 538.87 441.71C538.87 442.95 538.87 443.91 538.87 444.57C538.87 444.88 538.87 445.12 538.87 445.3C538.853 445.422 538.816 445.54 538.76 445.65Z" fill="#E0E0E0"/>
<path d="M521.74 410.21H504.56V427.39H521.74V410.21Z" fill="#EBEBEB"/>
<path d="M150.53 455.48C150.34 455.48 150.19 426.1 150.19 389.88C150.19 353.66 150.34 324.28 150.53 324.28C150.72 324.28 150.87 353.64 150.87 389.88C150.87 426.12 150.71 455.48 150.53 455.48Z" fill="#E0E0E0"/>
<path d="M178.85 426.41H165.75V441.22H178.85V426.41Z" fill="#FAFAFA"/>
<path d="M94.02 324.97H74.61V353.09H94.02V324.97Z" fill="#E0E0E0"/>
<path d="M94.02 427.9H74.61V456.02H94.02V427.9Z" fill="#E0E0E0"/>
<path d="M76.56 453.51V137.47H72.65V453.58L40.3 456.01H72.65H76.56H108.91L76.56 453.51Z" fill="#E0E0E0"/>
<path d="M52.27 109.93L37.74 174.85H111.47L94.89 110.13L52.27 109.93Z" fill="#E0E0E0"/>
<path d="M65.78 201.16C65.61 201.16 65.49 193.16 65.52 183.37C65.55 173.58 65.69 165.57 65.86 165.57C66.03 165.57 66.15 173.57 66.13 183.37C66.11 193.17 66 201.16 65.78 201.16Z" fill="#E0E0E0"/>
<path d="M65.75 201C65.75 200.92 66.28 201 66.51 201.66C66.5767 201.859 66.5943 202.071 66.5612 202.278C66.5281 202.486 66.4454 202.682 66.32 202.85C66.1403 203.043 65.9076 203.179 65.651 203.241C65.3944 203.302 65.1253 203.287 64.8776 203.196C64.6298 203.105 64.4143 202.943 64.2582 202.73C64.1021 202.518 64.0123 202.264 64 202C64.0201 201.796 64.0875 201.599 64.1968 201.426C64.3062 201.252 64.4545 201.106 64.63 201C65.24 200.64 65.69 200.94 65.63 201C65.57 201.06 65.24 201 64.88 201.35C64.6866 201.529 64.5716 201.777 64.56 202.04C64.5866 202.181 64.6495 202.313 64.7425 202.423C64.8356 202.533 64.9555 202.617 65.0906 202.666C65.2258 202.715 65.3714 202.729 65.5133 202.705C65.6552 202.681 65.7885 202.621 65.9 202.53C65.9827 202.429 66.0432 202.312 66.0776 202.186C66.1121 202.06 66.1197 201.929 66.1 201.8C66 201.31 65.71 201.12 65.75 201Z" fill="#E0E0E0"/>
<path d="M269.57 340.31H392.49V245.5H269.57V340.31Z" fill="#F5F5F5"/>
<path d="M300.36 339.65C300.53 339.65 300.67 318.51 300.67 292.45C300.67 266.39 300.53 245.25 300.36 245.25C300.19 245.25 300.05 266.38 300.05 292.45C300.05 318.52 300.19 339.65 300.36 339.65Z" fill="#EBEBEB"/>
<path d="M279.99 329.39H289.41V318.74H279.99V329.39Z" fill="#FAFAFA"/>
<path d="M354.98 245.75H341.02V265.98H354.98V245.75Z" fill="#EBEBEB"/>
<path d="M354.98 319.8H341.02V340.03H354.98V319.8Z" fill="#EBEBEB"/>
<path d="M380.58 339.34H228.8V456.4H380.58V339.34Z" fill="#EBEBEB"/>
<path d="M342.55 455.58C342.38 455.58 342.25 429.49 342.25 397.31C342.25 365.13 342.38 339.03 342.55 339.03C342.72 339.03 342.85 365.12 342.85 397.31C342.85 429.5 342.72 455.58 342.55 455.58Z" fill="#E0E0E0"/>
<path d="M367.71 429.76H356.07V442.91H367.71V429.76Z" fill="#FAFAFA"/>
<path d="M292.34 339.65H275.1V364.63H292.34V339.65Z" fill="#E0E0E0"/>
<path d="M292.34 431.08H275.1V456.06H292.34V431.08Z" fill="#E0E0E0"/>
<path d="M357.85 107.03H309.2V119.9H357.85V107.03Z" fill="#EBEBEB"/>
<path d="M337.28 133.46C337.271 133.384 337.271 133.306 337.28 133.23V132.57C337.28 131.96 337.28 131.12 337.28 130.04C337.28 127.81 337.28 124.62 337.2 120.59L337.35 120.74L288.7 120.84C288.81 120.73 288.45 121.09 288.94 120.59V133.44L288.69 133.2L323.37 133.31L333.6 133.38H336.37H337.09H337.35H337.12H336.43H333.71L323.53 133.45L288.69 133.56H288.45V120.46C288.94 119.97 288.58 120.32 288.7 120.21L337.35 120.31H337.5V120.46C337.5 124.53 337.43 127.75 337.41 130C337.41 131.06 337.41 131.9 337.41 132.49C337.41 132.75 337.41 132.96 337.41 133.13C337.383 133.246 337.339 133.357 337.28 133.46Z" fill="#E0E0E0"/>
<path d="M715.22 189.66H666.57V202.53H715.22V189.66Z" fill="#EBEBEB"/>
<path d="M694.65 216.09C694.643 216.01 694.643 215.93 694.65 215.85C694.65 215.68 694.65 215.47 694.65 215.19C694.65 214.59 694.65 213.74 694.65 212.66C694.65 210.44 694.6 207.25 694.56 203.22L694.72 203.37L646.07 203.47C646.18 203.36 645.82 203.71 646.31 203.22V209.74C646.31 211.893 646.31 214.003 646.31 216.07L646.07 215.83L680.74 215.94L690.98 216.01H693.74H694.47H694.73H694.5H693.81H691.09L680.91 216.08L646.07 216.19H645.83V209.62C645.83 208.54 645.83 207.46 645.83 206.37V203.1C646.33 202.6 645.97 202.96 646.09 202.85L694.74 202.95H694.89V203.1C694.89 207.16 694.82 210.39 694.8 212.63C694.8 213.7 694.8 214.53 694.8 215.13C694.8 215.39 694.8 215.6 694.8 215.76C694.762 215.875 694.712 215.986 694.65 216.09Z" fill="#E0E0E0"/>
<path d="M476.71 73.22C476.702 73.1435 476.702 73.0665 476.71 72.99V72.33C476.71 71.72 476.71 70.88 476.71 69.79C476.71 67.57 476.66 64.38 476.63 60.35L476.78 60.5L428.13 60.6C428.24 60.49 427.88 60.84 428.37 60.35V73.22L428.12 72.98L462.8 73.09L473.03 73.16H475.8H476.52H476.78H476.55H475.86H473.14L462.97 73.23L428.12 73.34H427.88V60.37L428.13 60.12L476.78 60.22H476.93V60.37C476.93 64.43 476.86 67.66 476.85 69.9C476.85 70.97 476.85 71.8 476.85 72.4V73.04C476.808 73.1037 476.762 73.1639 476.71 73.22Z" fill="#E0E0E0"/>
<path d="M483.3 60.35C483.3 60.35 483.3 60.26 483.3 60.1V59.42C483.3 58.79 483.3 57.93 483.3 56.84C483.3 54.58 483.25 51.4 483.21 47.48L483.38 47.66L454.15 47.73L454.4 47.48V54.09C454.4 56.24 454.4 58.33 454.4 60.33L454.16 60.09L475.07 60.2L481.16 60.27H482.81H483.39C483.214 60.2843 483.036 60.2843 482.86 60.27H481.27L475.27 60.33L454.2 60.44H453.97V60.2C453.97 58.2 453.97 56.11 453.97 53.96C453.97 52.88 453.97 51.79 453.97 50.68V47.5L454.22 47.25L483.45 47.32H483.63V47.5C483.63 51.5 483.56 54.69 483.54 56.97C483.54 58.04 483.54 58.89 483.49 59.51C483.452 59.7951 483.388 60.0761 483.3 60.35Z" fill="#E0E0E0"/>
<path d="M174.9 60.34C174.896 60.2634 174.896 60.1866 174.9 60.11V59.45C174.9 58.84 174.9 58 174.9 56.92C174.9 54.69 174.9 51.5 174.82 47.47L174.97 47.62L126.32 47.72L126.57 47.47V54C126.57 56.1533 126.57 58.2633 126.57 60.33L126.33 60.09L161 60.2L171.23 60.27H174H174.73H174.98C174.98 60.27 174.91 60.27 174.76 60.27H174H171.29L161.11 60.33L126.27 60.45H126V60.2C126 58.13 126 56.02 126 53.87V47.49L126.25 47.24L174.9 47.34H175.05V47.49C175.05 51.56 174.99 54.78 174.97 57.03C174.97 58.09 174.97 58.93 174.97 59.52C174.97 59.78 174.97 59.99 174.97 60.16C174.97 60.33 174.91 60.35 174.9 60.34Z" fill="#E0E0E0"/>
<path d="M694.15 87.63C694.15 87.63 694.15 87.55 694.15 87.4V86.74C694.15 86.13 694.15 85.29 694.15 84.2C694.15 81.98 694.1 78.79 694.06 74.76L694.21 74.91L645.5 75C645.61 74.89 645.25 75.24 645.75 74.75V81.3C645.75 83.45 645.75 85.56 645.75 87.63L645.51 87.39L680.18 87.5L690.42 87.57H693.18H693.91H694.16C694.16 87.57 694.09 87.57 693.94 87.57H693.24H690.53L680.35 87.64L645.51 87.75H645.27V87.51C645.27 85.4433 645.27 83.3333 645.27 81.18V74.78L645.52 74.53L694.17 74.63H694.33V74.78C694.33 78.84 694.27 82.07 694.25 84.31C694.25 85.38 694.25 86.21 694.25 86.81C694.25 87.07 694.25 87.28 694.25 87.45C694.25 87.62 694.16 87.63 694.15 87.63Z" fill="#E0E0E0"/>
<path d="M711.92 456.41C711.92 456.55 558.82 456.67 370.02 456.67C181.22 456.67 28.08 456.55 28.08 456.41C28.08 456.27 181.14 456.15 370.02 456.15C558.9 456.15 711.92 456.26 711.92 456.41Z" fill="#15B1FF"/>
<path d="M387.57 456.41H510.49V361.6H387.57V456.41Z" fill="#455A64"/>
<path d="M418.37 455.74C418.54 455.74 418.67 434.6 418.67 408.54C418.67 382.48 418.54 361.34 418.37 361.34C418.2 361.34 418.06 382.47 418.06 408.54C418.06 434.61 418.2 455.74 418.37 455.74Z" fill="#263238"/>
<path d="M398 445.48H407.42V434.83H398V445.48Z" fill="#FAFAFA"/>
<path d="M472.99 361.84H459.03V382.07H472.99V361.84Z" fill="#263238"/>
<path d="M472.99 435.89H459.03V456.12H472.99V435.89Z" fill="#263238"/>
<path d="M308.19 358.65H224.62V367.28H308.19V358.65Z" fill="#455A64"/>
<path d="M266.41 366.19V456.66H272.83L274.32 366.19H266.41Z" fill="#455A64"/>
<path d="M245.64 366.19L223.39 456.66H229.57L254.54 366.19H245.64Z" fill="#455A64"/>
<path d="M290.58 365.83L313.64 456.63H307.46L281.68 365.83H290.58Z" fill="#455A64"/>
<path d="M308.19 367.38C308.19 367.49 289.66 367.58 266.81 367.58C243.96 367.58 225.42 367.49 225.42 367.38C225.42 367.27 243.95 367.18 266.81 367.18C289.67 367.18 308.19 367.27 308.19 367.38Z" fill="#263238"/>
<path d="M515.8 65V117.67C515.799 118.288 515.919 118.899 516.155 119.47C516.391 120.041 516.737 120.56 517.174 120.996C517.61 121.433 518.129 121.779 518.7 122.015C519.271 122.251 519.882 122.371 520.5 122.37H580.5L592.29 130.27V65C592.291 64.3824 592.171 63.7707 591.935 63.1998C591.699 62.629 591.353 62.1104 590.916 61.6737C590.48 61.237 589.961 60.8908 589.39 60.6551C588.819 60.4194 588.208 60.2987 587.59 60.3H520.5C519.882 60.2987 519.271 60.4194 518.7 60.6551C518.129 60.8908 517.61 61.237 517.174 61.6737C516.737 62.1104 516.391 62.629 516.155 63.1998C515.919 63.7707 515.799 64.3824 515.8 65Z" fill="white"/>
<path d="M515.8 65C515.773 64.7574 515.773 64.5126 515.8 64.27C515.902 63.5536 516.165 62.8696 516.57 62.27C517.247 61.2968 518.257 60.6063 519.41 60.33C520.143 60.2043 520.887 60.1607 521.63 60.2H524.15L554.31 60.11H575.13H586.74C587.767 60.0194 588.8 60.195 589.74 60.62C590.713 61.0829 591.507 61.8523 592 62.81C592.446 63.7895 592.628 64.8683 592.53 65.94V69.07C592.53 85.91 592.53 104.42 592.53 123.84V130.78L592.13 130.51L580.34 122.61H580.48H533.01H522.54C521.68 122.61 520.86 122.61 519.98 122.61C519.112 122.512 518.284 122.188 517.58 121.67C516.893 121.15 516.352 120.461 516.01 119.67C515.689 118.899 515.549 118.064 515.6 117.23C515.6 110.86 515.6 104.95 515.6 99.56C515.6 88.82 515.66 80.19 515.68 74.23C515.68 71.23 515.68 68.97 515.68 67.4C515.68 66.6333 515.68 66.0433 515.68 65.63C515.68 66.03 515.68 66.63 515.68 67.4C515.68 68.97 515.68 71.27 515.68 74.23C515.68 80.23 515.73 88.82 515.76 99.56C515.76 104.95 515.76 110.86 515.76 117.23C515.713 118.006 515.843 118.782 516.14 119.5C516.457 120.22 516.957 120.844 517.59 121.31C518.233 121.786 518.993 122.08 519.79 122.16C520.58 122.16 521.46 122.16 522.3 122.16H532.83H580.3H580.38H580.45C584.26 124.72 588.21 127.36 592.24 130.05L591.83 130.27V123.82C591.83 104.4 591.83 85.89 591.83 69.05V65.94C591.939 64.9421 591.776 63.9333 591.36 63.02C590.93 62.1523 590.228 61.4496 589.36 61.02C588.472 60.6241 587.497 60.4656 586.53 60.56H574.92H554.1L523.94 60.48H521.42C520.688 60.4333 519.953 60.4702 519.23 60.59C518.324 60.7898 517.498 61.2568 516.86 61.9306C516.222 62.6044 515.8 63.4542 515.65 64.37C515.8 64.77 515.82 65 515.8 65Z" fill="#263238"/>
<path d="M527.92 76V100.81C527.92 101.075 528.025 101.33 528.213 101.517C528.4 101.705 528.655 101.81 528.92 101.81H580.92C581.185 101.81 581.44 101.705 581.627 101.517C581.815 101.33 581.92 101.075 581.92 100.81L581.81 91.72C581.804 91.5139 581.734 91.3148 581.61 91.15L574.15 81.15C574.059 81.0316 573.943 80.9351 573.809 80.8676C573.676 80.8002 573.529 80.7634 573.38 80.76L563.83 80.69V76C563.83 75.7348 563.725 75.4804 563.537 75.2929C563.35 75.1054 563.095 75 562.83 75H528.89C528.63 75.0078 528.383 75.1166 528.202 75.3033C528.021 75.49 527.92 75.7399 527.92 76Z" fill="#FFCC00"/>
<path d="M566.21 82.84V90.84C566.21 90.9885 566.269 91.131 566.374 91.236C566.479 91.341 566.621 91.4 566.77 91.4L578.25 91.19C578.35 91.1892 578.447 91.1614 578.532 91.1094C578.617 91.0574 578.687 90.9833 578.733 90.895C578.779 90.8067 578.801 90.7075 578.795 90.6079C578.789 90.5084 578.756 90.4123 578.7 90.33L573.33 82.4C573.277 82.3244 573.207 82.263 573.125 82.2212C573.043 82.1793 572.952 82.1583 572.86 82.16L566.74 82.33C566.604 82.3323 566.473 82.3862 566.375 82.4808C566.276 82.5754 566.218 82.7037 566.21 82.84Z" fill="#E0E0E0"/>
<path d="M582.1 101.42H527.7C527.247 101.42 526.88 101.787 526.88 102.24V102.33C526.88 102.783 527.247 103.15 527.7 103.15H582.1C582.553 103.15 582.92 102.783 582.92 102.33V102.24C582.92 101.787 582.553 101.42 582.1 101.42Z" fill="#FFCC00"/>
<path d="M570.09 92.92C570.09 93.06 569.29 93.18 568.32 93.18C567.35 93.18 566.54 93.06 566.54 92.92C566.54 92.78 567.34 92.67 568.32 92.67C569.3 92.67 570.09 92.79 570.09 92.92Z" fill="#263238"/>
<path d="M563.67 101C563.53 101 563.41 95.36 563.41 88.41C563.41 81.46 563.53 75.82 563.67 75.82C563.81 75.82 563.93 81.45 563.93 88.41C563.93 95.37 563.81 101 563.67 101Z" fill="#263238"/>
<path d="M582.06 101.4C582.06 101.55 569.95 101.66 555.06 101.66C540.17 101.66 528.06 101.55 528.06 101.4C528.06 101.25 540.16 101.14 555.06 101.14C569.96 101.14 582.06 101.26 582.06 101.4Z" fill="#263238"/>
<path d="M539.87 108.69C542.93 108.69 545.41 106.21 545.41 103.15C545.41 100.09 542.93 97.61 539.87 97.61C536.81 97.61 534.33 100.09 534.33 103.15C534.33 106.21 536.81 108.69 539.87 108.69Z" fill="#263238"/>
<path d="M539.87 106.41C541.67 106.41 543.13 104.95 543.13 103.15C543.13 101.35 541.67 99.89 539.87 99.89C538.07 99.89 536.61 101.35 536.61 103.15C536.61 104.95 538.07 106.41 539.87 106.41Z" fill="#E0E0E0"/>
<path d="M570.07 108.69C573.13 108.69 575.61 106.21 575.61 103.15C575.61 100.09 573.13 97.61 570.07 97.61C567.01 97.61 564.53 100.09 564.53 103.15C564.53 106.21 567.01 108.69 570.07 108.69Z" fill="#263238"/>
<path d="M570.07 106.41C571.87 106.41 573.33 104.95 573.33 103.15C573.33 101.35 571.87 99.89 570.07 99.89C568.27 99.89 566.81 101.35 566.81 103.15C566.81 104.95 568.27 106.41 570.07 106.41Z" fill="#E0E0E0"/>
<path d="M549 89.45C549 89.6 543.45 89.72 536.6 89.72C529.75 89.72 524.21 89.6 524.21 89.45C524.21 89.3 529.76 89.19 536.6 89.19C543.44 89.19 549 89.31 549 89.45Z" fill="#263238"/>
<path d="M549.88 87.48C546.195 87.8267 542.485 87.8267 538.8 87.48C542.485 87.1333 546.195 87.1333 549.88 87.48Z" fill="#263238"/>
<path d="M359.28 384.58C359.21 384.67 358.58 384.3 357.89 383.74C357.2 383.18 356.69 382.66 356.77 382.57C356.85 382.48 357.47 382.85 358.16 383.41C358.85 383.97 359.35 384.49 359.28 384.58Z" fill="#263238"/>
<path d="M378.2 356.3C378.462 353.662 378.242 350.999 377.55 348.44C376.72 345.93 374.78 343.63 372.19 343.09C369.24 342.48 366.19 344.34 364.55 346.87C362.91 349.4 362.33 352.45 361.84 355.43C358.471 375.971 357.228 396.804 358.13 417.6L370.23 419.3C375.54 397.59 377.23 378.63 378.2 356.3Z" fill="#2F8829"/>
<path d="M370.52 343L370.46 343.19C370.46 343.34 370.34 343.52 370.26 343.74C370.06 344.25 369.8 344.95 369.46 345.83C369.29 346.28 369.06 346.77 368.88 347.34L368.3 349.17C368.08 349.83 367.86 350.53 367.62 351.27L366.99 353.67C365.98 357.621 365.202 361.628 364.66 365.67C364 370.22 363.57 375.25 363.24 380.55C362.62 391.14 362.52 400.76 362.24 407.72C362.11 411.19 361.99 414.01 361.86 415.95L361.71 418.19C361.71 418.42 361.71 418.61 361.66 418.77C361.61 418.93 361.66 418.96 361.66 418.96C361.655 418.893 361.655 418.827 361.66 418.76C361.66 418.61 361.66 418.42 361.66 418.18C361.66 417.63 361.66 416.89 361.73 415.94C361.81 414 361.88 411.18 361.97 407.71C362.17 400.71 362.22 391.13 362.83 380.52C363.17 375.22 363.62 370.17 364.29 365.61C364.855 361.563 365.67 357.556 366.73 353.61C366.96 352.77 367.18 351.97 367.38 351.21C367.58 350.45 367.87 349.77 368.1 349.11L368.72 347.29C368.91 346.73 369.15 346.29 369.33 345.79C369.7 344.92 370 344.23 370.21 343.72L370.45 343.19C370.48 343.05 370.51 343 370.52 343Z" fill="#263238"/>
<path d="M371.64 343C372.27 343.747 372.767 344.596 373.11 345.51C374.036 348.007 374.415 350.674 374.22 353.33C373.9 360.01 373.3 369.22 372.5 379.39C371.7 389.56 370.82 398.75 370.1 405.39C369.75 408.71 369.44 411.39 369.21 413.25C369.09 414.15 369 414.86 368.93 415.39L368.85 415.94C368.85 416.07 368.85 416.13 368.85 416.13C368.85 416.13 368.85 416.06 368.85 415.94C368.85 415.82 368.85 415.6 368.85 415.38C368.85 414.85 368.96 414.14 369.04 413.24C369.22 411.34 369.48 408.66 369.8 405.36C370.43 398.71 371.27 389.52 372.07 379.36C372.87 369.2 373.51 359.99 373.91 353.36C374.117 350.735 373.777 348.096 372.91 345.61C372.56 344.706 372.135 343.833 371.64 343Z" fill="#263238"/>
<path d="M380 374.3C379.207 374.243 378.432 374.043 377.71 373.71C376.939 373.508 376.211 373.169 375.56 372.71C376.353 372.767 377.128 372.967 377.85 373.3C378.621 373.502 379.349 373.841 380 374.3Z" fill="#263238"/>
<path d="M381.48 362C380.093 362.923 378.557 363.599 376.94 364C378.327 363.077 379.863 362.401 381.48 362Z" fill="#263238"/>
<path d="M380.72 351.92C379.527 352.124 378.303 352.039 377.15 351.67C378.343 351.466 379.567 351.551 380.72 351.92Z" fill="#263238"/>
<path d="M368.24 345.47C368.14 345.54 367.61 344.88 367.06 344C366.667 343.499 366.387 342.919 366.24 342.3C366.34 342.23 366.87 342.89 367.43 343.77C367.823 344.269 368.1 344.85 368.24 345.47Z" fill="#263238"/>
<path d="M364.12 351.55C364.12 351.67 363.35 351.75 362.4 351.73C361.818 351.787 361.231 351.701 360.69 351.48C361.24 351.281 361.831 351.219 362.41 351.3C362.992 351.249 363.577 351.334 364.12 351.55Z" fill="#263238"/>
<path d="M361.16 363.73C360.527 363.698 359.909 363.528 359.35 363.23C358.35 362.85 357.66 362.44 357.7 362.33C358.334 362.356 358.953 362.527 359.51 362.83C360.47 363.21 361.2 363.62 361.16 363.73Z" fill="#263238"/>
<path d="M360.84 374C360.84 374.12 360.18 374.36 359.3 374.54C358.78 374.72 358.222 374.765 357.68 374.67C357.68 374.55 358.34 374.31 359.21 374.12C360.08 373.93 360.82 373.84 360.84 374Z" fill="#263238"/>
<path d="M359.45 390.7C359.45 390.82 358.74 391.05 357.81 391.22C357.255 391.387 356.668 391.414 356.1 391.3C356.1 391.18 356.82 390.96 357.74 390.79C358.294 390.623 358.881 390.592 359.45 390.7Z" fill="#263238"/>
<path d="M358.52 399.94C358.58 400.05 357.97 400.48 357.16 400.94C356.35 401.4 355.65 401.63 355.6 401.52C355.55 401.41 356.15 400.99 356.96 400.52C357.77 400.05 358.47 399.84 358.52 399.94Z" fill="#263238"/>
<path d="M366.07 410.43C365.97 410.49 365.43 409.76 364.88 408.8C364.486 408.242 364.21 407.609 364.07 406.94C364.17 406.88 364.71 407.62 365.26 408.58C365.652 409.136 365.927 409.765 366.07 410.43Z" fill="#263238"/>
<path d="M368.25 393C368.33 393.09 367.74 393.8 366.93 394.6C366.12 395.4 365.38 395.98 365.3 395.89C365.22 395.8 365.81 395.09 366.62 394.29C367.43 393.49 368.16 392.92 368.25 393Z" fill="#263238"/>
<path d="M367.77 383.86C367.68 383.94 367.13 383.49 366.54 382.86C365.95 382.23 365.54 381.64 365.63 381.56C365.72 381.48 366.27 381.93 366.86 382.56C367.45 383.19 367.85 383.78 367.77 383.86Z" fill="#263238"/>
<path d="M369.26 372.17C369.35 372.25 368.86 372.95 368.16 373.72C367.46 374.49 366.82 375.07 366.74 374.99C366.66 374.91 367.14 374.21 367.84 373.44C368.54 372.67 369.17 372.09 369.26 372.17Z" fill="#263238"/>
<path d="M370.11 363.69C370.02 363.77 369.33 363.23 368.57 362.48C367.81 361.73 367.25 361.05 367.33 360.96C367.41 360.87 368.1 361.42 368.87 362.17C369.64 362.92 370.19 363.6 370.11 363.69Z" fill="#263238"/>
<path d="M371.76 352.22C371.635 352.844 371.372 353.431 370.99 353.94C370.46 354.83 369.99 355.5 369.85 355.43C369.71 355.36 370.09 354.61 370.62 353.72C371.15 352.83 371.66 352.16 371.76 352.22Z" fill="#263238"/>
<path d="M374.88 341.6C374.779 342.217 374.543 342.804 374.19 343.32C373.71 344.21 373.19 344.89 373.13 344.83C373.07 344.77 373.33 344 373.81 343.11C374.29 342.22 374.77 341.54 374.88 341.6Z" fill="#263238"/>
<path d="M378.41 346.42C378.41 346.53 377.98 346.87 377.33 347.18C376.68 347.49 376.11 347.66 376.06 347.55C376.01 347.44 376.49 347.1 377.14 346.79C377.79 346.48 378.36 346.32 378.41 346.42Z" fill="#263238"/>
<path d="M378.49 384.58C377.668 384.589 376.857 384.393 376.13 384.01C375.347 383.753 374.642 383.302 374.08 382.7C374.849 382.926 375.593 383.231 376.3 383.61C377.06 383.86 377.794 384.185 378.49 384.58Z" fill="#263238"/>
<path d="M377.05 392.66C377.05 392.78 376.34 393.02 375.42 393.2C374.866 393.367 374.281 393.405 373.71 393.31C373.71 393.19 374.42 392.95 375.34 392.77C375.894 392.602 376.479 392.565 377.05 392.66Z" fill="#263238"/>
<path d="M375.27 406.52C374.523 406.154 373.888 405.595 373.43 404.9C372.858 404.297 372.461 403.551 372.28 402.74C372.826 403.333 373.325 403.968 373.77 404.64C374.327 405.219 374.83 405.848 375.27 406.52Z" fill="#263238"/>
<path d="M355.84 412.86C355.76 412.77 356.25 412.22 356.93 411.63C357.61 411.04 358.23 410.63 358.31 410.74C358.39 410.85 357.9 411.38 357.21 411.96C356.52 412.54 355.91 413 355.84 412.86Z" fill="#263238"/>
<path d="M350.25 382.61C349.46 380.16 347.98 377.29 345.4 377.25C344.633 377.294 343.892 377.542 343.253 377.97C342.615 378.397 342.103 378.988 341.77 379.68C341.06 381.053 340.716 382.585 340.77 384.13C341.091 395.075 342.96 405.919 346.32 416.34H355.76C355.653 404.882 353.795 393.507 350.25 382.61Z" fill="#2F8829"/>
<path d="M333.17 367.14C332.703 364.845 331.482 362.772 329.7 361.251C327.919 359.731 325.68 358.85 323.34 358.75C319.17 359.48 317.55 363.59 317.05 367.8C316.55 372.01 317.86 376.19 319.15 380.23C323.303 393.19 327.447 406.147 331.58 419.1L343.33 417.82C339.61 400.46 337.48 384.37 333.17 367.14Z" fill="#2F8829"/>
<path d="M345.4 377.25C345.105 377.679 344.838 378.127 344.6 378.59C344.121 379.925 343.971 381.355 344.16 382.76C344.34 384.56 344.55 386.76 344.85 389.09C345.15 391.42 345.59 394.09 346.12 396.77C347.18 402.2 348.39 407.06 349.12 410.61C349.51 412.38 349.8 413.82 349.98 414.82C350.06 415.28 350.13 415.66 350.18 415.97C350.196 416.106 350.196 416.244 350.18 416.38C350.18 416.38 350.12 416.25 350.05 415.99C349.98 415.73 349.89 415.31 349.78 414.86L348.78 410.68C347.94 407.15 346.69 402.3 345.62 396.85C345.09 394.13 344.67 391.52 344.38 389.14C344.23 387.95 344.13 386.81 344.04 385.74C343.95 384.67 343.84 383.74 343.79 382.74C343.621 381.293 343.824 379.827 344.38 378.48C344.631 378.004 344.979 377.585 345.4 377.25Z" fill="#263238"/>
<path d="M323.51 358.41C322.994 359.014 322.519 359.652 322.09 360.32C321.009 362.197 320.395 364.306 320.3 366.47C320.246 369.68 320.74 372.876 321.76 375.92C322.76 379.42 323.92 383.26 325.11 387.28L331.11 407.95C331.85 410.57 332.45 412.7 332.89 414.23C333.08 414.94 333.23 415.51 333.35 415.94C333.409 416.136 333.453 416.337 333.48 416.54C333.388 416.354 333.315 416.16 333.26 415.96C333.13 415.54 332.95 414.96 332.72 414.27L330.82 408.04L324.68 387.4C323.51 383.4 322.39 379.53 321.36 376.03C320.357 372.939 319.893 369.698 319.99 366.45C320.109 364.246 320.78 362.108 321.94 360.23C322.36 359.542 322.891 358.927 323.51 358.41Z" fill="#263238"/>
<path d="M340.77 416.57C340.659 416.391 340.569 416.199 340.5 416C340.35 415.63 340.1 415.08 339.83 414.35C339.27 412.91 338.56 410.78 337.83 408.11C337.1 405.44 336.35 402.23 335.64 398.64C334.93 395.05 334.22 391.1 333.43 386.95C332.64 382.8 331.71 378.95 330.65 375.41C329.739 372.312 328.596 369.286 327.23 366.36C326.304 364.39 325.245 362.486 324.06 360.66C323.65 360 323.29 359.52 323.06 359.18C322.934 359.014 322.823 358.836 322.73 358.65C322.877 358.798 323.01 358.959 323.13 359.13C323.37 359.46 323.76 359.92 324.19 360.56C325.43 362.365 326.533 364.261 327.49 366.23C328.898 369.156 330.072 372.188 331 375.3C332.139 379.106 333.084 382.968 333.83 386.87C334.6 391.02 335.33 394.96 336.01 398.56C336.69 402.16 337.39 405.36 338.1 408.03C338.81 410.7 339.47 412.84 339.98 414.29C340.22 415.03 340.45 415.58 340.57 415.97C340.654 416.164 340.721 416.364 340.77 416.57Z" fill="#263238"/>
<path d="M319.36 378.29C319.36 378.4 318.75 378.66 317.94 378.86C317.13 379.06 316.44 379.12 316.41 379.01C316.38 378.9 317.02 378.64 317.83 378.44C318.64 378.24 319.34 378.17 319.36 378.29Z" fill="#263238"/>
<path d="M318.12 370.27C317.471 370.457 316.794 370.531 316.12 370.49C315.455 370.586 314.778 370.566 314.12 370.43C314.743 370.133 315.432 370.002 316.12 370.05C316.795 369.955 317.482 370.03 318.12 370.27Z" fill="#263238"/>
<path d="M319.44 363C319.37 363.09 318.73 362.68 318.02 362.07C317.31 361.46 316.79 360.91 316.87 360.82C316.95 360.73 317.59 361.14 318.3 361.74C319.01 362.34 319.52 362.86 319.44 363Z" fill="#263238"/>
<path d="M323 356.17C323.11 356.17 323.08 356.77 323.06 357.46C323.04 358.15 323.06 358.72 322.92 358.74C322.78 358.76 322.61 358.19 322.63 357.45C322.65 356.71 322.91 356.14 323 356.17Z" fill="#263238"/>
<path d="M330.35 359.36C330.45 359.43 330.16 360.01 329.71 360.66C329.26 361.31 328.81 361.77 328.71 361.66C328.61 361.55 328.9 361.01 329.35 360.37C329.8 359.73 330.25 359.3 330.35 359.36Z" fill="#263238"/>
<path d="M335.1 367.62C335.1 367.73 334.54 368.08 333.74 368.41C332.94 368.74 332.27 368.9 332.22 368.79C332.17 368.68 332.78 368.33 333.58 368.01C334.38 367.69 335.06 367.51 335.1 367.62Z" fill="#263238"/>
<path d="M338 376.11C337.476 376.564 336.828 376.85 336.14 376.93C335.493 377.14 334.8 377.164 334.14 377C334.762 376.75 335.414 376.585 336.08 376.51C336.701 376.299 337.346 376.165 338 376.11Z" fill="#263238"/>
<path d="M324.75 373.7C324.63 373.7 324.75 373.08 324.93 372.39C325.11 371.7 325.41 371.17 325.53 371.21C325.65 371.25 325.53 371.83 325.34 372.52C325.15 373.21 324.86 373.74 324.75 373.7Z" fill="#263238"/>
<path d="M326.59 384.36C326.631 383.739 326.816 383.137 327.13 382.6C327.53 381.67 327.94 380.96 328.05 381.01C328.008 381.629 327.827 382.231 327.52 382.77C327.12 383.7 326.7 384.41 326.59 384.36Z" fill="#263238"/>
<path d="M322 387.28C322 387.4 321.21 387.19 320.31 386.91C319.41 386.63 318.68 386.37 318.71 386.25C319.299 386.174 319.897 386.26 320.44 386.5C321.39 386.79 322.08 387.18 322 387.28Z" fill="#263238"/>
<path d="M324.66 396C324.73 396.1 324.23 396.57 323.54 397.07C322.85 397.57 322.23 397.88 322.16 397.78C322.09 397.68 322.6 397.21 323.29 396.71C323.98 396.21 324.59 395.88 324.66 396Z" fill="#263238"/>
<path d="M326.77 404.65C326.77 404.76 326.18 405.01 325.38 405.21C324.58 405.41 323.92 405.46 323.89 405.35C323.86 405.24 324.48 404.98 325.28 404.79C326.08 404.6 326.74 404.53 326.77 404.65Z" fill="#263238"/>
<path d="M338.22 383.36C338.28 383.46 337.74 383.88 336.97 384.17C336.2 384.46 335.51 384.5 335.49 384.38C335.47 384.26 336.08 384.05 336.82 383.77C337.56 383.49 338.15 383.25 338.22 383.36Z" fill="#263238"/>
<path d="M339.85 396.84C339.8 396.95 339.17 396.76 338.43 396.41C337.69 396.06 337.15 395.7 337.2 395.59C337.25 395.48 337.89 395.68 338.62 396.02C339.35 396.36 339.9 396.73 339.85 396.84Z" fill="#263238"/>
<path d="M342.74 406.49C342.087 406.464 341.449 406.293 340.87 405.99C340.24 405.814 339.654 405.508 339.15 405.09C339.806 405.116 340.448 405.287 341.03 405.59C341.657 405.767 342.239 406.074 342.74 406.49Z" fill="#263238"/>
<path d="M327.23 414.05C327.18 413.94 327.95 413.43 328.84 412.72C329.73 412.01 330.41 411.4 330.51 411.48C330.61 411.56 330.03 412.34 329.1 413.06C328.585 413.563 327.936 413.907 327.23 414.05Z" fill="#263238"/>
<path d="M334.86 409.14C334.74 409.14 334.58 408.51 334.28 407.76C333.98 407.01 333.68 406.41 333.78 406.34C333.88 406.27 334.37 406.79 334.68 407.6C334.99 408.41 335 409.14 334.86 409.14Z" fill="#263238"/>
<path d="M332.84 397.54C332.77 397.64 332.28 397.4 331.74 397.01C331.2 396.62 330.82 396.24 330.89 396.14C330.96 396.04 331.45 396.28 331.99 396.66C332.53 397.04 332.91 397.44 332.84 397.54Z" fill="#263238"/>
<path d="M350.63 379.35C350.7 379.45 350.22 379.92 349.56 380.41C348.9 380.9 348.3 381.22 348.23 381.12C348.16 381.02 348.64 380.55 349.3 380.06C349.96 379.57 350.56 379.25 350.63 379.35Z" fill="#263238"/>
<path d="M353.31 386.68C352.786 386.916 352.2 386.976 351.64 386.85C350.71 386.75 350.01 386.44 350.04 386.33C350.07 386.22 350.8 386.33 351.69 386.42C352.58 386.51 353.3 386.56 353.31 386.68Z" fill="#263238"/>
<path d="M341.79 388.32C341.79 388.44 341.12 388.69 340.22 388.74C339.32 388.79 338.59 388.65 338.61 388.53C338.63 388.41 339.32 388.37 340.19 388.31C341.06 388.25 341.76 388.2 341.79 388.32Z" fill="#263238"/>
<path d="M342.78 381.39C342.78 381.51 342.06 381.53 341.3 381.17C340.54 380.81 340.08 380.27 340.16 380.17C340.24 380.07 340.77 380.44 341.48 380.76C342.19 381.08 342.79 381.27 342.78 381.39Z" fill="#263238"/>
<path d="M354.3 394.55C354.23 394.65 353.51 394.31 352.69 393.79C351.87 393.27 351.25 392.79 351.31 392.67C351.37 392.55 352.09 392.9 352.92 393.42C353.75 393.94 354.36 394.44 354.3 394.55Z" fill="#263238"/>
<path d="M382.42 415.11H320.94V426.01H382.42V415.11Z" fill="black"/>
<path d="M325.53 423.85L333 456.41H369.64L377.82 423.85H325.53Z" fill="black"/>
<path d="M382.38 426C382.38 426.12 368.51 426.22 351.38 426.22C334.25 426.22 320.38 426.12 320.38 426C320.38 425.88 334.24 425.79 351.38 425.79C368.52 425.79 382.38 425.9 382.38 426Z" fill="#263238"/>
<path d="M348.19 388.56C348.09 388.62 347.67 388.13 347.25 387.47C346.83 386.81 346.58 386.21 346.68 386.14C346.78 386.07 347.2 386.57 347.62 387.24C348.04 387.91 348.29 388.5 348.19 388.56Z" fill="#263238"/>
<path d="M348.21 397.33C348.179 396.758 348.293 396.187 348.54 395.67C348.83 394.8 349.15 394.12 349.27 394.15C349.301 394.721 349.191 395.291 348.95 395.81C348.66 396.68 348.33 397.36 348.21 397.33Z" fill="#263238"/>
<path d="M351.21 406.53C350.408 405.51 349.841 404.325 349.55 403.06C349.66 403.01 350.12 403.74 350.55 404.7C350.905 405.253 351.131 405.878 351.21 406.53Z" fill="#263238"/>
<path d="M344.72 413.93C344.63 413.86 345 413.29 345.54 412.66C346.08 412.03 346.6 411.59 346.69 411.66C346.78 411.73 346.41 412.31 345.87 412.93C345.33 413.55 344.81 414 344.72 413.93Z" fill="#263238"/>
<path d="M343.36 400.49C343.36 400.61 342.75 400.6 342.04 400.49C341.33 400.38 340.77 400.16 340.79 400.05C340.81 399.94 341.4 399.94 342.11 400.05C342.82 400.16 343.38 400.37 343.36 400.49Z" fill="#263238"/>
<path d="M573.31 410.12L554.07 436.47L586.59 461C588.73 457.75 575.16 437.94 575.16 437.94L588.53 420.55L573.31 410.12Z" fill="#455A64"/>
<g opacity="0.6">
<path d="M567.6 429.84C567.216 429.701 566.794 429.708 566.414 429.859C566.035 430.01 565.724 430.295 565.54 430.66C565.403 431.033 565.409 431.444 565.556 431.814C565.704 432.183 565.983 432.484 566.34 432.66C566.748 432.81 567.197 432.803 567.6 432.641C568.003 432.478 568.331 432.171 568.52 431.78C568.626 431.373 568.575 430.941 568.377 430.57C568.178 430.2 567.847 429.917 567.45 429.78" fill="white"/>
</g>
<g opacity="0.6">
<path d="M554.07 436.47L556.14 433.91L586.54 458.36C586.54 458.36 587.54 460.09 586.59 460.98L554.07 436.47Z" fill="white"/>
</g>
<path d="M575.43 438.58C575.31 438.73 574.43 438.21 573.29 438.13C572.15 438.05 571.21 438.4 571.11 438.23C571.01 438.06 571.94 437.32 573.35 437.44C574.76 437.56 575.58 438.46 575.43 438.58Z" fill="#263238"/>
<path d="M578.58 443.27C578.5 443.45 577.58 443.2 576.58 443.46C575.58 443.72 574.84 444.32 574.69 444.19C574.54 444.06 575.11 443.09 576.42 442.79C577.73 442.49 578.69 443.11 578.58 443.27Z" fill="#263238"/>
<path d="M577.5 448.6C577.33 448.52 577.7 447.6 578.77 447C579.84 446.4 580.83 446.65 580.77 446.84C580.71 447.03 579.93 447.14 579.06 447.61C578.19 448.08 577.67 448.7 577.5 448.6Z" fill="#263238"/>
<path d="M578.46 434C578.28 434.09 577.72 433.33 576.77 432.71C575.82 432.09 574.92 431.85 574.94 431.65C574.96 431.45 576.05 431.39 577.16 432.13C578.27 432.87 578.63 434 578.46 434Z" fill="#263238"/>
<path d="M667 423.81L665.85 456.43L706.52 458.48C706.52 454.59 684.13 445.79 684.13 445.79L685.44 423.9L667 423.81Z" fill="#455A64"/>
<g opacity="0.6">
<path d="M673.38 443.34C672.982 443.44 672.635 443.682 672.404 444.022C672.174 444.361 672.076 444.773 672.13 445.18C672.215 445.58 672.45 445.931 672.787 446.162C673.124 446.393 673.537 446.485 673.94 446.42C674.361 446.318 674.728 446.062 674.97 445.703C675.212 445.344 675.312 444.908 675.25 444.48C675.121 444.076 674.841 443.737 674.468 443.535C674.096 443.332 673.66 443.28 673.25 443.39" fill="white"/>
</g>
<g opacity="0.6">
<path d="M665.89 456.43L666.17 453.14L705.06 456.34C705.06 456.34 706.83 457.21 706.56 458.48L665.89 456.43Z" fill="white"/>
</g>
<path d="M684.76 446.19C684.76 446.38 683.76 446.42 682.76 447.01C681.76 447.6 681.19 448.41 681.01 448.32C680.83 448.23 681.19 447.1 682.42 446.41C683.65 445.72 684.82 446 684.76 446.19Z" fill="#263238"/>
<path d="M690 448.3C690 448.49 689.16 448.79 688.44 449.59C687.72 450.39 687.44 451.27 687.29 451.26C687.14 451.25 687.02 450.11 687.93 449.13C688.84 448.15 690 448.11 690 448.3Z" fill="#263238"/>
<path d="M692.09 453.32C691.91 453.32 691.68 452.32 692.25 451.32C692.82 450.32 693.76 449.87 693.84 450.04C693.92 450.21 693.31 450.76 692.84 451.64C692.37 452.52 692.29 453.31 692.09 453.32Z" fill="#263238"/>
<path d="M684.72 440.73C684.63 440.91 683.72 440.59 682.6 440.61C681.48 440.63 680.6 440.94 680.49 440.76C680.38 440.58 681.27 439.92 682.6 439.92C683.93 439.92 684.83 440.58 684.72 440.73Z" fill="#263238"/>
<path d="M654.61 285C654.61 285 702.93 352.35 703.46 360.29C703.99 368.23 690 443.29 690 443.29L662.41 442.29L668.29 369.21L618 313.05C618 313.05 607.94 306.16 609.53 287.1L654.61 285Z" fill="#263238"/>
<path d="M607.2 290.76C606.45 292.88 609.34 364.68 609.34 364.68C609.34 364.68 576.44 393.59 561.55 422.92L581.17 439.46C581.17 439.46 641.11 383.29 644.51 373.23C647.91 363.17 641.09 288.47 641.09 288.47L607.2 290.76Z" fill="#263238"/>
<path d="M609.41 293.55C609.41 293.55 609.41 293.68 609.46 293.92C609.51 294.16 609.53 294.54 609.58 295.01C609.58 295.25 609.58 295.52 609.66 295.82C609.74 296.12 609.77 296.43 609.83 296.82L610.02 297.96L610.33 299.23C610.877 301.441 611.676 303.581 612.71 305.61C614.079 308.344 615.894 310.832 618.08 312.97L668.49 369L668.56 369.08V369.2C668.56 369.78 668.46 370.42 668.41 371.06C666.12 399.11 664.06 424.42 662.6 442.27L662.43 442.08L682.65 442.91L688.11 443.16L689.53 443.24H688.11L682.64 443.09L662.42 442.42H662.23V442.23C663.65 424.38 665.66 399.06 667.88 371.01C667.88 370.37 667.98 369.73 668.03 369.14L668.1 369.34L617.86 313.14C615.654 310.967 613.835 308.434 612.48 305.65C611.45 303.6 610.668 301.435 610.15 299.2L609.86 297.92C609.8 297.51 609.74 297.13 609.69 296.77C609.64 296.41 609.59 296.1 609.54 295.77C609.49 295.44 609.54 295.2 609.48 294.96C609.48 294.49 609.48 294.13 609.41 293.86C609.399 293.757 609.399 293.653 609.41 293.55Z" fill="#455A64"/>
<path d="M617.52 150.85C615.505 146.698 613.855 142.378 612.59 137.94C611.316 133.482 611.175 128.776 612.18 124.25C612.35 123.57 613.93 118.98 614.63 118.97C615.13 118.97 614.31 123.18 614.63 123.58C617.334 127.532 618.778 132.211 618.77 137C618.869 141.636 618.449 146.268 617.52 150.81" fill="#263238"/>
<path d="M634.12 187.82C630.695 188.129 627.286 187.083 624.624 184.907C621.962 182.731 620.259 179.598 619.88 176.18L615.13 133.41C613.49 121.96 618.79 111.41 630.28 110.13L631.35 110.07C636.537 109.778 641.645 111.448 645.656 114.75C649.668 118.052 652.29 122.743 653 127.89C654.37 137.82 655.75 148.82 656 154.17C656.49 165.26 645.5 167.61 645.5 167.61C645.5 167.61 646.87 174.91 647.19 178.15C647.92 185.43 641.42 187.15 634.13 187.82H634.12Z" fill="#C78976"/>
<path d="M645.49 167.61C640.37 167.889 635.279 166.692 630.82 164.16C630.82 164.16 634.82 172.02 645.82 170.4L645.49 167.61Z" fill="#AE4F32"/>
<path d="M648.55 137C648.58 137.412 648.447 137.819 648.18 138.134C647.912 138.448 647.531 138.644 647.12 138.68C646.919 138.708 646.715 138.696 646.519 138.644C646.324 138.592 646.14 138.501 645.98 138.377C645.82 138.253 645.686 138.098 645.586 137.922C645.487 137.746 645.423 137.551 645.4 137.35C645.375 136.938 645.511 136.532 645.78 136.218C646.049 135.905 646.429 135.708 646.84 135.67C647.04 135.642 647.244 135.654 647.439 135.707C647.634 135.759 647.817 135.85 647.976 135.974C648.136 136.098 648.269 136.252 648.367 136.429C648.466 136.605 648.528 136.799 648.55 137Z" fill="#263238"/>
<path d="M650.89 132.63C650.71 132.84 649.46 132.02 647.76 132.12C646.06 132.22 644.85 133.12 644.66 132.95C644.47 132.78 644.74 132.48 645.26 132.05C645.97 131.499 646.832 131.181 647.73 131.14C648.615 131.083 649.494 131.311 650.24 131.79C650.78 132.16 651 132.53 650.89 132.63Z" fill="#263238"/>
<path d="M632.4 138.25C632.425 138.663 632.289 139.07 632.021 139.385C631.752 139.701 631.372 139.899 630.96 139.94C630.759 139.967 630.556 139.953 630.36 139.899C630.165 139.846 629.983 139.754 629.823 139.63C629.664 139.505 629.531 139.349 629.433 139.173C629.334 138.996 629.272 138.801 629.25 138.6C629.22 138.188 629.353 137.781 629.62 137.466C629.888 137.152 630.269 136.956 630.68 136.92C630.881 136.892 631.085 136.904 631.281 136.956C631.476 137.008 631.66 137.099 631.82 137.223C631.98 137.347 632.114 137.502 632.214 137.678C632.313 137.854 632.377 138.049 632.4 138.25Z" fill="#263238"/>
<path d="M634.25 134.26C634.06 134.47 632.81 133.65 631.11 133.76C629.41 133.87 628.21 134.76 628.01 134.58C627.81 134.4 628.09 134.11 628.62 133.68C629.326 133.128 630.185 132.81 631.08 132.77C631.968 132.712 632.851 132.939 633.6 133.42C634.14 133.8 634.34 134.16 634.25 134.26Z" fill="#263238"/>
<path d="M641.1 147C641.981 146.663 642.902 146.442 643.84 146.34C644.27 146.27 644.67 146.16 644.73 145.86C644.746 145.409 644.62 144.965 644.37 144.59L642.89 141.35C640.89 136.74 639.33 132.93 639.52 132.85C639.71 132.77 641.52 136.45 643.57 141.06L644.99 144.32C645.292 144.828 645.406 145.427 645.31 146.01C645.258 146.169 645.169 146.313 645.051 146.431C644.933 146.549 644.789 146.638 644.63 146.69C644.394 146.77 644.149 146.817 643.9 146.83C642.977 146.998 642.037 147.055 641.1 147Z" fill="#263238"/>
<path d="M636.15 148.46C636.43 148.46 636.54 150.27 638.15 151.46C639.76 152.65 641.76 152.37 641.79 152.62C641.82 152.87 641.38 153.01 640.54 153.08C639.469 153.148 638.408 152.84 637.54 152.21C636.697 151.597 636.126 150.678 635.95 149.65C635.84 148.92 636 148.45 636.15 148.46Z" fill="#263238"/>
<path d="M634.15 128.35C634.01 128.83 632.3 128.7 630.31 129.06C628.32 129.42 626.74 130.06 626.45 129.65C626.32 129.45 626.58 129 627.21 128.52C628.041 127.907 629.009 127.505 630.03 127.35C631.03 127.176 632.058 127.237 633.03 127.53C633.82 127.79 634.21 128.13 634.15 128.35Z" fill="#263238"/>
<path d="M649.87 126.39C649.59 126.8 648.39 126.46 646.98 126.52C645.57 126.58 644.39 126.93 644.09 126.52C643.96 126.33 644.09 125.93 644.63 125.52C645.303 125.033 646.109 124.764 646.94 124.75C647.769 124.719 648.586 124.946 649.28 125.4C649.8 125.81 650 126.2 649.87 126.39Z" fill="#263238"/>
<path d="M616.5 141.56C616.31 141.49 608.76 139.74 609.43 147.3C610.1 154.86 617.55 152.63 617.55 152.41C617.55 152.19 616.5 141.56 616.5 141.56Z" fill="#C78976"/>
<path d="M615 149.75C615 149.75 614.88 149.86 614.67 149.98C614.363 150.144 614.005 150.184 613.67 150.09C613.156 149.82 612.722 149.419 612.413 148.927C612.103 148.435 611.93 147.871 611.91 147.29C611.831 146.646 611.899 145.993 612.11 145.38C612.157 145.136 612.263 144.908 612.42 144.716C612.578 144.524 612.78 144.374 613.01 144.28C613.158 144.226 613.32 144.225 613.468 144.278C613.616 144.331 613.741 144.434 613.82 144.57C613.94 144.77 613.9 144.93 613.95 144.94C614 144.95 614.1 144.8 614.01 144.49C613.95 144.306 613.83 144.148 613.67 144.04C613.447 143.899 613.177 143.853 612.92 143.91C612.615 144.001 612.339 144.168 612.116 144.395C611.894 144.623 611.734 144.903 611.65 145.21C611.384 145.893 611.291 146.632 611.38 147.36C611.56 148.88 612.47 150.23 613.59 150.45C613.799 150.492 614.014 150.485 614.221 150.432C614.427 150.378 614.618 150.278 614.78 150.14C615 149.94 615 149.76 615 149.75Z" fill="#AE4F32"/>
<path d="M646.89 115.85C648.05 115.06 643.99 111.45 640.89 110.38C636.15 108.77 629.09 108.17 625.02 109.77C620.12 111.69 616.17 114.61 614.09 119.44C612.108 124.351 611.466 129.7 612.23 134.94C612.321 136.556 612.846 138.117 613.75 139.46C614.95 141.01 617.05 141.86 617.22 144.11C617.248 144.927 617.567 145.707 618.12 146.31C619.68 147.84 621.3 146.25 621.96 144.75C623.34 141.63 623.18 138.08 622.96 134.67C622.963 132.241 622.565 129.829 621.78 127.53C621.29 126.31 620.58 125.18 620.16 123.93C619.908 123.318 619.791 122.659 619.819 121.997C619.847 121.336 620.018 120.689 620.32 120.1C620.497 119.842 620.698 119.601 620.92 119.38C621.902 118.367 623.134 117.633 624.492 117.25C625.849 116.867 627.284 116.85 628.65 117.2C633.07 118.29 640.45 119.79 642.2 118.2C643.35 117.14 644.2 116.34 644.73 115.79C644.994 115.529 645.347 115.378 645.718 115.367C646.089 115.356 646.451 115.486 646.73 115.73L646.89 115.85Z" fill="#263238"/>
<path d="M646.85 176.2L649.27 190.61L659.62 287.29C647.78 300.51 622.98 288.84 603.55 292.21L606.16 230.15C606.16 230.15 601.21 201.7 601.55 198.64C602.27 192.16 611.83 175.43 619.17 169.72L646.85 176.2Z" fill="#5856D6"/>
<path d="M586.08 320.88L589.13 323.36L600.84 322.12L603.51 304.71L594.79 304.7L591.81 317.49L586.08 320.88Z" fill="#C78976"/>
<path d="M631.36 177.45C628.038 175.766 624.243 175.261 620.597 176.017C616.95 176.773 613.669 178.745 611.29 181.61C609.302 183.856 607.697 186.413 606.54 189.18C604.61 194.35 593.86 219.87 588.6 232.31C586.697 236.819 585.852 241.704 586.13 246.59L589.41 304.7H605.92L609.41 248L633.82 202.07C633.82 202.07 644.53 184.5 631.36 177.45Z" fill="black"/>
<path d="M630.82 177.18L630.47 177.06L629.47 176.69C628.922 176.465 628.357 176.284 627.78 176.15C626.998 175.927 626.198 175.77 625.39 175.68C623.138 175.345 620.838 175.565 618.69 176.32C615.786 177.346 613.254 179.216 611.42 181.69C609.276 184.162 607.584 186.992 606.42 190.05L602 200.64C598.89 208.15 595.41 216.54 591.65 225.64C589.86 230.22 587.4 234.79 586.65 240.01C586.264 242.659 586.187 245.343 586.42 248.01C586.58 250.73 586.73 253.48 586.89 256.26C587.52 267.41 588.19 279.11 588.89 291.18C589.15 295.76 589.4 300.29 589.65 304.74L589.4 304.5H605.91L605.66 304.74C607 283.35 608.21 264 609.21 248L626.44 215.92L631.18 207.16L632.43 204.88C632.71 204.37 632.87 204.11 632.87 204.11C632.87 204.11 632.75 204.39 632.48 204.91C632.21 205.43 631.81 206.21 631.28 207.21C630.21 209.21 628.65 212.21 626.64 216.03L609.56 248.18V248.1C608.56 264.1 607.42 283.42 606.13 304.77V305.01H589.13V304.76C588.87 300.31 588.62 295.76 588.36 291.2C587.68 279.13 587.03 267.42 586.36 256.28C586.2 253.487 586.047 250.737 585.9 248.03C585.667 245.343 585.751 242.638 586.15 239.97C586.543 237.383 587.252 234.854 588.26 232.44C589.24 230.08 590.203 227.767 591.15 225.5L601.56 200.5C603.13 196.76 604.56 193.23 605.98 189.94C607.186 186.854 608.926 184.003 611.12 181.52C612.998 179.01 615.586 177.122 618.55 176.1C620.732 175.356 623.063 175.157 625.34 175.52C626.153 175.622 626.956 175.793 627.74 176.03C628.319 176.175 628.884 176.369 629.43 176.61L630.43 177.02L630.82 177.18Z" fill="black"/>
<path opacity="0.3" d="M607.2 290.76C607.2 290.76 609.2 290.71 610.84 278.71C612.48 266.71 614.84 247.29 614.84 247.29L630.84 207.94L609.41 248L607.2 290.76Z" fill="black"/>
<path d="M152.59 430.6L145.66 446.09C145.66 446.09 163.86 452.93 163.9 456.94L122.38 456L133.65 428.48L152.59 430.6Z" fill="#455A64"/>
<g opacity="0.6">
<path d="M129.67 442.9C129.259 443.002 128.901 443.253 128.665 443.604C128.428 443.955 128.33 444.381 128.39 444.8C128.475 445.212 128.716 445.576 129.062 445.814C129.409 446.053 129.835 446.148 130.25 446.08C130.683 445.973 131.06 445.709 131.31 445.34C131.559 444.97 131.663 444.521 131.6 444.08C131.464 443.659 131.17 443.308 130.781 443.099C130.391 442.89 129.936 442.84 129.51 442.96" fill="white"/>
</g>
<g opacity="0.6">
<path d="M122.38 456L123.38 453.49L162.57 454.91C162.994 455.139 163.354 455.471 163.617 455.874C163.881 456.277 164.04 456.74 164.08 457.22L122.38 456Z" fill="white"/>
</g>
<path d="M145.81 445.87C145.81 446.07 144.81 446.11 143.73 446.72C142.65 447.33 142.11 448.16 141.93 448.07C141.75 447.98 142.11 446.81 143.38 446.07C144.65 445.33 145.87 445.68 145.81 445.87Z" fill="#263238"/>
<path d="M149.34 447.44C149.34 447.64 148.47 447.95 147.74 448.78C147.01 449.61 146.74 450.51 146.55 450.49C146.36 450.47 146.27 449.31 147.21 448.3C148.15 447.29 149.35 447.25 149.34 447.44Z" fill="#263238"/>
<path d="M151.23 452.62C151.05 452.62 150.81 451.62 151.4 450.52C151.99 449.42 153 449 153 449.2C153 449.4 152.46 449.95 152 450.85C151.54 451.75 151.44 452.61 151.23 452.62Z" fill="#263238"/>
<path d="M146.58 443.27C146.42 443.4 145.72 442.71 144.65 442.27C143.58 441.83 142.65 441.71 142.65 441.51C142.65 441.31 143.74 441.06 144.99 441.63C146.24 442.2 146.74 443.18 146.58 443.27Z" fill="#263238"/>
<path d="M146.85 439.49C146.142 439.384 145.476 439.091 144.92 438.64C144.277 438.217 143.69 437.717 143.17 437.15C142.864 436.816 142.58 436.462 142.32 436.09C142.156 435.874 142.024 435.635 141.93 435.38C141.873 435.198 141.877 435.002 141.94 434.822C142.003 434.642 142.122 434.487 142.28 434.38C142.43 434.291 142.598 434.238 142.772 434.226C142.945 434.214 143.12 434.242 143.28 434.31C143.525 434.413 143.755 434.551 143.96 434.72C144.318 435.002 144.653 435.313 144.96 435.65C145.487 436.222 145.916 436.878 146.23 437.59C146.592 438.209 146.753 438.926 146.69 439.64C146.58 439.64 146.4 438.89 145.78 437.82C145.425 437.191 144.988 436.613 144.48 436.1C144.17 435.8 143.835 435.526 143.48 435.28C143.12 435 142.78 434.85 142.59 434.98C142.4 435.11 142.51 435.06 142.59 435.22C142.661 435.403 142.759 435.575 142.88 435.73C143.116 436.076 143.369 436.41 143.64 436.73C144.116 437.28 144.638 437.788 145.2 438.25C145.778 438.625 146.329 439.039 146.85 439.49Z" fill="#263238"/>
<path d="M146.49 439.65C146.355 438.944 146.457 438.213 146.78 437.57C147.055 436.84 147.454 436.163 147.96 435.57C148.256 435.201 148.591 434.866 148.96 434.57C149.176 434.361 149.442 434.211 149.733 434.134C150.023 434.057 150.329 434.055 150.62 434.13C150.787 434.21 150.929 434.334 151.03 434.489C151.13 434.645 151.186 434.825 151.19 435.01C151.188 435.28 151.151 435.549 151.08 435.81C150.961 436.27 150.772 436.708 150.52 437.11C150.103 437.784 149.526 438.344 148.84 438.74C147.65 439.42 146.77 439.3 146.78 439.23C147.391 438.963 147.986 438.659 148.56 438.32C149.134 437.911 149.611 437.382 149.96 436.77C150.161 436.417 150.309 436.036 150.4 435.64C150.52 435.21 150.51 434.81 150.34 434.78C150.158 434.761 149.974 434.782 149.801 434.843C149.628 434.903 149.47 435.001 149.34 435.13C149.005 435.378 148.694 435.656 148.41 435.96C147.928 436.492 147.521 437.088 147.2 437.73C146.7 438.88 146.6 439.67 146.49 439.65Z" fill="#263238"/>
<path d="M87.4 410.82L70.7 437.32L103.44 458.64C105.28 455.4 91 437.31 91 437.31L102.66 419.79L87.4 410.82Z" fill="#455A64"/>
<g opacity="0.6">
<path d="M83.22 430.08C82.8442 429.969 82.4407 430.002 82.0878 430.172C81.7349 430.342 81.4577 430.637 81.31 431C81.1859 431.373 81.2102 431.78 81.3777 432.135C81.5453 432.491 81.8433 432.768 82.21 432.91C82.608 433.018 83.0317 432.975 83.4005 432.791C83.7693 432.607 84.0574 432.293 84.21 431.91C84.3074 431.506 84.2427 431.079 84.0296 430.722C83.8165 430.365 83.472 430.106 83.07 430" fill="white"/>
</g>
<g opacity="0.6">
<path d="M70.7 437.32L72.51 434.73L103.23 456.14C103.23 456.14 104.23 457.73 103.44 458.64L70.7 437.32Z" fill="white"/>
</g>
<path d="M91.3 437.93C91.19 438.09 90.3 437.64 89.22 437.64C88.14 437.64 87.22 438.04 87.14 437.88C87.06 437.72 87.87 436.95 89.23 436.98C90.59 437.01 91.43 437.81 91.3 437.93Z" fill="#263238"/>
<path d="M94.62 442.21C94.56 442.39 93.69 442.21 92.7 442.53C91.71 442.85 91.1 443.47 90.94 443.35C90.78 443.23 91.28 442.27 92.51 441.9C93.74 441.53 94.71 442.06 94.62 442.21Z" fill="#263238"/>
<path d="M93.93 447.39C93.76 447.32 94.06 446.39 95.04 445.77C96.02 445.15 96.99 445.31 96.97 445.48C96.95 445.65 96.19 445.83 95.39 446.34C94.59 446.85 94.1 447.47 93.93 447.39Z" fill="#263238"/>
<path d="M93.89 433.38C93.73 433.49 93.14 432.79 92.2 432.26C91.26 431.73 90.36 431.56 90.37 431.37C90.38 431.18 91.37 431.05 92.53 431.68C93.69 432.31 94.05 433.31 93.89 433.38Z" fill="#263238"/>
<path d="M152.67 281.26C152.67 281.26 180.46 339.72 185.04 350.68C188.22 358.29 190.24 361.81 186.63 371.03C183.02 380.25 155.08 437.83 155.08 437.83L126.26 435.73L155.26 368.5L146.63 336.2L124.2 292.49L152.67 281.26Z" fill="#263238"/>
<path d="M106.58 276.13C106.58 276.13 102.28 274.94 102.16 276.96C101.7 285.04 100.86 285.01 102.16 299.71C103.023 304.051 104.227 308.318 105.76 312.47L109.93 322.54L115.85 365.33L111.69 376.16C111.69 376.16 105.31 379.25 102.91 382.46C100.51 385.67 75.49 423.23 75.49 423.23L98.2 436.07C98.2 436.07 145.08 381.32 147.88 370.5C150.68 359.68 149.06 304.92 149.06 304.92L147.06 282.06L106.58 276.13Z" fill="#263238"/>
<path d="M147.51 301.57C147.541 301.694 147.558 301.822 147.56 301.95C147.56 302.23 147.56 302.61 147.64 303.09C147.7 304.09 147.78 305.57 147.88 307.44C148.08 311.23 148.33 316.7 148.57 323.44C148.81 330.18 149.06 338.28 149.14 347.24C149.19 351.72 149.14 356.42 149.01 361.3C148.95 362.52 148.89 363.75 148.83 364.99C148.7 366.23 148.66 367.48 148.45 368.74C148.33 369.36 148.24 370 148.1 370.63L147.77 371.55L147.36 372.43C146.788 373.59 146.153 374.718 145.46 375.81C142.72 380.21 139.74 384.29 136.83 388.21C133.92 392.13 131.05 395.85 128.28 399.38C122.75 406.38 117.67 412.69 113.37 417.93C109.07 423.17 105.55 427.36 103.1 430.25L100.26 433.57L99.52 434.42L99.25 434.7C99.3152 434.591 99.3887 434.487 99.47 434.39C99.65 434.17 99.89 433.88 100.18 433.5L102.94 430.12C105.36 427.17 108.82 422.92 113.08 417.69C117.34 412.46 122.4 406.14 127.9 399.08C130.66 395.55 133.52 391.82 136.42 387.91C139.32 384 142.29 379.91 145.02 375.54C145.699 374.462 146.323 373.351 146.89 372.21L147.29 371.36L147.6 370.49C147.74 369.88 147.82 369.26 147.94 368.66C148.15 367.43 148.19 366.18 148.32 364.95C148.45 363.72 148.44 362.49 148.5 361.28C148.67 356.42 148.7 351.72 148.66 347.28C148.66 338.33 148.4 330.28 148.2 323.5C148 316.72 147.8 311.28 147.68 307.5C147.62 305.63 147.57 304.17 147.53 303.14C147.53 302.66 147.53 302.29 147.53 302.01C147.515 301.864 147.508 301.717 147.51 301.57Z" fill="#455A64"/>
<path d="M107.78 148.52C107.92 146.93 107.25 145.23 107.9 143.76C108.97 141.32 112.66 141.36 114.44 139.37C116.99 136.52 114.31 131.31 116.93 128.52C119.24 126.05 122.39 126.37 124.41 123.66C125.41 122.29 124.41 119.21 127.87 117.84C130.05 116.97 132.96 117.22 135.17 116.44C138.35 115.32 139.34 113.08 142.58 112.13C146.47 111 149.84 115.62 153.89 115.69C157.41 115.76 160.89 112.35 164.04 113.81C166.61 114.98 167.13 118.63 169.58 120.03C171.71 121.25 174.77 120.46 176.53 122.15C178.29 123.84 177.47 127.28 179.02 129.35C180.57 131.42 184.16 131.62 185.02 134.04C186.07 136.87 182.37 139.83 183.37 142.68C183.77 143.8 184.82 144.56 185.62 145.45C186.452 146.39 187.04 147.52 187.335 148.74C187.63 149.96 187.621 151.234 187.31 152.45C186.977 153.656 186.358 154.764 185.507 155.681C184.656 156.598 183.598 157.297 182.42 157.72L139.42 171.72C136.921 173.253 134.124 174.237 131.215 174.604C128.306 174.971 125.352 174.714 122.55 173.85C120.663 173.309 118.944 172.302 117.55 170.92C115.93 169.18 115.13 166.78 113.34 165.21C111.83 163.89 109.81 163.34 107.97 162.52C106.13 161.7 104.27 160.39 103.87 158.43C103.19 154.85 107.47 152.11 107.78 148.52Z" fill="#263238"/>
<path d="M137.56 125.45C135.05 123.86 134.45 120.16 135.81 117.52C136.564 116.232 137.605 115.136 138.852 114.318C140.099 113.499 141.519 112.979 143 112.8C145.133 112.477 147.312 112.663 149.359 113.342C151.406 114.022 153.264 115.176 154.78 116.71C156.4 118.37 157.71 120.55 159.9 121.31C161.83 121.98 163.97 121.38 166 121.64C167.351 121.883 168.63 122.426 169.742 123.229C170.855 124.032 171.774 125.075 172.43 126.28C173.731 128.702 174.511 131.369 174.72 134.11C175.02 136.61 175.21 139.35 176.94 141.17C178.67 142.99 181.3 143.32 183.4 144.58C185.321 145.858 186.668 147.836 187.153 150.092C187.639 152.348 187.225 154.704 186 156.66C185.16 157.87 184 158.98 183.87 160.45C183.74 161.92 184.65 162.98 185.06 164.26C185.266 165.086 185.294 165.947 185.142 166.784C184.99 167.622 184.661 168.418 184.178 169.119C183.694 169.819 183.067 170.409 182.339 170.849C181.61 171.289 180.795 171.569 179.95 171.67C178.21 171.77 176.35 171.09 174.78 171.87C173.21 172.65 172.66 174.51 171.66 175.93C170.644 177.305 169.187 178.289 167.532 178.717C165.877 179.145 164.125 178.991 162.57 178.28C161.29 177.65 160.08 176.62 158.65 176.71C157.22 176.8 156.11 178.02 154.71 178.29C152.88 178.65 151.15 177.29 150.06 175.78C148.97 174.27 148.21 172.49 146.82 171.25C144.99 169.63 142.43 169.25 140.12 168.43C137.568 167.547 135.235 166.127 133.279 164.265C131.322 162.403 129.788 160.144 128.78 157.639C127.771 155.133 127.312 152.441 127.433 149.743C127.553 147.045 128.252 144.405 129.48 142" fill="#263238"/>
<path d="M131 184.94L128.34 136C128.286 134.96 128.625 133.939 129.29 133.138C129.956 132.337 130.898 131.817 131.93 131.68L153.81 125.48C160.81 124.54 165.81 133.09 166.44 140.16C167.15 148.02 167.72 157.64 166.96 163.54C165.42 175.4 156.41 177.16 156.41 177.16C156.41 177.16 156.63 187.8 156.71 192.09L155.92 206.86L131 184.94Z" fill="#FFBE9D"/>
<path d="M164 149.86C164.014 150.255 163.873 150.64 163.608 150.933C163.343 151.226 162.974 151.404 162.58 151.43C162.388 151.451 162.194 151.433 162.008 151.377C161.823 151.322 161.651 151.23 161.502 151.107C161.353 150.984 161.23 150.832 161.14 150.661C161.051 150.49 160.996 150.303 160.98 150.11C160.963 149.716 161.102 149.331 161.365 149.038C161.629 148.744 161.997 148.566 162.39 148.54C162.583 148.518 162.778 148.535 162.965 148.59C163.151 148.644 163.324 148.736 163.474 148.859C163.625 148.982 163.748 149.134 163.839 149.306C163.929 149.478 163.984 149.667 164 149.86Z" fill="#263238"/>
<path d="M164.49 145.23C164.31 145.44 163.14 144.62 161.49 144.67C159.84 144.72 158.69 145.57 158.49 145.37C158.29 145.17 158.59 144.93 159.1 144.53C159.792 144.023 160.622 143.74 161.48 143.72C162.327 143.695 163.161 143.94 163.86 144.42C164.4 144.79 164.58 145.14 164.49 145.23Z" fill="#263238"/>
<path d="M148.33 149.86C148.344 150.255 148.203 150.64 147.938 150.933C147.673 151.226 147.304 151.404 146.91 151.43C146.718 151.451 146.524 151.433 146.338 151.377C146.153 151.322 145.981 151.23 145.832 151.107C145.683 150.984 145.56 150.832 145.47 150.661C145.381 150.49 145.326 150.303 145.31 150.11C145.293 149.716 145.432 149.331 145.695 149.038C145.959 148.744 146.327 148.566 146.72 148.54C146.913 148.518 147.108 148.535 147.295 148.59C147.481 148.644 147.654 148.736 147.804 148.859C147.955 148.982 148.078 149.134 148.169 149.306C148.259 149.478 148.314 149.667 148.33 149.86Z" fill="#263238"/>
<path d="M148.48 146C148.3 146.2 147.13 145.39 145.48 145.44C143.83 145.49 142.68 146.34 142.48 146.14C142.28 145.94 142.57 145.7 143.08 145.3C143.772 144.793 144.602 144.51 145.46 144.49C146.307 144.465 147.141 144.71 147.84 145.19C148.39 145.55 148.57 145.9 148.48 146Z" fill="#263238"/>
<path d="M154.74 157.91C155.589 157.61 156.473 157.422 157.37 157.35C157.79 157.35 158.18 157.21 158.24 156.92C158.261 156.488 158.154 156.06 157.93 155.69L156.61 152.56C154.77 148.1 153.43 144.43 153.61 144.35C153.79 144.27 155.42 147.84 157.26 152.35L158.53 155.5C158.807 155.995 158.9 156.573 158.79 157.13C158.737 157.281 158.648 157.417 158.532 157.527C158.415 157.636 158.274 157.716 158.12 157.76C157.893 157.83 157.658 157.87 157.42 157.88C156.531 157.998 155.631 158.008 154.74 157.91Z" fill="#263238"/>
<path d="M156.41 177.16C150.854 177.398 145.34 176.093 140.48 173.39C140.48 173.39 144.69 181.6 156.48 180.16L156.41 177.16Z" fill="#EB996E"/>
<path d="M154.61 161.79C153.168 160.81 151.558 160.105 149.86 159.71C149.01 159.65 149.59 160.6 149.15 161.36C148.898 161.777 148.78 162.261 148.811 162.747C148.841 163.233 149.02 163.698 149.322 164.079C149.625 164.461 150.036 164.741 150.502 164.883C150.968 165.024 151.467 165.02 151.93 164.87C152.833 164.551 153.643 164.016 154.29 163.31C154.499 163.141 154.669 162.93 154.79 162.69C154.848 162.557 154.87 162.412 154.854 162.268C154.838 162.124 154.785 161.987 154.7 161.87" fill="#EB996E"/>
<path d="M149 139.26C148.85 139.71 147.22 139.55 145.32 139.83C143.42 140.11 141.88 140.68 141.61 140.29C141.5 140.1 141.75 139.68 142.36 139.23C143.179 138.688 144.114 138.346 145.09 138.23C146.064 138.085 147.058 138.174 147.99 138.49C148.71 138.71 149.07 139.05 149 139.26Z" fill="#263238"/>
<path d="M163.76 139.64C163.48 140.02 162.35 139.64 161 139.69C159.65 139.74 158.51 140.01 158.24 139.63C158.12 139.44 158.24 139.07 158.78 138.7C159.429 138.241 160.205 137.997 161 138C161.792 137.996 162.566 138.233 163.22 138.68C163.71 139.08 163.88 139.46 163.76 139.64Z" fill="#263238"/>
<path d="M174.39 137.68C173.897 135.88 172.798 134.305 171.28 133.22C170.43 132.66 169.44 132.32 168.65 131.69C166.95 130.31 166.55 127.91 165.5 125.99C164.806 124.752 163.828 123.697 162.645 122.913C161.463 122.129 160.11 121.637 158.7 121.48C156.36 121.24 153.95 121.95 151.7 121.37C150.02 120.95 148.55 119.85 146.84 119.53C143.51 118.89 140.42 121.28 138.01 123.66C138.01 126.04 139.9 127.66 141.72 129.16C142.642 129.92 143.717 130.47 144.872 130.774C146.027 131.078 147.234 131.128 148.41 130.92C150.22 130.59 152.22 129.67 153.79 130.64C155.36 131.61 155.51 134.15 156.98 135.43C159.07 137.25 162.41 135.54 165.07 136.33C167.12 136.94 168.41 138.9 169.77 140.55C171.13 142.2 173.19 143.78 175.24 143.17C175.169 141.313 174.884 139.471 174.39 137.68Z" fill="#263238"/>
<path d="M149.42 127.62C147.93 127.2 144.88 126.23 144.08 124.94C143.277 123.549 142.121 122.395 140.728 121.594C139.336 120.793 137.756 120.374 136.15 120.38C134.523 120.509 132.982 121.164 131.76 122.246C130.539 123.329 129.703 124.78 129.38 126.38C127.434 126.448 125.543 127.042 123.907 128.098C122.271 129.154 120.952 130.634 120.09 132.38C119.859 132.828 119.661 133.292 119.5 133.77C118.911 134.812 118.556 135.97 118.459 137.163C118.362 138.357 118.526 139.557 118.94 140.68C119.46 142.02 120.34 143.52 119.65 144.79C118.96 146.06 117.16 146.11 115.77 146.59C114.573 147.042 113.572 147.901 112.943 149.016C112.314 150.131 112.097 151.431 112.33 152.69C112.657 153.547 112.804 154.463 112.76 155.38C112.426 156.274 111.877 157.071 111.16 157.7C110.392 158.612 109.878 159.711 109.669 160.885C109.46 162.059 109.563 163.267 109.968 164.388C110.374 165.51 111.067 166.505 111.978 167.274C112.889 168.043 113.986 168.559 115.16 168.77C116.239 168.815 117.3 169.059 118.29 169.49C119.35 170.13 119.81 171.4 120.55 172.39C121.283 173.328 122.284 174.021 123.419 174.379C124.555 174.736 125.772 174.74 126.91 174.39C127.359 174.231 127.786 174.016 128.18 173.75C128.612 174.317 129.181 174.766 129.833 175.054C130.485 175.343 131.2 175.462 131.91 175.4L131.48 150.5C131.615 150.807 131.824 151.076 132.087 151.283C132.35 151.49 132.66 151.63 132.99 151.69C136.99 152.59 137.57 144.36 136.67 142.12C138.177 140.892 139.521 139.478 140.67 137.91C141.955 135.415 142.588 132.635 142.51 129.83C143.94 129.84 150.08 127.81 149.42 127.62Z" fill="#583E2E"/>
<path d="M132.56 152.45C132.43 149.92 129.33 149.38 127.14 150.64C125.94 151.34 125.02 152.74 125.14 155.43C125.43 162.59 132.56 160.82 132.57 160.61C132.58 160.4 132.7 155.41 132.56 152.45Z" fill="#FFBE9D"/>
<path d="M130.26 158C130.26 158 130.14 158.09 129.93 158.19C129.787 158.263 129.631 158.305 129.471 158.316C129.311 158.326 129.151 158.304 129 158.25C128.524 157.977 128.129 157.582 127.856 157.106C127.584 156.629 127.443 156.089 127.45 155.54C127.41 154.927 127.506 154.312 127.73 153.74C127.79 153.514 127.902 153.305 128.059 153.131C128.215 152.957 128.411 152.823 128.63 152.74C128.772 152.699 128.923 152.707 129.059 152.764C129.196 152.82 129.309 152.921 129.38 153.05C129.48 153.25 129.44 153.4 129.48 153.41C129.52 153.42 129.63 153.28 129.56 152.99C129.514 152.813 129.408 152.658 129.26 152.55C129.053 152.415 128.804 152.362 128.56 152.4C128.27 152.471 128.003 152.614 127.784 152.817C127.565 153.02 127.402 153.276 127.31 153.56C127.025 154.186 126.902 154.874 126.95 155.56C127.06 157.01 127.85 158.33 128.95 158.56C129.145 158.607 129.349 158.611 129.545 158.571C129.742 158.531 129.928 158.449 130.09 158.33C130.25 158.16 130.28 158 130.26 158Z" fill="#EB996E"/>
<path d="M151.52 164.77C151.52 164.77 151.33 164.69 151 164.65C150.544 164.607 150.104 164.463 149.71 164.23C148.53 163.67 149.43 161.78 149.63 160.01C149.63 159.91 149.68 159.88 149.63 159.91H149.77C149.72 160.25 150.29 159.43 150.03 159.45H149.98H149.9H149.83C149.83 159.34 149.42 160.38 149.62 159.94H149.67L149.98 160.07L151.14 160.56L153.14 161.35C153.738 161.64 154.374 161.842 155.03 161.95C154.494 161.545 153.91 161.209 153.29 160.95L151.35 160.05L150.19 159.54L149.89 159.4H149.84C150.04 158.97 149.59 160.01 149.63 159.89H149.7H149.78C149.792 159.848 149.809 159.808 149.83 159.77C149.848 159.734 149.872 159.7 149.9 159.67C149.84 159.67 149.9 159.58 149.9 159.56C149.97 159.33 149.9 159.43 149.9 159.41L149.71 159.35C149.599 159.316 149.481 159.316 149.37 159.35C149.282 159.399 149.207 159.468 149.152 159.551C149.096 159.635 149.061 159.73 149.05 159.83C148.9 160.73 148.75 161.6 148.62 162.43C148.536 162.843 148.564 163.271 148.7 163.67C148.854 164.021 149.121 164.31 149.46 164.49C149.918 164.72 150.429 164.823 150.94 164.79C151.33 164.84 151.52 164.8 151.52 164.77Z" fill="#263238"/>
<path d="M129.49 175.41L130.27 180.87C123.04 184.26 112.8 202.79 109.88 212.93C106.96 223.07 98.77 268.67 98.77 268.67L98.18 269.08C97.5157 269.505 96.9535 270.071 96.5336 270.738C96.1136 271.405 95.8463 272.157 95.7507 272.939C95.6552 273.722 95.7338 274.516 95.9808 275.265C96.2279 276.013 96.6374 276.698 97.18 277.27C99.1814 279.448 101.948 280.766 104.9 280.95L150.4 284L158.91 286.08L155.29 237.43C155.29 237.43 163.54 231.02 162.29 216.79C161.63 209.28 159.29 194.34 159.29 194.34L158.07 186.07C158.412 183.86 158.639 181.634 158.75 179.4C158.727 179.073 158.593 178.764 158.369 178.526C158.144 178.287 157.845 178.133 157.52 178.09L131.17 174.09C130.972 174.058 130.769 174.067 130.574 174.117C130.38 174.167 130.198 174.257 130.04 174.381C129.882 174.505 129.752 174.66 129.657 174.838C129.562 175.015 129.505 175.21 129.49 175.41Z" fill="#FF9999"/>
<path d="M135.12 181.18C134.812 180.153 134.7 179.078 134.79 178.01C134.719 176.941 134.851 175.869 135.18 174.85C135.367 175.896 135.411 176.962 135.31 178.02C135.393 179.077 135.329 180.14 135.12 181.18Z" fill="#263238"/>
<path d="M144 182.61C143.653 180.45 143.653 178.25 144 176.09C144.268 177.155 144.363 178.255 144.28 179.35C144.356 180.445 144.262 181.544 144 182.61Z" fill="#263238"/>
<path d="M152.19 183.73C152.06 182.734 152.06 181.726 152.19 180.73C152.166 179.721 152.267 178.714 152.49 177.73C152.772 178.724 152.847 179.766 152.71 180.79C152.736 181.795 152.559 182.795 152.19 183.73Z" fill="#263238"/>
<path d="M144.85 195.3C141.32 190.47 134.78 185.73 127.27 191.14C121.91 195 119.27 199.54 115.49 213.58C106.21 247.65 107.25 248.36 108.4 249.83C109.55 251.3 150.4 291.15 150.4 291.15L163.62 278.87L133.9 243.07C133.9 243.07 147.69 206.68 145.9 199.76C145.64 198.71 145.54 196.25 144.85 195.3Z" fill="black"/>
<path d="M136.89 189.21L137.16 189.27L137.97 189.47C139.023 189.76 140.032 190.191 140.97 190.75C142.493 191.643 143.742 192.936 144.58 194.49C145.668 196.608 146.199 198.97 146.12 201.35C146.074 204.282 145.564 207.188 144.61 209.96C143.61 212.96 142.61 216.26 141.51 219.74L134.14 243.14L134.09 242.92L163.84 278.7L164 278.89L163.81 279.06L159.43 283.13L150.59 291.34L150.41 291.5L150.24 291.33L121.94 263.6C117.64 259.36 113.55 255.34 109.79 251.55C109.32 251.07 108.86 250.55 108.4 250.1C107.962 249.562 107.731 248.884 107.75 248.19C107.728 246.914 107.825 245.638 108.04 244.38C108.42 241.92 108.9 239.6 109.39 237.38C111.39 228.57 113.32 221.56 114.63 216.72C115.29 214.33 115.81 212.46 116.16 211.18L116.57 209.74C116.67 209.42 116.73 209.26 116.73 209.26C116.73 209.26 116.73 209.43 116.62 209.76C116.51 210.09 116.41 210.58 116.26 211.2C115.92 212.49 115.44 214.37 114.81 216.77C113.56 221.62 111.69 228.64 109.73 237.46C109.25 239.66 108.78 241.99 108.42 244.46C108.215 245.692 108.124 246.941 108.15 248.19C108.122 248.805 108.325 249.408 108.72 249.88C109.15 250.34 109.62 250.81 110.09 251.29C113.86 255.07 117.95 259.07 122.26 263.29L150.58 291H150.22L159.06 282.79L163.44 278.72V279.07L133.74 243.26L133.66 243.16V243.04C136.38 234.49 138.89 226.64 141.12 219.66C143.18 212.66 145.89 206.66 145.81 201.39C145.895 199.051 145.396 196.728 144.36 194.63C143.548 193.099 142.339 191.814 140.86 190.91C139.943 190.346 138.958 189.899 137.93 189.58L137.13 189.35L136.89 189.21Z" fill="#263238"/>
<path d="M550.17 191.76L586.81 201.39C589.588 202.119 592.047 203.748 593.802 206.022C595.557 208.296 596.509 211.088 596.51 213.96V320.88H528.78V208C528.78 208 531.36 192.87 550.17 191.76Z" fill="#9A9A9A"/>
<path d="M576.07 201.9H575.73L574.73 201.96C573.475 202.062 572.229 202.249 571 202.52C569.058 202.952 567.177 203.624 565.4 204.52C563.049 205.677 560.996 207.361 559.4 209.44C558.949 210.031 558.551 210.66 558.21 211.32C557.846 212.006 557.542 212.722 557.3 213.46C557.178 213.841 557.078 214.228 557 214.62C556.893 215.01 556.816 215.408 556.77 215.81C556.655 216.645 556.602 217.487 556.61 218.33C556.61 221.79 556.61 225.48 556.61 229.33C556.61 237.11 556.61 245.66 556.61 254.63C556.61 272.57 556.55 288.81 556.53 300.63C556.53 306.49 556.47 311.24 556.45 314.57C556.45 316.19 556.45 317.46 556.45 318.35C556.45 318.77 556.45 319.09 556.45 319.35C556.45 319.61 556.45 319.69 556.45 319.69C556.438 319.577 556.438 319.463 556.45 319.35C556.45 319.1 556.45 318.78 556.45 318.35C556.45 317.46 556.45 316.19 556.4 314.57C556.4 311.24 556.4 306.49 556.32 300.63C556.32 288.84 556.27 272.63 556.25 254.63C556.25 245.63 556.25 237.11 556.25 229.33C556.25 225.44 556.25 221.74 556.25 218.33C556.247 217.47 556.303 216.612 556.42 215.76C556.473 215.344 556.557 214.933 556.67 214.53C556.751 214.127 556.858 213.729 556.99 213.34C557.259 212.582 557.594 211.85 557.99 211.15C558.345 210.476 558.756 209.834 559.22 209.23C560.872 207.106 562.994 205.394 565.42 204.23C567.225 203.338 569.137 202.683 571.11 202.28C572.349 202.027 573.606 201.874 574.87 201.82H575.87C575.938 201.843 576.005 201.869 576.07 201.9Z" fill="#263238"/>
<path d="M157.66 320.62L164.49 335.55H196.73L202.71 320.62H157.66Z" fill="#455A64"/>
<path opacity="0.3" d="M157.66 320.62L160.18 326.11H200.51L202.71 320.62H157.66Z" fill="black"/>
<path d="M533.86 320.62L540.69 335.55H572.93L578.91 320.62H533.86Z" fill="#455A64"/>
<path opacity="0.3" d="M533.86 320.62L536.37 326.11H576.71L578.91 320.62H533.86Z" fill="black"/>
<path d="M196.73 191.5L160.09 201.12C157.313 201.851 154.857 203.481 153.104 205.755C151.351 208.029 150.4 210.819 150.4 213.69V320.62H218.13V207.73C218.13 207.73 215.55 192.6 196.73 191.5Z" fill="#9A9A9A"/>
<path d="M196.73 166.73V191.5C196.73 191.5 215.92 197.4 218.13 212.16V235L377.8 235.54V169.24C377.803 167.789 377.252 166.391 376.26 165.332C375.267 164.272 373.908 163.632 372.46 163.54C347.08 161.95 238.6 155.54 202.83 159.87C201.151 160.07 199.603 160.879 198.479 162.143C197.355 163.407 196.733 165.039 196.73 166.73Z" fill="#9A9A9A"/>
<path d="M377.8 171.11V235.57L531.64 236.14C531.64 236.14 527.64 206.89 550.17 191.76L551.11 156.08C551.11 156.08 472.18 163.08 457.11 164.57C445.05 165.75 401.3 164.57 384.45 164.09C383.549 164.103 382.659 164.296 381.834 164.658C381.009 165.019 380.264 165.543 379.644 166.197C379.024 166.852 378.542 167.623 378.225 168.467C377.908 169.311 377.764 170.209 377.8 171.11Z" fill="#9A9A9A"/>
<path d="M543.89 236.14C545.46 238.3 555.89 245.32 555.89 245.32H190.1L218.1 235.03L543.89 236.14Z" fill="#666869"/>
<path d="M555.85 278.81H196.73V320.61H555.85V278.81Z" fill="#9A9A9A"/>
<path d="M555.85 245.32H190.52V278.81H555.85V245.32Z" fill="#9A9A9A"/>
<path d="M555.85 278.81C555.85 278.07 555.817 266.907 555.75 245.32L555.85 245.42L190.54 245.58L190.8 245.32V278.81L190.54 278.55L449.95 278.66L555.87 278.81L450.12 279L190.52 279.11H190.26V245.11H190.54L555.85 245.26H556V245.37C555.907 266.93 555.857 278.077 555.85 278.81Z" fill="#263238"/>
<path d="M555.85 245.32L555.46 245.16L554.3 244.68L549.78 242.68L532.36 235.1L373.1 235.23L218.1 235.11H218.15L197.43 242.65L191.96 244.65L190.55 245.14L190.07 245.3L190.54 245.11L191.93 244.57L197.38 242.57L218.05 234.91L373.05 234.79L532.31 234.92H532.37L549.73 242.61L554.23 244.61L555.37 245.13L555.85 245.32Z" fill="#1E2224"/>
<path d="M377.8 235.57C377.885 235.791 377.936 236.024 377.95 236.26C378.02 236.78 378.11 237.43 378.22 238.26C378.43 239.97 378.78 242.35 379 245.38C379 249.03 379 253.38 379.05 258.15C379.05 267.75 378.98 275.95 378.88 279.15H378.7C378.691 278.625 378.721 278.1 378.79 277.58C378.865 278.1 378.895 278.625 378.88 279.15H378.7C378.6 275.94 378.53 267.74 378.53 258.15C378.53 253.42 378.53 249.03 378.58 245.38C378.4 242.5 378.11 240.01 377.98 238.33C377.91 237.53 377.86 236.88 377.82 236.33C377.785 236.078 377.778 235.823 377.8 235.57Z" fill="#263238"/>
<path d="M218.13 235C218.106 234.807 218.106 234.613 218.13 234.42C218.13 233.98 218.13 233.42 218.13 232.76C218.13 231.25 218.13 229.18 218.13 226.66C218.13 224.14 218.13 221.02 218.08 217.66C218.08 215.96 218.01 214.18 217.89 212.33C217.77 210.48 217.67 208.57 217.37 206.65C216.821 203.026 215.214 199.644 212.75 196.93C210.572 194.876 207.893 193.431 204.98 192.74C203.013 192.232 201.005 191.898 198.98 191.74C197.55 191.61 196.75 191.58 196.75 191.54C196.943 191.516 197.137 191.516 197.33 191.54C197.71 191.54 198.27 191.54 198.99 191.54C201.034 191.631 203.064 191.926 205.05 192.42C208.044 193.081 210.806 194.531 213.05 196.62C215.614 199.397 217.283 202.882 217.84 206.62C218.15 208.62 218.25 210.5 218.36 212.35C218.47 214.2 218.5 216 218.52 217.7C218.52 221.11 218.52 224.18 218.46 226.76C218.4 229.34 218.34 231.42 218.29 232.85C218.29 233.53 218.23 234.08 218.2 234.51C218.195 234.675 218.171 234.84 218.13 235Z" fill="#263238"/>
<path d="M170.84 201.64C170.949 201.625 171.061 201.625 171.17 201.64H172.17C173.437 201.702 174.697 201.86 175.94 202.11C177.909 202.511 179.818 203.163 181.62 204.05C184.045 205.215 186.168 206.926 187.82 209.05C188.287 209.655 188.699 210.301 189.05 210.98C189.45 211.677 189.785 212.411 190.05 213.17C190.188 213.557 190.295 213.955 190.37 214.36C190.484 214.763 190.568 215.174 190.62 215.59C190.741 216.441 190.801 217.3 190.8 218.16C190.8 221.62 190.8 225.31 190.8 229.16C190.8 236.94 190.8 245.49 190.8 254.47C190.8 272.41 190.74 288.65 190.72 300.47C190.72 306.33 190.66 311.08 190.64 314.4C190.64 316.02 190.64 317.29 190.59 318.19C190.59 318.6 190.59 318.93 190.59 319.19C190.603 319.3 190.603 319.41 190.59 319.52C190.577 319.41 190.577 319.3 190.59 319.19C190.59 318.94 190.59 318.61 190.59 318.19C190.59 317.29 190.59 316.02 190.54 314.4C190.54 311.08 190.54 306.33 190.46 300.47C190.46 288.68 190.41 272.47 190.38 254.47C190.38 245.47 190.38 236.94 190.38 229.16C190.38 225.28 190.38 221.58 190.38 218.16C190.386 217.321 190.336 216.482 190.23 215.65C190.18 215.245 190.1 214.843 189.99 214.45C189.921 214.056 189.82 213.668 189.69 213.29C189.45 212.555 189.146 211.842 188.78 211.16C188.446 210.498 188.051 209.869 187.6 209.28C185.999 207.204 183.947 205.518 181.6 204.35C179.824 203.46 177.947 202.788 176.01 202.35C174.777 202.081 173.528 201.897 172.27 201.8L171.27 201.74C171.123 201.726 170.978 201.692 170.84 201.64Z" fill="#263238"/>
<path d="M150.87 320.43C184.4 320.43 522.32 320.62 555.87 320.62Z" fill="#455A64"/>
<path d="M555.85 320.62C555.85 320.76 465.19 320.83 353.37 320.78C241.55 320.73 150.87 320.57 150.87 320.43C150.87 320.29 241.52 320.21 353.37 320.26C465.22 320.31 555.85 320.47 555.85 320.62Z" fill="#263238"/>
<path d="M232.67 259C232.443 258.382 232.324 257.729 232.32 257.07C232.193 255.494 232.227 253.909 232.42 252.34C232.601 250.774 232.936 249.23 233.42 247.73C233.591 247.095 233.861 246.491 234.22 245.94C234.37 246 233.32 248.79 232.9 252.41C232.48 256.03 232.83 259 232.67 259Z" fill="#263238"/>
<path d="M238.4 264.74C238.044 263.88 237.796 262.98 237.66 262.06C237.213 259.873 236.912 257.658 236.76 255.43C236.607 253.199 236.607 250.961 236.76 248.73C236.782 247.803 236.906 246.88 237.13 245.98C237.2 246.899 237.2 247.821 237.13 248.74C237.13 250.45 237.13 252.8 237.26 255.39C237.39 257.98 237.74 260.31 238 262C238.195 262.903 238.329 263.819 238.4 264.74Z" fill="#263238"/>
<path d="M377.62 236.28C377.47 236.28 377.36 221.16 377.36 202.51C377.36 183.86 377.47 168.74 377.62 168.74C377.77 168.74 377.88 183.86 377.88 202.51C377.88 221.16 377.76 236.28 377.62 236.28Z" fill="#263238"/>
<path d="M223.57 181.33C222.952 182.019 222.284 182.661 221.57 183.25C220.33 184.41 218.66 186.07 216.95 188.02C215.24 189.97 213.83 191.85 212.85 193.23C212.358 194.012 211.81 194.758 211.21 195.46C211.555 194.6 212.001 193.784 212.54 193.03C213.742 191.149 215.079 189.357 216.54 187.67C218.007 185.989 219.598 184.422 221.3 182.98C221.988 182.342 222.75 181.788 223.57 181.33Z" fill="#263238"/>
<path d="M219.82 194.56C218.854 195.1 217.807 195.481 216.72 195.69C215.677 196.07 214.58 196.283 213.47 196.32C214.44 195.781 215.49 195.4 216.58 195.19C217.623 194.821 218.715 194.609 219.82 194.56Z" fill="#263238"/>
<path d="M327.61 196.89C327.835 196.753 328.097 196.687 328.36 196.7C329.076 196.683 329.779 196.901 330.36 197.32C330.816 197.631 331.18 198.058 331.414 198.558C331.647 199.058 331.743 199.611 331.69 200.16C331.647 200.842 331.393 201.495 330.964 202.027C330.535 202.56 329.952 202.946 329.294 203.134C328.636 203.321 327.937 203.3 327.291 203.074C326.646 202.848 326.087 202.427 325.69 201.87C325.359 201.429 325.15 200.907 325.087 200.359C325.024 199.81 325.108 199.255 325.33 198.75C325.607 198.079 326.099 197.519 326.73 197.16C326.95 197.013 327.206 196.93 327.47 196.92C327.47 196.92 327.22 197.05 326.84 197.33C326.305 197.721 325.901 198.265 325.68 198.89C325.505 199.332 325.449 199.812 325.518 200.282C325.586 200.752 325.777 201.196 326.07 201.57C326.413 202.043 326.892 202.399 327.444 202.591C327.996 202.782 328.593 202.799 329.155 202.64C329.717 202.481 330.217 202.152 330.586 201.7C330.955 201.247 331.177 200.692 331.22 200.11C331.271 199.637 331.198 199.159 331.009 198.722C330.819 198.286 330.52 197.906 330.14 197.62C329.622 197.204 328.992 196.954 328.33 196.9C327.89 196.87 327.62 196.93 327.61 196.89Z" fill="#263238"/>
<path d="M338.77 195.23C337.231 195.344 335.729 195.758 334.35 196.45C333.047 197.287 331.916 198.367 331.02 199.63C331.09 199.155 331.283 198.707 331.58 198.33C332.221 197.366 333.081 196.568 334.09 196C335.092 195.425 336.216 195.099 337.37 195.05C337.844 194.981 338.328 195.044 338.77 195.23Z" fill="#263238"/>
<path d="M333.7 206.48C333.55 206.48 333.18 205.35 332.33 204.15C331.48 202.95 330.53 202.15 330.62 202.06C331.525 202.38 332.285 203.016 332.76 203.85C333.374 204.588 333.707 205.52 333.7 206.48Z" fill="#263238"/>
<path d="M325.86 199.39C325.77 199.39 325.62 198.92 325.19 198.24C324.632 197.363 323.876 196.629 322.984 196.096C322.091 195.563 321.087 195.246 320.05 195.17C319.25 195.17 318.74 195.22 318.72 195.17C319.121 194.931 319.584 194.817 320.05 194.84C321.175 194.818 322.284 195.113 323.249 195.691C324.215 196.27 324.998 197.108 325.51 198.11C325.746 198.495 325.868 198.939 325.86 199.39Z" fill="#263238"/>
<path d="M261.68 196.89C261.905 196.753 262.167 196.687 262.43 196.7C263.147 196.68 263.85 196.898 264.43 197.32C264.887 197.63 265.252 198.058 265.488 198.557C265.723 199.057 265.821 199.61 265.77 200.16C265.727 200.842 265.473 201.495 265.044 202.027C264.615 202.56 264.032 202.946 263.374 203.134C262.716 203.321 262.017 203.3 261.371 203.074C260.726 202.848 260.167 202.427 259.77 201.87C259.439 201.429 259.23 200.907 259.167 200.359C259.104 199.81 259.188 199.255 259.41 198.75C259.683 198.077 260.177 197.516 260.81 197.16C261.026 197.013 261.279 196.93 261.54 196.92C261.54 196.92 261.3 197.05 260.92 197.33C260.384 197.723 259.977 198.266 259.75 198.89C259.58 199.333 259.527 199.813 259.597 200.283C259.667 200.752 259.858 201.196 260.15 201.57C260.491 202.045 260.97 202.403 261.521 202.595C262.073 202.787 262.671 202.805 263.233 202.645C263.795 202.486 264.294 202.157 264.662 201.703C265.03 201.249 265.25 200.693 265.29 200.11C265.345 199.637 265.274 199.157 265.084 198.72C264.895 198.283 264.593 197.903 264.21 197.62C263.697 197.204 263.069 196.953 262.41 196.9C262 196.87 261.69 196.93 261.68 196.89Z" fill="#263238"/>
<path d="M272.84 195.23C271.285 195.263 269.762 195.683 268.409 196.451C267.056 197.219 265.916 198.311 265.09 199.63C265.03 199.63 265.17 199.07 265.65 198.33C266.291 197.366 267.151 196.568 268.16 196C269.161 195.425 270.286 195.099 271.44 195.05C271.914 194.981 272.398 195.044 272.84 195.23Z" fill="#263238"/>
<path d="M267.76 206.48C267.61 206.48 267.25 205.35 266.4 204.15C265.55 202.95 264.6 202.15 264.68 202.06C265.589 202.378 266.352 203.014 266.83 203.85C267.446 204.587 267.776 205.52 267.76 206.48Z" fill="#263238"/>
<path d="M259.92 199.39C259.84 199.39 259.68 198.92 259.26 198.24C258.698 197.364 257.941 196.631 257.047 196.098C256.153 195.565 255.148 195.247 254.11 195.17C253.31 195.17 252.81 195.22 252.79 195.17C253.191 194.931 253.654 194.817 254.12 194.84C255.245 194.818 256.354 195.113 257.319 195.691C258.285 196.27 259.068 197.108 259.58 198.11C260 198.84 260 199.38 259.92 199.39Z" fill="#263238"/>
<path d="M489.19 197.34C489.421 197.207 489.684 197.141 489.95 197.15C490.667 197.131 491.37 197.349 491.95 197.77C492.406 198.081 492.771 198.508 493.006 199.008C493.242 199.507 493.34 200.06 493.29 200.61C493.247 201.292 492.993 201.945 492.564 202.477C492.135 203.01 491.552 203.396 490.894 203.584C490.236 203.771 489.537 203.75 488.891 203.524C488.246 203.298 487.687 202.877 487.29 202.32C486.956 201.88 486.746 201.358 486.682 200.809C486.619 200.26 486.705 199.705 486.93 199.2C487.2 198.528 487.69 197.967 488.32 197.61C488.54 197.464 488.796 197.381 489.06 197.37C489.06 197.37 488.82 197.5 488.43 197.78C487.898 198.174 487.495 198.717 487.27 199.34C487.097 199.783 487.042 200.263 487.113 200.733C487.183 201.204 487.375 201.647 487.67 202.02C488.011 202.495 488.49 202.853 489.041 203.045C489.593 203.237 490.191 203.255 490.753 203.095C491.315 202.936 491.814 202.607 492.182 202.153C492.55 201.699 492.77 201.143 492.81 200.56C492.865 200.087 492.794 199.607 492.604 199.17C492.415 198.733 492.113 198.353 491.73 198.07C491.214 197.652 490.583 197.401 489.92 197.35C489.47 197.32 489.2 197.39 489.19 197.34Z" fill="#263238"/>
<path d="M500.36 195.68C498.806 195.719 497.285 196.14 495.933 196.908C494.581 197.675 493.44 198.765 492.61 200.08C492.55 200.08 492.69 199.52 493.17 198.78C493.807 197.816 494.664 197.018 495.67 196.45C496.677 195.88 497.804 195.554 498.96 195.5C499.434 195.438 499.917 195.5 500.36 195.68Z" fill="#263238"/>
<path d="M495.28 206.93C495.13 206.93 494.77 205.8 493.92 204.6C493.07 203.4 492.11 202.6 492.2 202.51C493.06 202.906 493.799 203.524 494.341 204.301C494.882 205.078 495.207 205.986 495.28 206.93Z" fill="#263238"/>
<path d="M487.44 199.84C487.36 199.84 487.2 199.38 486.78 198.7C486.221 197.821 485.464 197.085 484.57 196.55C483.674 196.019 482.668 195.7 481.63 195.62C480.83 195.57 480.33 195.62 480.31 195.62C480.711 195.382 481.175 195.271 481.64 195.3C482.764 195.277 483.872 195.571 484.837 196.147C485.803 196.724 486.587 197.56 487.1 198.56C487.47 199.3 487.5 199.83 487.44 199.84Z" fill="#263238"/>
<path d="M423.26 197.34C423.486 197.205 423.747 197.139 424.01 197.15C424.726 197.133 425.429 197.351 426.01 197.77C426.465 198.082 426.828 198.509 427.062 199.009C427.296 199.508 427.392 200.061 427.34 200.61C427.297 201.292 427.043 201.945 426.614 202.477C426.185 203.01 425.602 203.396 424.944 203.584C424.286 203.771 423.587 203.75 422.941 203.524C422.296 203.298 421.737 202.877 421.34 202.32C421.009 201.878 420.802 201.356 420.741 200.808C420.679 200.259 420.765 199.704 420.99 199.2C421.26 198.528 421.75 197.967 422.38 197.61C422.6 197.463 422.856 197.38 423.12 197.37C423.12 197.37 422.87 197.5 422.49 197.78C421.955 198.171 421.551 198.715 421.33 199.34C421.155 199.782 421.099 200.262 421.168 200.732C421.236 201.202 421.427 201.646 421.72 202.02C422.063 202.493 422.542 202.849 423.094 203.041C423.646 203.232 424.243 203.249 424.805 203.09C425.367 202.931 425.867 202.602 426.236 202.15C426.605 201.697 426.827 201.142 426.87 200.56C426.923 200.087 426.851 199.608 426.661 199.171C426.472 198.734 426.172 198.355 425.79 198.07C425.273 197.653 424.642 197.402 423.98 197.35C423.54 197.32 423.27 197.39 423.26 197.34Z" fill="#263238"/>
<path d="M434.43 195.68C432.887 195.793 431.381 196.211 430 196.91C428.696 197.742 427.565 198.819 426.67 200.08C426.742 199.606 426.935 199.158 427.23 198.78C427.87 197.822 428.725 197.026 429.727 196.457C430.728 195.887 431.849 195.56 433 195.5C433.484 195.435 433.977 195.497 434.43 195.68Z" fill="#263238"/>
<path d="M429.35 206.93C429.2 206.93 428.83 205.8 427.98 204.6C427.13 203.4 426.18 202.6 426.27 202.51C427.175 202.83 427.935 203.466 428.41 204.3C429.024 205.038 429.357 205.97 429.35 206.93Z" fill="#263238"/>
<path d="M421.51 199.84C421.42 199.84 421.27 199.38 420.84 198.7C420.288 197.819 419.534 197.082 418.64 196.55C417.744 196.019 416.738 195.7 415.7 195.62C414.9 195.57 414.39 195.62 414.37 195.62C414.772 195.384 415.235 195.273 415.7 195.3C416.826 195.275 417.936 195.568 418.903 196.144C419.87 196.721 420.656 197.558 421.17 198.56C421.4 198.947 421.518 199.39 421.51 199.84Z" fill="#263238"/>
<path d="M550.75 190.65C550.75 190.65 550.64 190.8 550.4 191.03L549.3 192.03C548.82 192.45 548.23 192.97 547.6 193.63C546.97 194.29 546.2 194.97 545.46 195.85L544.26 197.18C543.85 197.65 543.47 198.18 543.05 198.7C542.18 199.7 541.38 200.92 540.51 202.16C536.864 207.62 534.245 213.7 532.78 220.1C532.48 221.58 532.16 222.98 532 224.32C531.91 224.98 531.8 225.62 531.74 226.24C531.68 226.86 531.64 227.46 531.59 228.03C531.46 229.17 531.48 230.2 531.45 231.11C531.41 231.886 531.41 232.664 531.45 233.44V234.92C531.465 235.093 531.465 235.267 531.45 235.44C531.397 235.272 531.37 235.096 531.37 234.92C531.37 234.53 531.29 234.04 531.24 233.45C531.165 232.672 531.135 231.891 531.15 231.11C531.15 230.2 531.15 229.11 531.21 228C531.25 227.427 531.29 226.827 531.33 226.2C531.33 225.57 531.48 224.93 531.56 224.26C531.7 222.91 532.01 221.49 532.3 219.99C533.728 213.515 536.379 207.371 540.11 201.89C540.99 200.65 541.81 199.45 542.7 198.43C543.13 197.91 543.53 197.43 543.95 196.92L545.18 195.59C545.94 194.73 546.73 194.05 547.39 193.41C547.952 192.869 548.543 192.358 549.16 191.88L550.32 190.96C550.452 190.841 550.596 190.737 550.75 190.65Z" fill="#263238"/>
<path d="M544.07 171.7C543.98 171.7 544.21 170.7 544.07 169.14C543.86 167.102 542.965 165.196 541.532 163.732C540.099 162.269 538.213 161.334 536.18 161.08C534.62 160.86 533.64 161.08 533.62 160.97C533.832 160.862 534.063 160.798 534.3 160.78C534.935 160.679 535.58 160.655 536.22 160.71C538.373 160.881 540.391 161.826 541.9 163.37C543.41 164.915 544.309 166.954 544.43 169.11C544.475 169.749 544.438 170.391 544.32 171.02C544.285 171.262 544.2 171.493 544.07 171.7Z" fill="#263238"/>
<path d="M545.3 182.68C545.039 181.452 544.951 180.193 545.04 178.94C544.95 177.687 545.038 176.428 545.3 175.2C545.556 176.429 545.644 177.687 545.56 178.94C545.643 180.193 545.555 181.451 545.3 182.68Z" fill="#263238"/>
<path d="M461.68 199C461.209 198.025 460.795 197.023 460.44 196C459.467 193.602 458.352 191.265 457.1 189C455.84 186.758 454.451 184.591 452.94 182.51C452.265 181.682 451.64 180.814 451.07 179.91C451.07 179.91 451.32 180.09 451.7 180.5C452.08 180.91 452.61 181.5 453.23 182.29C454.845 184.32 456.293 186.477 457.56 188.74C458.823 191.007 459.903 193.371 460.79 195.81C461.12 196.75 461.36 197.52 461.5 198.06C461.612 198.361 461.673 198.679 461.68 199Z" fill="#263238"/>
<path d="M460.57 183.75C460.181 182.181 459.963 180.575 459.92 178.96C459.709 177.359 459.669 175.74 459.8 174.13C460.181 175.7 460.395 177.305 460.44 178.92C460.651 180.521 460.695 182.14 460.57 183.75Z" fill="#263238"/>
<g opacity="0.3">
<path d="M528.89 279.54C421.387 285.489 313.631 285.212 206.16 278.71L528.89 279.54Z" fill="black"/>
</g>
<path d="M396.88 200.35C396.569 200.791 396.217 201.203 395.83 201.58C395.49 201.97 395.05 202.44 394.52 202.95C393.99 203.46 393.4 204.08 392.69 204.69C391.073 206.165 389.378 207.55 387.61 208.84C385.44 210.41 383.176 211.846 380.83 213.14C378.47 214.414 376.035 215.546 373.54 216.53C371.499 217.313 369.416 217.981 367.3 218.53C365.5 219.01 364.02 219.33 362.99 219.53C362.464 219.648 361.929 219.718 361.39 219.74C361.898 219.562 362.42 219.425 362.95 219.33C363.95 219.1 365.42 218.73 367.21 218.21C369 217.69 371.08 216.98 373.36 216.08C378.32 214.117 383.022 211.554 387.36 208.45C389.36 207.02 391.09 205.64 392.48 204.45C393.2 203.85 393.8 203.27 394.34 202.77C394.88 202.27 395.34 201.84 395.72 201.47C396.072 201.063 396.461 200.688 396.88 200.35Z" fill="#263238"/>
<path d="M388.83 217.61C383.715 218.336 378.556 218.717 373.39 218.75C375.935 218.301 378.508 218.023 381.09 217.92C383.66 217.636 386.246 217.533 388.83 217.61Z" fill="#263238"/>
<path d="M376.29 178.16C376.36 178.29 368.44 182.55 358.6 187.67C348.76 192.79 340.74 196.83 340.67 196.67C340.6 196.51 348.52 192.29 358.36 187.16C368.2 182.03 376.22 178 376.29 178.16Z" fill="white"/>
<path d="M406.62 185.82C406.41 185.964 406.186 186.084 405.95 186.18L403.95 187.1L396.67 190.44C390.53 193.26 382.07 197.19 372.79 201.69C363.51 206.19 355.17 210.38 349.14 213.45L342 217.08L340.06 218.08C339.837 218.203 339.603 218.303 339.36 218.38C339.567 218.232 339.785 218.098 340.01 217.98L341.91 216.92C343.56 216.01 345.97 214.71 348.96 213.14C354.96 209.98 363.26 205.73 372.55 201.24C381.84 196.75 390.33 192.86 396.55 190.12C399.64 188.75 402.15 187.67 403.9 186.93L405.9 186.1C406.135 185.994 406.375 185.9 406.62 185.82Z" fill="white"/>
<path d="M404.11 215.51C403.919 215.627 403.722 215.734 403.52 215.83L401.8 216.65C400.3 217.36 398.11 218.34 395.38 219.51C389.94 221.86 382.32 224.89 373.75 227.82C365.18 230.75 357.29 232.98 351.55 234.45C348.67 235.19 346.34 235.75 344.72 236.1L342.85 236.5C342.635 236.562 342.414 236.599 342.19 236.61C342.395 236.518 342.61 236.448 342.83 236.4L344.67 235.91L351.45 234.1C357.17 232.54 365.02 230.24 373.58 227.32C382.14 224.4 389.76 221.43 395.24 219.17L401.72 216.46L403.48 215.73C403.68 215.632 403.892 215.558 404.11 215.51Z" fill="white"/>
<path d="M403.6 234.83C402.953 235.405 402.245 235.908 401.49 236.33C399.715 237.421 397.871 238.396 395.97 239.25C394.07 240.101 392.116 240.826 390.12 241.42C389.305 241.71 388.46 241.905 387.6 242C388.375 241.621 389.181 241.31 390.01 241.07C391.5 240.54 393.55 239.76 395.76 238.77C397.97 237.78 399.91 236.77 401.3 236.01C402.03 235.549 402.8 235.154 403.6 234.83Z" fill="white"/>
<path d="M341.15 237.2C341.16 236.993 341.193 236.789 341.25 236.59C341.35 236.15 341.47 235.59 341.62 234.88C341.97 233.4 342.44 231.25 342.98 228.59C344.38 221.648 345.421 214.639 346.1 207.59C346.75 200.546 347.04 193.474 346.97 186.4C346.97 183.69 346.88 181.49 346.81 179.97C346.81 179.26 346.81 178.68 346.81 178.22C346.793 178.017 346.793 177.813 346.81 177.61C346.865 177.809 346.895 178.014 346.9 178.22C346.94 178.673 346.99 179.253 347.05 179.96C347.17 181.48 347.29 183.68 347.36 186.39C347.746 200.58 346.403 214.765 343.36 228.63C342.77 231.29 342.25 233.42 341.84 234.89L341.37 236.58C341.324 236.795 341.25 237.004 341.15 237.2Z" fill="#263238"/>
</svg>
