<svg xmlns="http://www.w3.org/2000/svg" viewBox="0 0 750 500"><g id="freepik--Floor--inject-10"><path d="M711.92,456.41c0,.14-153.1.26-341.9.26s-341.94-.12-341.94-.26,153.06-.26,341.94-.26S711.92,456.26,711.92,456.41Z" style="fill:#263238"></path></g><g id="freepik--Box--inject-10"><rect x="387.57" y="361.6" width="122.92" height="94.81" transform="translate(898.06 818.01) rotate(180)" style="fill:#455a64"></rect><path d="M418.37,455.74c.17,0,.3-21.14.3-47.2s-.13-47.2-.3-47.2-.31,21.13-.31,47.2S418.2,455.74,418.37,455.74Z" style="fill:#263238"></path><rect x="397.99" y="434.83" width="9.42" height="10.65" transform="translate(805.41 880.31) rotate(180)" style="fill:#fafafa"></rect><rect x="459.03" y="361.84" width="13.96" height="20.23" style="fill:#263238"></rect><rect x="459.03" y="435.89" width="13.96" height="20.23" style="fill:#263238"></rect></g><g id="freepik--Table--inject-10"><rect x="224.62" y="358.65" width="83.57" height="8.63" style="fill:#455a64"></rect><polygon points="266.41 366.19 266.41 456.66 272.83 456.66 274.32 366.19 266.41 366.19" style="fill:#455a64"></polygon><polygon points="245.64 366.19 223.39 456.66 229.57 456.66 254.54 366.19 245.64 366.19" style="fill:#455a64"></polygon><polygon points="290.58 365.83 313.64 456.63 307.46 456.63 281.68 365.83 290.58 365.83" style="fill:#455a64"></polygon><path d="M308.19,367.38c0,.11-18.53.2-41.38.2s-41.39-.09-41.39-.2,18.53-.2,41.39-.2S308.19,367.27,308.19,367.38Z" style="fill:#263238"></path></g><g id="freepik--speech-bubble--inject-10"><path d="M515.8,65v52.67a4.69,4.69,0,0,0,4.7,4.7h60l11.79,7.9V65a4.69,4.69,0,0,0-4.7-4.7H520.5A4.69,4.69,0,0,0,515.8,65Z" style="fill:#fff"></path><path d="M515.8,65a3.35,3.35,0,0,1,0-.73,4.77,4.77,0,0,1,.77-2,4.83,4.83,0,0,1,2.84-1.94,10,10,0,0,1,2.22-.13h2.52l30.16-.09,20.82,0h11.61a6,6,0,0,1,3,.51A4.92,4.92,0,0,1,592,62.81a6.19,6.19,0,0,1,.53,3.13v3.13c0,16.84,0,35.35,0,54.77v6.94l-.4-.27-11.79-7.9.14,0-47.47,0H522.54c-.86,0-1.68,0-2.56,0a5,5,0,0,1-2.4-.94,5,5,0,0,1-1.57-2,5.47,5.47,0,0,1-.41-2.44c0-6.37,0-12.28,0-17.67,0-10.74.06-19.37.08-25.33,0-3,0-5.26,0-6.83q0-1.15,0-1.77c0-.4,0-.6,0-.6s0,.2,0,.6,0,1,0,1.77c0,1.57,0,3.87,0,6.83,0,6,.05,14.59.08,25.33,0,5.39,0,11.3,0,17.67a5.13,5.13,0,0,0,.38,2.27,4.49,4.49,0,0,0,1.45,1.81,4.44,4.44,0,0,0,2.2.85c.79,0,1.67,0,2.51,0l10.53,0,47.47,0h.08l.07,0c3.81,2.56,7.76,5.2,11.79,7.89l-.41.22v-6.45c0-19.42,0-37.93,0-54.77V65.94a5.58,5.58,0,0,0-.47-2.92,4.42,4.42,0,0,0-2-2,5.61,5.61,0,0,0-2.83-.46l-11.61,0-20.82,0-30.16-.08h-2.52a9.65,9.65,0,0,0-2.19.11,4.64,4.64,0,0,0-3.58,3.78C515.8,64.77,515.82,65,515.8,65Z" style="fill:#263238"></path><path d="M527.92,76v24.81a1,1,0,0,0,1,1h52a1,1,0,0,0,1-1l-.11-9.09a1,1,0,0,0-.2-.57l-7.46-10a1,1,0,0,0-.77-.39l-9.55-.07V76a1,1,0,0,0-1-1H528.89A1,1,0,0,0,527.92,76Z" style="fill:#22B44D"></path><path d="M566.21,82.84v8a.56.56,0,0,0,.56.56l11.48-.21a.55.55,0,0,0,.45-.86l-5.37-7.93a.56.56,0,0,0-.47-.24l-6.12.17A.54.54,0,0,0,566.21,82.84Z" style="fill:#e0e0e0"></path><rect x="526.88" y="101.42" width="56.04" height="1.73" rx="0.82" style="fill:#22B44D"></rect><path d="M570.09,92.92c0,.14-.8.26-1.77.26s-1.78-.12-1.78-.26.8-.25,1.78-.25S570.09,92.79,570.09,92.92Z" style="fill:#263238"></path><path d="M563.67,101c-.14,0-.26-5.64-.26-12.59s.12-12.59.26-12.59.26,5.63.26,12.59S563.81,101,563.67,101Z" style="fill:#263238"></path><path d="M582.06,101.4c0,.15-12.11.26-27,.26s-27-.11-27-.26,12.1-.26,27-.26S582.06,101.26,582.06,101.4Z" style="fill:#263238"></path><circle cx="539.87" cy="103.15" r="5.54" style="fill:#263238"></circle><circle cx="539.87" cy="103.15" r="3.26" style="fill:#e0e0e0"></circle><circle cx="570.07" cy="103.15" r="5.54" style="fill:#263238"></circle><circle cx="570.07" cy="103.15" r="3.26" style="fill:#e0e0e0"></circle><path d="M549,89.45c0,.15-5.55.27-12.4.27s-12.39-.12-12.39-.27,5.55-.26,12.39-.26S549,89.31,549,89.45Z" style="fill:#263238"></path><path d="M549.88,87.48a59.15,59.15,0,0,1-11.08,0,59.15,59.15,0,0,1,11.08,0Z" style="fill:#263238"></path></g><g id="freepik--Plant--inject-10"><path d="M359.28,384.58c-.07.09-.7-.28-1.39-.84s-1.2-1.08-1.12-1.17.7.28,1.39.84S359.35,384.49,359.28,384.58Z" style="fill:#263238"></path><path d="M378.2,356.3a21.83,21.83,0,0,0-.65-7.86c-.83-2.51-2.77-4.81-5.36-5.35-2.95-.61-6,1.25-7.64,3.78s-2.22,5.58-2.71,8.56a303,303,0,0,0-3.71,62.17l12.1,1.7C375.54,397.59,377.23,378.63,378.2,356.3Z" style="fill:#455a64"></path><path d="M370.52,343l-.06.19c0,.15-.12.33-.2.55-.2.51-.46,1.21-.8,2.09-.17.45-.4.94-.58,1.51l-.58,1.83c-.22.66-.44,1.36-.68,2.1l-.63,2.4a104.44,104.44,0,0,0-2.33,12c-.66,4.55-1.09,9.58-1.42,14.88-.62,10.59-.72,20.21-1,27.17-.13,3.47-.25,6.29-.38,8.23l-.15,2.24c0,.23,0,.42-.05.58s0,.19,0,.19a1.39,1.39,0,0,1,0-.2c0-.15,0-.34,0-.58,0-.55,0-1.29.07-2.24.08-1.94.15-4.76.24-8.23.2-7,.25-16.58.86-27.19.34-5.3.79-10.35,1.46-14.91a99.07,99.07,0,0,1,2.44-12c.23-.84.45-1.64.65-2.4s.49-1.44.72-2.1l.62-1.82c.19-.56.43-1,.61-1.5.37-.87.67-1.56.88-2.07l.24-.53C370.48,343.05,370.51,343,370.52,343Z" style="fill:#263238"></path><path d="M371.64,343a8.56,8.56,0,0,1,1.47,2.51,18.57,18.57,0,0,1,1.11,7.82c-.32,6.68-.92,15.89-1.72,26.06s-1.68,19.36-2.4,26c-.35,3.32-.66,6-.89,7.86-.12.9-.21,1.61-.28,2.14l-.08.55c0,.13,0,.19,0,.19s0-.07,0-.19,0-.34,0-.56c0-.53.11-1.24.19-2.14.18-1.9.44-4.58.76-7.88.63-6.65,1.47-15.84,2.27-26s1.44-19.37,1.84-26a19,19,0,0,0-1-7.75A17.39,17.39,0,0,0,371.64,343Z" style="fill:#263238"></path><path d="M380,374.3a6.6,6.6,0,0,1-2.29-.59,6.67,6.67,0,0,1-2.15-1,6.6,6.6,0,0,1,2.29.59A6.67,6.67,0,0,1,380,374.3Z" style="fill:#263238"></path><path d="M381.48,362a14.5,14.5,0,0,1-4.54,2,14.5,14.5,0,0,1,4.54-2Z" style="fill:#263238"></path><path d="M380.72,351.92a7.54,7.54,0,0,1-3.57-.25,7.54,7.54,0,0,1,3.57.25Z" style="fill:#263238"></path><path d="M368.24,345.47c-.1.07-.63-.59-1.18-1.47a4.39,4.39,0,0,1-.82-1.7c.1-.07.63.59,1.19,1.47A4.28,4.28,0,0,1,368.24,345.47Z" style="fill:#263238"></path><path d="M364.12,351.55c0,.12-.77.2-1.72.18a3.59,3.59,0,0,1-1.71-.25,3.6,3.6,0,0,1,1.72-.18A3.74,3.74,0,0,1,364.12,351.55Z" style="fill:#263238"></path><path d="M361.16,363.73a4.31,4.31,0,0,1-1.81-.5c-1-.38-1.69-.79-1.65-.9a4.14,4.14,0,0,1,1.81.5C360.47,363.21,361.2,363.62,361.16,363.73Z" style="fill:#263238"></path><path d="M360.84,374c0,.12-.66.36-1.54.54a3.25,3.25,0,0,1-1.62.13c0-.12.66-.36,1.53-.55S360.82,373.84,360.84,374Z" style="fill:#263238"></path><path d="M359.45,390.7c0,.12-.71.35-1.64.52a3.52,3.52,0,0,1-1.71.08c0-.12.72-.34,1.64-.51A3.59,3.59,0,0,1,359.45,390.7Z" style="fill:#263238"></path><path d="M358.52,399.94c.06.11-.55.54-1.36,1s-1.51.69-1.56.58.55-.53,1.36-1S358.47,399.84,358.52,399.94Z" style="fill:#263238"></path><path d="M366.07,410.43c-.1.06-.64-.67-1.19-1.63a5,5,0,0,1-.81-1.86c.1-.06.64.68,1.19,1.64A5.06,5.06,0,0,1,366.07,410.43Z" style="fill:#263238"></path><path d="M368.25,393c.08.09-.51.8-1.32,1.6s-1.55,1.38-1.63,1.29.51-.8,1.32-1.6S368.16,392.92,368.25,393Z" style="fill:#263238"></path><path d="M367.77,383.86c-.09.08-.64-.37-1.23-1s-1-1.22-.91-1.3.64.37,1.23,1S367.85,383.78,367.77,383.86Z" style="fill:#263238"></path><path d="M369.26,372.17c.09.08-.4.78-1.1,1.55s-1.34,1.35-1.42,1.27.4-.78,1.1-1.55S369.17,372.09,369.26,372.17Z" style="fill:#263238"></path><path d="M370.11,363.69c-.09.08-.78-.46-1.54-1.21s-1.32-1.43-1.24-1.52.77.46,1.54,1.21S370.19,363.6,370.11,363.69Z" style="fill:#263238"></path><path d="M371.76,352.22a4.26,4.26,0,0,1-.77,1.72c-.53.89-1,1.56-1.14,1.49s.24-.82.77-1.71S371.66,352.16,371.76,352.22Z" style="fill:#263238"></path><path d="M374.88,341.6a4.26,4.26,0,0,1-.69,1.72c-.48.89-1,1.57-1.06,1.51s.2-.83.68-1.72S374.77,341.54,374.88,341.6Z" style="fill:#263238"></path><path d="M378.41,346.42c0,.11-.43.45-1.08.76s-1.22.48-1.27.37.43-.45,1.08-.76S378.36,346.32,378.41,346.42Z" style="fill:#263238"></path><path d="M378.49,384.58a4.94,4.94,0,0,1-2.36-.57,4.89,4.89,0,0,1-2.05-1.31,11.69,11.69,0,0,1,2.22.91A12.13,12.13,0,0,1,378.49,384.58Z" style="fill:#263238"></path><path d="M377.05,392.66c0,.12-.71.36-1.63.54a3.77,3.77,0,0,1-1.71.11c0-.12.71-.36,1.63-.54A3.76,3.76,0,0,1,377.05,392.66Z" style="fill:#263238"></path><path d="M375.27,406.52a4.66,4.66,0,0,1-1.84-1.62,4.59,4.59,0,0,1-1.15-2.16,15.18,15.18,0,0,1,1.49,1.9A12.91,12.91,0,0,1,375.27,406.52Z" style="fill:#263238"></path><path d="M355.84,412.86c-.08-.09.41-.64,1.09-1.23s1.3-1,1.38-.89-.41.64-1.1,1.22S355.91,413,355.84,412.86Z" style="fill:#263238"></path><path d="M350.25,382.61c-.79-2.45-2.27-5.32-4.85-5.36a4.3,4.3,0,0,0-3.63,2.43,9,9,0,0,0-1,4.45,116.06,116.06,0,0,0,5.55,32.21h9.44A112.44,112.44,0,0,0,350.25,382.61Z" style="fill:#455a64"></path><path d="M333.17,367.14a10.49,10.49,0,0,0-9.83-8.39c-4.17.73-5.79,4.84-6.29,9.05s.81,8.39,2.1,12.43q6.23,19.44,12.43,38.87l11.75-1.28C339.61,400.46,337.48,384.37,333.17,367.14Z" style="fill:#455a64"></path><path d="M345.4,377.25a12.38,12.38,0,0,0-.8,1.34,8.85,8.85,0,0,0-.44,4.17c.18,1.8.39,4,.69,6.33s.74,5,1.27,7.68c1.06,5.43,2.27,10.29,3,13.84.39,1.77.68,3.21.86,4.21.08.46.15.84.2,1.15a1.81,1.81,0,0,1,0,.41s-.06-.13-.13-.39-.16-.68-.27-1.13l-1-4.18c-.84-3.53-2.09-8.38-3.16-13.83-.53-2.72-.95-5.33-1.24-7.71-.15-1.19-.25-2.33-.34-3.4s-.2-2-.25-3a8.56,8.56,0,0,1,.59-4.26A3.9,3.9,0,0,1,345.4,377.25Z" style="fill:#263238"></path><path d="M323.51,358.41a17.42,17.42,0,0,0-1.42,1.91,13.5,13.5,0,0,0-1.79,6.15,28.24,28.24,0,0,0,1.46,9.45c1,3.5,2.16,7.34,3.35,11.36l6,20.67c.74,2.62,1.34,4.75,1.78,6.28.19.71.34,1.28.46,1.71a3.82,3.82,0,0,1,.13.6,3.24,3.24,0,0,1-.22-.58c-.13-.42-.31-1-.54-1.69l-1.9-6.23-6.14-20.64c-1.17-4-2.29-7.87-3.32-11.37a28.31,28.31,0,0,1-1.37-9.58,13.19,13.19,0,0,1,1.95-6.22A7.39,7.39,0,0,1,323.51,358.41Z" style="fill:#263238"></path><path d="M340.77,416.57a2.84,2.84,0,0,1-.27-.57c-.15-.37-.4-.92-.67-1.65-.56-1.44-1.27-3.57-2-6.24s-1.48-5.88-2.19-9.47-1.42-7.54-2.21-11.69-1.72-8-2.78-11.54a64.19,64.19,0,0,0-3.42-9.05,47.83,47.83,0,0,0-3.17-5.7c-.41-.66-.77-1.14-1-1.48a3.38,3.38,0,0,1-.33-.53,3.69,3.69,0,0,1,.4.48c.24.33.63.79,1.06,1.43a44,44,0,0,1,3.3,5.67A61.3,61.3,0,0,1,331,375.3a116.81,116.81,0,0,1,2.83,11.57c.77,4.15,1.5,8.09,2.18,11.69s1.38,6.8,2.09,9.47,1.37,4.81,1.88,6.26c.24.74.47,1.29.59,1.68A3.58,3.58,0,0,1,340.77,416.57Z" style="fill:#263238"></path><path d="M319.36,378.29c0,.11-.61.37-1.42.57s-1.5.26-1.53.15.61-.37,1.42-.57S319.34,378.17,319.36,378.29Z" style="fill:#263238"></path><path d="M318.12,370.27a5.93,5.93,0,0,1-2,.22,5.79,5.79,0,0,1-2-.06,4,4,0,0,1,2-.38A4.07,4.07,0,0,1,318.12,370.27Z" style="fill:#263238"></path><path d="M319.44,363c-.07.09-.71-.32-1.42-.93s-1.23-1.16-1.15-1.25.72.32,1.43.92S319.52,362.86,319.44,363Z" style="fill:#263238"></path><path d="M323,356.17c.11,0,.08.6.06,1.29s0,1.26-.14,1.28-.31-.55-.29-1.29S322.91,356.14,323,356.17Z" style="fill:#263238"></path><path d="M330.35,359.36c.1.07-.19.65-.64,1.3s-.9,1.11-1,1,.19-.65.64-1.29S330.25,359.3,330.35,359.36Z" style="fill:#263238"></path><path d="M335.1,367.62c0,.11-.56.46-1.36.79s-1.47.49-1.52.38.56-.46,1.36-.78S335.06,367.51,335.1,367.62Z" style="fill:#263238"></path><path d="M338,376.11a3.45,3.45,0,0,1-1.86.82,3.64,3.64,0,0,1-2,.07,7.4,7.4,0,0,1,1.94-.49A8.06,8.06,0,0,1,338,376.11Z" style="fill:#263238"></path><path d="M324.75,373.7c-.12,0,0-.62.18-1.31s.48-1.22.6-1.18,0,.62-.19,1.31S324.86,373.74,324.75,373.7Z" style="fill:#263238"></path><path d="M326.59,384.36a4,4,0,0,1,.54-1.76c.4-.93.81-1.64.92-1.59a4.11,4.11,0,0,1-.53,1.76C327.12,383.7,326.7,384.41,326.59,384.36Z" style="fill:#263238"></path><path d="M322,387.28c0,.12-.79-.09-1.69-.37s-1.63-.54-1.6-.66a3.25,3.25,0,0,1,1.73.25C321.39,386.79,322.08,387.18,322,387.28Z" style="fill:#263238"></path><path d="M324.66,396c.07.1-.43.57-1.12,1.07s-1.31.81-1.38.71.44-.57,1.13-1.07S324.59,395.88,324.66,396Z" style="fill:#263238"></path><path d="M326.77,404.65c0,.11-.59.36-1.39.56s-1.46.25-1.49.14.59-.37,1.39-.56S326.74,404.53,326.77,404.65Z" style="fill:#263238"></path><path d="M338.22,383.36c.06.1-.48.52-1.25.81s-1.46.33-1.48.21.59-.33,1.33-.61S338.15,383.25,338.22,383.36Z" style="fill:#263238"></path><path d="M339.85,396.84c-.05.11-.68-.08-1.42-.43s-1.28-.71-1.23-.82.69.09,1.42.43S339.9,396.73,339.85,396.84Z" style="fill:#263238"></path><path d="M342.74,406.49a4.42,4.42,0,0,1-1.87-.5,4.65,4.65,0,0,1-1.72-.9,4.45,4.45,0,0,1,1.88.5A4.65,4.65,0,0,1,342.74,406.49Z" style="fill:#263238"></path><path d="M327.23,414.05c-.05-.11.72-.62,1.61-1.33s1.57-1.32,1.67-1.24-.48.86-1.41,1.58A3.74,3.74,0,0,1,327.23,414.05Z" style="fill:#263238"></path><path d="M334.86,409.14c-.12,0-.28-.63-.58-1.38s-.6-1.35-.5-1.42.59.45.9,1.26S335,409.14,334.86,409.14Z" style="fill:#263238"></path><path d="M332.84,397.54c-.07.1-.56-.14-1.1-.53s-.92-.77-.85-.87.56.14,1.1.52S332.91,397.44,332.84,397.54Z" style="fill:#263238"></path><path d="M350.63,379.35c.07.1-.41.57-1.07,1.06s-1.26.81-1.33.71.41-.57,1.07-1.06S350.56,379.25,350.63,379.35Z" style="fill:#263238"></path><path d="M353.31,386.68a2.65,2.65,0,0,1-1.67.17c-.93-.1-1.63-.41-1.6-.52s.76,0,1.65.09S353.3,386.56,353.31,386.68Z" style="fill:#263238"></path><path d="M341.79,388.32c0,.12-.67.37-1.57.42s-1.63-.09-1.61-.21.71-.16,1.58-.22S341.76,388.2,341.79,388.32Z" style="fill:#263238"></path><path d="M342.78,381.39c0,.12-.72.14-1.48-.22s-1.22-.9-1.14-1,.61.27,1.32.59S342.79,381.27,342.78,381.39Z" style="fill:#263238"></path><path d="M354.3,394.55c-.07.1-.79-.24-1.61-.76s-1.44-1-1.38-1.12.78.23,1.61.75S354.36,394.44,354.3,394.55Z" style="fill:#263238"></path><rect x="320.94" y="415.11" width="61.48" height="10.9" style="fill:#22B44D"></rect><polygon points="325.53 423.85 333 456.41 369.64 456.41 377.82 423.85 325.53 423.85" style="fill:#22B44D"></polygon><path d="M382.38,426c0,.12-13.87.22-31,.22s-31-.1-31-.22,13.86-.21,31-.21S382.38,425.9,382.38,426Z" style="fill:#263238"></path><path d="M348.19,388.56c-.1.06-.52-.43-.94-1.09s-.67-1.26-.57-1.33.52.43.94,1.1S348.29,388.5,348.19,388.56Z" style="fill:#263238"></path><path d="M348.21,397.33a3.42,3.42,0,0,1,.33-1.66c.29-.87.61-1.55.73-1.52a3.49,3.49,0,0,1-.32,1.66C348.66,396.68,348.33,397.36,348.21,397.33Z" style="fill:#263238"></path><path d="M351.21,406.53a8.81,8.81,0,0,1-1.66-3.47c.11-.05.57.68,1,1.64A4.36,4.36,0,0,1,351.21,406.53Z" style="fill:#263238"></path><path d="M344.72,413.93c-.09-.07.28-.64.82-1.27s1.06-1.07,1.15-1-.28.65-.82,1.27S344.81,414,344.72,413.93Z" style="fill:#263238"></path><path d="M343.36,400.49c0,.12-.61.11-1.32,0s-1.27-.33-1.25-.44.61-.11,1.32,0S343.38,400.37,343.36,400.49Z" style="fill:#263238"></path></g><g id="freepik--Characters--inject-10"><path d="M573.31,410.12l-19.24,26.35L586.59,461c2.14-3.25-11.43-23.06-11.43-23.06l13.37-17.39Z" style="fill:#455a64"></path><g style="opacity:0.6000000000000001"><path d="M567.6,429.84a1.67,1.67,0,0,0-2.06.82,1.61,1.61,0,0,0,.8,2,1.75,1.75,0,0,0,2.18-.88,1.67,1.67,0,0,0-1.07-2" style="fill:#fff"></path></g><g style="opacity:0.6000000000000001"><path d="M554.07,436.47l2.07-2.56,30.4,24.45s1,1.73.05,2.62Z" style="fill:#fff"></path></g><path d="M575.43,438.58c-.12.15-1-.37-2.14-.45s-2.08.27-2.18.1.83-.91,2.24-.79S575.58,438.46,575.43,438.58Z" style="fill:#263238"></path><path d="M578.58,443.27c-.08.18-1-.07-2,.19s-1.74.86-1.89.73.42-1.1,1.73-1.4S578.69,443.11,578.58,443.27Z" style="fill:#263238"></path><path d="M577.5,448.6c-.17-.08.2-1,1.27-1.6s2.06-.35,2-.16-.84.3-1.71.77S577.67,448.7,577.5,448.6Z" style="fill:#263238"></path><path d="M578.46,434c-.18.09-.74-.67-1.69-1.29s-1.85-.86-1.83-1.06,1.11-.26,2.22.48S578.63,434,578.46,434Z" style="fill:#263238"></path><path d="M667,423.81l-1.15,32.62,40.67,2.05c0-3.89-22.39-12.69-22.39-12.69l1.31-21.89Z" style="fill:#455a64"></path><g style="opacity:0.6000000000000001"><path d="M673.38,443.34a1.67,1.67,0,0,0-1.25,1.84,1.59,1.59,0,0,0,1.81,1.24,1.74,1.74,0,0,0,1.31-1.94,1.65,1.65,0,0,0-2-1.09" style="fill:#fff"></path></g><g style="opacity:0.6000000000000001"><path d="M665.89,456.43l.28-3.29,38.89,3.2s1.77.87,1.5,2.14Z" style="fill:#fff"></path></g><path d="M684.76,446.19c0,.19-1,.23-2,.82s-1.57,1.4-1.75,1.31.18-1.22,1.41-1.91S684.82,446,684.76,446.19Z" style="fill:#263238"></path><path d="M690,448.3c0,.19-.84.49-1.56,1.29s-1,1.68-1.15,1.67-.27-1.15.64-2.13S690,448.11,690,448.3Z" style="fill:#263238"></path><path d="M692.09,453.32c-.18,0-.41-1,.16-2s1.51-1.45,1.59-1.28-.53.72-1,1.6S692.29,453.31,692.09,453.32Z" style="fill:#263238"></path><path d="M684.72,440.73c-.09.18-1-.14-2.12-.12s-2,.33-2.11.15.78-.84,2.11-.84S684.83,440.58,684.72,440.73Z" style="fill:#263238"></path><path d="M654.61,285s48.32,67.35,48.85,75.29-13.46,83-13.46,83l-27.59-1,5.88-73.08L618,313.05s-10.06-6.89-8.47-25.95Z" style="fill:#263238"></path><path d="M607.2,290.76c-.75,2.12,2.14,73.92,2.14,73.92s-32.9,28.91-47.79,58.24l19.62,16.54s59.94-56.17,63.34-66.23-3.42-84.76-3.42-84.76Z" style="fill:#263238"></path><path d="M609.41,293.55s0,.13.05.37.07.62.12,1.09c0,.24,0,.51.08.81s.11.61.17,1l.19,1.14.31,1.27a29.85,29.85,0,0,0,2.38,6.38,27.55,27.55,0,0,0,5.37,7.36h0L668.49,369l.07.08v.12c0,.58-.1,1.22-.15,1.86-2.29,28.05-4.35,53.36-5.81,71.21l-.17-.19,20.22.83,5.46.25,1.42.08.48,0h-.48l-1.42,0-5.47-.15-20.22-.67h-.19v-.19c1.42-17.85,3.43-43.17,5.65-71.22,0-.64.1-1.28.15-1.87l.07.2-50.24-56.2h0a27.24,27.24,0,0,1-5.38-7.49,28.94,28.94,0,0,1-2.33-6.45l-.29-1.28c-.06-.41-.12-.79-.17-1.15s-.1-.67-.15-1,0-.57-.06-.81c0-.47,0-.83-.07-1.1A1.49,1.49,0,0,1,609.41,293.55Z" style="fill:#455a64"></path><path d="M617.52,150.85a79.45,79.45,0,0,1-4.93-12.91,27.86,27.86,0,0,1-.41-13.69c.17-.68,1.75-5.27,2.45-5.28.5,0-.32,4.21,0,4.61A23.7,23.7,0,0,1,618.77,137a62.29,62.29,0,0,1-1.25,13.81" style="fill:#263238"></path><path d="M634.12,187.82a13.14,13.14,0,0,1-14.24-11.64l-4.75-42.77c-1.64-11.45,3.66-22,15.15-23.28l1.07-.06A20.68,20.68,0,0,1,653,127.89c1.37,9.93,2.75,20.93,3,26.28.49,11.09-10.5,13.44-10.5,13.44s1.37,7.3,1.69,10.54c.73,7.28-5.77,9-13.06,9.67Z" style="fill:#c78976"></path><path d="M645.49,167.61a26.76,26.76,0,0,1-14.67-3.45s4,7.86,15,6.24Z" style="fill:#ae4f32"></path><path d="M648.55,137a1.57,1.57,0,0,1-1.43,1.68,1.52,1.52,0,0,1-1.72-1.33,1.59,1.59,0,0,1,1.44-1.68A1.51,1.51,0,0,1,648.55,137Z" style="fill:#263238"></path><path d="M650.89,132.63c-.18.21-1.43-.61-3.13-.51s-2.91,1-3.1.83.08-.47.6-.9a4.35,4.35,0,0,1,2.47-.91,4.15,4.15,0,0,1,2.51.65C650.78,132.16,651,132.53,650.89,132.63Z" style="fill:#263238"></path><path d="M632.4,138.25a1.6,1.6,0,0,1-1.44,1.69,1.52,1.52,0,0,1-1.71-1.34,1.57,1.57,0,0,1,1.43-1.68A1.52,1.52,0,0,1,632.4,138.25Z" style="fill:#263238"></path><path d="M634.25,134.26c-.19.21-1.44-.61-3.14-.5s-2.9,1-3.1.82.08-.47.61-.9a4.31,4.31,0,0,1,2.46-.91,4.16,4.16,0,0,1,2.52.65C634.14,133.8,634.34,134.16,634.25,134.26Z" style="fill:#263238"></path><path d="M641.1,147a11,11,0,0,1,2.74-.66c.43-.07.83-.18.89-.48a2.15,2.15,0,0,0-.36-1.27l-1.48-3.24c-2-4.61-3.56-8.42-3.37-8.5s2,3.6,4.05,8.21l1.42,3.26a2.51,2.51,0,0,1,.32,1.69,1.07,1.07,0,0,1-.68.68,2.74,2.74,0,0,1-.73.14A11.8,11.8,0,0,1,641.1,147Z" style="fill:#263238"></path><path d="M636.15,148.46c.28,0,.39,1.81,2,3s3.61.91,3.64,1.16-.41.39-1.25.46a4.61,4.61,0,0,1-3-.87,4,4,0,0,1-1.59-2.56C635.84,148.92,636,148.45,636.15,148.46Z" style="fill:#263238"></path><path d="M634.15,128.35c-.14.48-1.85.35-3.84.71s-3.57,1-3.86.59c-.13-.2.13-.65.76-1.13a6.36,6.36,0,0,1,2.82-1.17,6.52,6.52,0,0,1,3,.18C633.82,127.79,634.21,128.13,634.15,128.35Z" style="fill:#263238"></path><path d="M649.87,126.39c-.28.41-1.48.07-2.89.13s-2.59.41-2.89,0c-.13-.19,0-.59.54-1a4.06,4.06,0,0,1,2.31-.77,4,4,0,0,1,2.34.65C649.8,125.81,650,126.2,649.87,126.39Z" style="fill:#263238"></path><path d="M616.5,141.56c-.19-.07-7.74-1.82-7.07,5.74s8.12,5.33,8.12,5.11S616.5,141.56,616.5,141.56Z" style="fill:#c78976"></path><path d="M615,149.75s-.12.11-.33.23a1.35,1.35,0,0,1-1,.11,3.29,3.29,0,0,1-1.76-2.8,4.27,4.27,0,0,1,.2-1.91,1.49,1.49,0,0,1,.9-1.1.67.67,0,0,1,.81.29c.12.2.08.36.13.37s.15-.14.06-.45a.87.87,0,0,0-.34-.45,1,1,0,0,0-.75-.13,1.87,1.87,0,0,0-1.27,1.3,4.44,4.44,0,0,0-.27,2.15c.18,1.52,1.09,2.87,2.21,3.09a1.41,1.41,0,0,0,1.19-.31C615,149.94,615,149.76,615,149.75Z" style="fill:#ae4f32"></path><path d="M646.89,115.85c1.16-.79-2.9-4.4-6-5.47-4.74-1.61-11.8-2.21-15.87-.61-4.9,1.92-8.85,4.84-10.93,9.67a29.89,29.89,0,0,0-1.86,15.5,9,9,0,0,0,1.52,4.52c1.2,1.55,3.3,2.4,3.47,4.65a3.43,3.43,0,0,0,.9,2.2c1.56,1.53,3.18-.06,3.84-1.56,1.38-3.12,1.22-6.67,1-10.08a22,22,0,0,0-1.18-7.14c-.49-1.22-1.2-2.35-1.62-3.6a4.57,4.57,0,0,1,.16-3.83,5,5,0,0,1,.6-.72,8,8,0,0,1,7.73-2.18c4.42,1.09,11.8,2.59,13.55,1,1.15-1.06,2-1.86,2.53-2.41a1.47,1.47,0,0,1,2-.06Z" style="fill:#263238"></path><path d="M646.85,176.2l2.42,14.41,10.35,96.68c-11.84,13.22-36.64,1.55-56.07,4.92l2.61-62.06s-4.95-28.45-4.61-31.51c.72-6.48,10.28-23.21,17.62-28.92Z" style="fill:#22B44D"></path><polygon points="586.08 320.88 589.13 323.36 600.84 322.12 603.51 304.71 594.79 304.7 591.81 317.49 586.08 320.88" style="fill:#c78976"></polygon><path d="M631.36,177.45a16.43,16.43,0,0,0-20.07,4.16,27.33,27.33,0,0,0-4.75,7.57c-1.93,5.17-12.68,30.69-17.94,43.13a32.05,32.05,0,0,0-2.47,14.28l3.28,58.11h16.51L609.41,248l24.41-45.93S644.53,184.5,631.36,177.45Z" style="fill:#22B44D"></path><path d="M630.82,177.18l-.35-.12-1-.37a10.94,10.94,0,0,0-1.69-.54,14.65,14.65,0,0,0-2.39-.47,14,14,0,0,0-6.7.64,15.46,15.46,0,0,0-7.27,5.37h0a27.91,27.91,0,0,0-5,8.36L602,200.64c-3.11,7.51-6.59,15.9-10.35,25-1.79,4.58-4.25,9.15-5,14.37a34.6,34.6,0,0,0-.23,8c.16,2.72.31,5.47.47,8.25.63,11.15,1.3,22.85,2,34.92.26,4.58.51,9.11.76,13.56l-.25-.24h16.51l-.25.24C607,283.35,608.21,264,609.21,248V248l0,0,17.23-32.08,4.74-8.76,1.25-2.28c.28-.51.44-.77.44-.77s-.12.28-.39.8-.67,1.3-1.2,2.3c-1.07,2-2.63,5-4.64,8.82l-17.08,32.15,0-.08c-1,16-2.14,35.32-3.43,56.67l0,.24h-17v-.25c-.26-4.45-.51-9-.77-13.56-.68-12.07-1.33-23.78-2-34.92q-.24-4.19-.46-8.25a34.39,34.39,0,0,1,.25-8.06,32.05,32.05,0,0,1,2.11-7.53q1.47-3.54,2.89-6.94l10.41-25c1.57-3.74,3-7.27,4.42-10.56a28.25,28.25,0,0,1,5.14-8.42h0a15.65,15.65,0,0,1,7.43-5.42,14.14,14.14,0,0,1,6.79-.58,14.51,14.51,0,0,1,2.4.51,10.55,10.55,0,0,1,1.69.58l1,.41Z" style="fill:#263238"></path><path d="M607.2,290.76s2-.05,3.64-12.05,4-31.42,4-31.42l16-39.35L609.41,248Z" style="opacity:0.30000000000000004"></path><path d="M152.59,430.6l-6.93,15.49s18.2,6.84,18.24,10.85L122.38,456l11.27-27.52Z" style="fill:#455a64"></path><g style="opacity:0.6000000000000001"><path d="M129.67,442.9a1.71,1.71,0,0,0-1.28,1.9,1.63,1.63,0,0,0,1.86,1.28,1.8,1.8,0,0,0,1.35-2,1.71,1.71,0,0,0-2.09-1.12" style="fill:#fff"></path></g><g style="opacity:0.6000000000000001"><path d="M122.38,456l1-2.51,39.19,1.42a2.9,2.9,0,0,1,1.51,2.31Z" style="fill:#fff"></path></g><path d="M145.81,445.87c0,.2-1,.24-2.08.85s-1.62,1.44-1.8,1.35.18-1.26,1.45-2S145.87,445.68,145.81,445.87Z" style="fill:#263238"></path><path d="M149.34,447.44c0,.2-.87.51-1.6,1.34s-1,1.73-1.19,1.71-.28-1.18.66-2.19S149.35,447.25,149.34,447.44Z" style="fill:#263238"></path><path d="M151.23,452.62c-.18,0-.42-1,.17-2.1S153,449,153,449.2s-.54.75-1,1.65S151.44,452.61,151.23,452.62Z" style="fill:#263238"></path><path d="M146.58,443.27c-.16.13-.86-.56-1.93-1s-2-.56-2-.76,1.09-.45,2.34.12S146.74,443.18,146.58,443.27Z" style="fill:#263238"></path><path d="M146.85,439.49a4,4,0,0,1-1.93-.85,9.33,9.33,0,0,1-1.75-1.49,10.37,10.37,0,0,1-.85-1.06,2.76,2.76,0,0,1-.39-.71.89.89,0,0,1,.35-1,1.11,1.11,0,0,1,1-.07,2.72,2.72,0,0,1,.68.41,8.36,8.36,0,0,1,1,.93,7.06,7.06,0,0,1,1.27,1.94,3.46,3.46,0,0,1,.46,2.05c-.11,0-.29-.75-.91-1.82a8.1,8.1,0,0,0-1.3-1.72,7.92,7.92,0,0,0-1-.82c-.36-.28-.7-.43-.89-.3s-.08.08,0,.24a2,2,0,0,0,.29.51,11.94,11.94,0,0,0,.76,1,12.86,12.86,0,0,0,1.56,1.52A15.08,15.08,0,0,1,146.85,439.49Z" style="fill:#263238"></path><path d="M146.49,439.65a3.27,3.27,0,0,1,.29-2.08,6.74,6.74,0,0,1,1.18-2,6.46,6.46,0,0,1,1-1,1.76,1.76,0,0,1,1.66-.44,1,1,0,0,1,.57.88,3.15,3.15,0,0,1-.11.8,4.61,4.61,0,0,1-.56,1.3,4.79,4.79,0,0,1-1.68,1.63c-1.19.68-2.07.56-2.06.49a16.43,16.43,0,0,0,1.78-.91,4.85,4.85,0,0,0,1.4-1.55,4.15,4.15,0,0,0,.44-1.13c.12-.43.11-.83-.06-.86a1.24,1.24,0,0,0-1,.35,6.86,6.86,0,0,0-.93.83,7.87,7.87,0,0,0-1.21,1.77C146.7,438.88,146.6,439.67,146.49,439.65Z" style="fill:#263238"></path><path d="M87.4,410.82l-16.7,26.5,32.74,21.32C105.28,455.4,91,437.31,91,437.31l11.66-17.52Z" style="fill:#455a64"></path><g style="opacity:0.6000000000000001"><path d="M83.22,430.08a1.58,1.58,0,0,0-1.91.92,1.53,1.53,0,0,0,.9,1.91,1.68,1.68,0,0,0,2-1A1.59,1.59,0,0,0,83.07,430" style="fill:#fff"></path></g><g style="opacity:0.6000000000000001"><path d="M70.7,437.32l1.81-2.59,30.72,21.41s1,1.59.21,2.5Z" style="fill:#fff"></path></g><path d="M91.3,437.93c-.11.16-1-.29-2.08-.29s-2,.4-2.08.24.73-.93,2.09-.9S91.43,437.81,91.3,437.93Z" style="fill:#263238"></path><path d="M94.62,442.21c-.06.18-.93,0-1.92.32s-1.6.94-1.76.82.34-1.08,1.57-1.45S94.71,442.06,94.62,442.21Z" style="fill:#263238"></path><path d="M93.93,447.39c-.17-.07.13-1,1.11-1.62s1.95-.46,1.93-.29-.78.35-1.58.86S94.1,447.47,93.93,447.39Z" style="fill:#263238"></path><path d="M93.89,433.38c-.16.11-.75-.59-1.69-1.12s-1.84-.7-1.83-.89,1-.32,2.16.31S94.05,433.31,93.89,433.38Z" style="fill:#263238"></path><path d="M152.67,281.26s27.79,58.46,32.37,69.42c3.18,7.61,5.2,11.13,1.59,20.35s-31.55,66.8-31.55,66.8l-28.82-2.1,29-67.23-8.63-32.3L124.2,292.49Z" style="fill:#263238"></path><path d="M106.58,276.13s-4.3-1.19-4.42.83c-.46,8.08-1.3,8.05,0,22.75a84.26,84.26,0,0,0,3.6,12.76l4.17,10.07,5.92,42.79-4.16,10.83s-6.38,3.09-8.78,6.3-27.42,40.77-27.42,40.77L98.2,436.07s46.88-54.75,49.68-65.57,1.18-65.58,1.18-65.58l-2-22.86Z" style="fill:#263238"></path><path d="M147.51,301.57a1.65,1.65,0,0,1,.05.38c0,.28,0,.66.08,1.14.06,1,.14,2.48.24,4.35.2,3.79.45,9.26.69,16s.49,14.84.57,23.8c.05,4.48,0,9.18-.13,14.06q-.09,1.83-.18,3.69c-.13,1.24-.17,2.49-.38,3.75-.12.62-.21,1.26-.35,1.89l-.33.92-.41.88a36.1,36.1,0,0,1-1.9,3.38c-2.74,4.4-5.72,8.48-8.63,12.4s-5.78,7.64-8.55,11.17c-5.53,7-10.61,13.31-14.91,18.55s-7.82,9.43-10.27,12.32l-2.84,3.32-.74.85-.27.28a2.44,2.44,0,0,1,.22-.31c.18-.22.42-.51.71-.89l2.76-3.38c2.42-2.95,5.88-7.2,10.14-12.43s9.32-11.55,14.82-18.61c2.76-3.53,5.62-7.26,8.52-11.17s5.87-8,8.6-12.37a38,38,0,0,0,1.87-3.33l.4-.85.31-.87c.14-.61.22-1.23.34-1.83.21-1.23.25-2.48.38-3.71s.12-2.46.18-3.67c.17-4.86.2-9.56.16-14,0-8.95-.26-17-.46-23.78s-.4-12.22-.52-16c-.06-1.87-.11-3.33-.15-4.36,0-.48,0-.85,0-1.13A3.81,3.81,0,0,1,147.51,301.57Z" style="fill:#455a64"></path><path d="M107.78,148.52c.14-1.59-.53-3.29.12-4.76,1.07-2.44,4.76-2.4,6.54-4.39,2.55-2.85-.13-8.06,2.49-10.85,2.31-2.47,5.46-2.15,7.48-4.86,1-1.37,0-4.45,3.46-5.82,2.18-.87,5.09-.62,7.3-1.4,3.18-1.12,4.17-3.36,7.41-4.31,3.89-1.13,7.26,3.49,11.31,3.56,3.52.07,7-3.34,10.15-1.88,2.57,1.17,3.09,4.82,5.54,6.22,2.13,1.22,5.19.43,6.95,2.12s.94,5.13,2.49,7.2,5.14,2.27,6,4.69c1.05,2.83-2.65,5.79-1.65,8.64.4,1.12,1.45,1.88,2.25,2.77a7.69,7.69,0,0,1,1.69,7,7.81,7.81,0,0,1-4.89,5.27l-43,14a20.63,20.63,0,0,1-16.87,2.13,11.67,11.67,0,0,1-5-2.93c-1.62-1.74-2.42-4.14-4.21-5.71-1.51-1.32-3.53-1.87-5.37-2.69s-3.7-2.13-4.1-4.09C103.19,154.85,107.47,152.11,107.78,148.52Z" style="fill:#263238"></path><path d="M137.56,125.45c-2.51-1.59-3.11-5.29-1.75-7.93A9.68,9.68,0,0,1,143,112.8a13.68,13.68,0,0,1,11.78,3.91c1.62,1.66,2.93,3.84,5.12,4.6,1.93.67,4.07.07,6.1.33a9.17,9.17,0,0,1,6.43,4.64,19.71,19.71,0,0,1,2.29,7.83c.3,2.5.49,5.24,2.22,7.06s4.36,2.15,6.46,3.41A8.86,8.86,0,0,1,186,156.66c-.84,1.21-2,2.32-2.13,3.79s.78,2.53,1.19,3.81a6,6,0,0,1-5.11,7.41c-1.74.1-3.6-.58-5.17.2s-2.12,2.64-3.12,4.06a7.45,7.45,0,0,1-9.09,2.35c-1.28-.63-2.49-1.66-3.92-1.57s-2.54,1.31-3.94,1.58c-1.83.36-3.56-1-4.65-2.51s-1.85-3.29-3.24-4.53c-1.83-1.62-4.39-2-6.7-2.82A18.88,18.88,0,0,1,129.48,142" style="fill:#263238"></path><path d="M131,184.94,128.34,136a4.14,4.14,0,0,1,3.59-4.32l21.88-6.2c7-.94,12,7.61,12.63,14.68.71,7.86,1.28,17.48.52,23.38-1.54,11.86-10.55,13.62-10.55,13.62s.22,10.64.3,14.93l-.79,14.77Z" style="fill:#ffbe9d"></path><path d="M164,149.86a1.52,1.52,0,0,1-1.42,1.57,1.45,1.45,0,0,1-1.6-1.32,1.51,1.51,0,0,1,1.41-1.57A1.45,1.45,0,0,1,164,149.86Z" style="fill:#263238"></path><path d="M164.49,145.23c-.18.21-1.35-.61-3-.56s-2.8.9-3,.7.1-.44.61-.84a4.19,4.19,0,0,1,2.38-.81,4,4,0,0,1,2.38.7C164.4,144.79,164.58,145.14,164.49,145.23Z" style="fill:#263238"></path><path d="M148.33,149.86a1.52,1.52,0,0,1-1.42,1.57,1.45,1.45,0,0,1-1.6-1.32,1.51,1.51,0,0,1,1.41-1.57A1.45,1.45,0,0,1,148.33,149.86Z" style="fill:#263238"></path><path d="M148.48,146c-.18.2-1.35-.61-3-.56s-2.8.9-3,.7.09-.44.6-.84a4.19,4.19,0,0,1,2.38-.81,4,4,0,0,1,2.38.7C148.39,145.55,148.57,145.9,148.48,146Z" style="fill:#263238"></path><path d="M154.74,157.91a10.36,10.36,0,0,1,2.63-.56c.42,0,.81-.14.87-.43a2.17,2.17,0,0,0-.31-1.23l-1.32-3.13c-1.84-4.46-3.18-8.13-3-8.21s1.81,3.49,3.65,8l1.27,3.15a2.39,2.39,0,0,1,.26,1.63,1,1,0,0,1-.67.63,2.78,2.78,0,0,1-.7.12A11.09,11.09,0,0,1,154.74,157.91Z" style="fill:#263238"></path><path d="M156.41,177.16a30.12,30.12,0,0,1-15.93-3.77s4.21,8.21,16,6.77Z" style="fill:#eb996e"></path><path d="M154.61,161.79a14.16,14.16,0,0,0-4.75-2.08c-.85-.06-.27.89-.71,1.65a2.39,2.39,0,0,0,2.78,3.51,5.84,5.84,0,0,0,2.36-1.56,1.9,1.9,0,0,0,.5-.62.83.83,0,0,0-.09-.82" style="fill:#eb996e"></path><path d="M149,139.26c-.15.45-1.78.29-3.68.57s-3.44.85-3.71.46c-.11-.19.14-.61.75-1.06a6.29,6.29,0,0,1,2.73-1,6.2,6.2,0,0,1,2.9.26C148.71,138.71,149.07,139.05,149,139.26Z" style="fill:#263238"></path><path d="M163.76,139.64c-.28.38-1.41,0-2.76.05s-2.49.32-2.76-.06c-.12-.19,0-.56.54-.93A3.82,3.82,0,0,1,161,138a3.9,3.9,0,0,1,2.22.68C163.71,139.08,163.88,139.46,163.76,139.64Z" style="fill:#263238"></path><path d="M174.39,137.68a8.12,8.12,0,0,0-3.11-4.46c-.85-.56-1.84-.9-2.63-1.53-1.7-1.38-2.1-3.78-3.15-5.7a8.93,8.93,0,0,0-6.8-4.51c-2.34-.24-4.75.47-7-.11-1.68-.42-3.15-1.52-4.86-1.84-3.33-.64-6.42,1.75-8.83,4.13,0,2.38,1.89,4,3.71,5.5a8.26,8.26,0,0,0,6.69,1.76c1.81-.33,3.81-1.25,5.38-.28s1.72,3.51,3.19,4.79c2.09,1.82,5.43.11,8.09.9,2.05.61,3.34,2.57,4.7,4.22s3.42,3.23,5.47,2.62A24.12,24.12,0,0,0,174.39,137.68Z" style="fill:#263238"></path><path d="M149.42,127.62c-1.49-.42-4.54-1.39-5.34-2.68a9.12,9.12,0,0,0-7.93-4.56,7.51,7.51,0,0,0-6.77,6,10.78,10.78,0,0,0-9.29,6,10,10,0,0,0-.59,1.39,8.25,8.25,0,0,0-.56,6.91c.52,1.34,1.4,2.84.71,4.11s-2.49,1.32-3.88,1.8a5.46,5.46,0,0,0-3.44,6.1,6.66,6.66,0,0,1,.43,2.69,5.78,5.78,0,0,1-1.6,2.32,6.8,6.8,0,0,0,4,11.07,8.74,8.74,0,0,1,3.13.72c1.06.64,1.52,1.91,2.26,2.9a5.88,5.88,0,0,0,6.36,2,5.61,5.61,0,0,0,1.27-.64,4.23,4.23,0,0,0,3.73,1.65l-.43-24.9a2.05,2.05,0,0,0,1.51,1.19c4,.9,4.58-7.33,3.68-9.57a22.86,22.86,0,0,0,4-4.21,16.63,16.63,0,0,0,1.84-8.08C143.94,129.84,150.08,127.81,149.42,127.62Z" style="fill:#263238"></path><path d="M132.56,152.45c-.13-2.53-3.23-3.07-5.42-1.81-1.2.7-2.12,2.1-2,4.79.29,7.16,7.42,5.39,7.43,5.18S132.7,155.41,132.56,152.45Z" style="fill:#ffbe9d"></path><path d="M130.26,158s-.12.09-.33.19a1.18,1.18,0,0,1-.93.06,3.08,3.08,0,0,1-1.55-2.71,4.19,4.19,0,0,1,.28-1.8,1.47,1.47,0,0,1,.9-1,.65.65,0,0,1,.75.31c.1.2.06.35.1.36s.15-.13.08-.42a.79.79,0,0,0-.3-.44,1,1,0,0,0-.7-.15,1.75,1.75,0,0,0-1.25,1.16,4.13,4.13,0,0,0-.36,2c.11,1.45.9,2.77,2,3a1.38,1.38,0,0,0,1.14-.23C130.25,158.16,130.28,158,130.26,158Z" style="fill:#eb996e"></path><path d="M151.52,164.77s-.19-.08-.52-.12a3.11,3.11,0,0,1-1.29-.42c-1.18-.56-.28-2.45-.08-4.22,0-.1.05-.13,0-.1s0,0,0,0l.14,0h0c-.05.34.52-.48.26-.46l0,0-.05,0h0l0,0-.08,0-.07,0h0c0-.11-.41.93-.21.49h.05l.31.13,1.16.49,2,.79a6.93,6.93,0,0,0,1.89.6,8,8,0,0,0-1.74-1l-1.94-.9-1.16-.51-.3-.14h-.05c.2-.43-.25.61-.21.49h0l.07,0,.08,0,0,0h0s0,0,0,0a.61.61,0,0,1,.05-.12.43.43,0,0,1,.07-.1c-.06,0,0-.09,0-.11.07-.23,0-.13,0-.15h0l-.19-.06a.58.58,0,0,0-.34,0,.63.63,0,0,0-.32.48c-.15.9-.3,1.77-.43,2.6a2.38,2.38,0,0,0,.08,1.24,1.7,1.7,0,0,0,.76.82,2.88,2.88,0,0,0,1.48.3C151.33,164.84,151.52,164.8,151.52,164.77Z" style="fill:#263238"></path><path d="M129.49,175.41l.78,5.46c-7.23,3.39-17.47,21.92-20.39,32.06s-11.11,55.74-11.11,55.74l-.59.41a5.35,5.35,0,0,0-1,8.19h0a11.45,11.45,0,0,0,7.72,3.68L150.4,284l8.51,2.08-3.62-48.65s8.25-6.41,7-20.64c-.66-7.51-3-22.45-3-22.45l-1.22-8.27a64.45,64.45,0,0,0,.68-6.67,1.42,1.42,0,0,0-1.23-1.31l-26.35-4A1.45,1.45,0,0,0,129.49,175.41Z" style="fill:#22B44D"></path><path d="M135.12,181.18a8.55,8.55,0,0,1-.33-3.17,8.45,8.45,0,0,1,.39-3.16,11.69,11.69,0,0,1,.13,3.17A11.5,11.5,0,0,1,135.12,181.18Z" style="fill:#263238"></path><path d="M144,182.61a20.57,20.57,0,0,1,0-6.52,10.21,10.21,0,0,1,.28,3.26A10.6,10.6,0,0,1,144,182.61Z" style="fill:#263238"></path><path d="M152.19,183.73a11.62,11.62,0,0,1,0-3,12.28,12.28,0,0,1,.3-3,7.55,7.55,0,0,1,.22,3.06A7.47,7.47,0,0,1,152.19,183.73Z" style="fill:#263238"></path><path d="M144.85,195.3c-3.53-4.83-10.07-9.57-17.58-4.16-5.36,3.86-8,8.4-11.78,22.44-9.28,34.07-8.24,34.78-7.09,36.25s42,41.32,42,41.32l13.22-12.28-29.72-35.8s13.79-36.39,12-43.31C145.64,198.71,145.54,196.25,144.85,195.3Z" style="fill:#22B44D"></path><path d="M136.89,189.21l.27.06.81.2a12.19,12.19,0,0,1,3,1.28,9.64,9.64,0,0,1,3.61,3.74,14,14,0,0,1,1.54,6.86,27.82,27.82,0,0,1-1.51,8.61c-1,3-2,6.3-3.1,9.78l-7.37,23.4-.05-.22,29.75,35.78.16.19-.19.17-4.38,4.07-8.84,8.21-.18.16-.17-.17-28.3-27.73c-4.3-4.24-8.39-8.26-12.15-12.05-.47-.48-.93-1-1.39-1.45a2.9,2.9,0,0,1-.65-1.91,20.58,20.58,0,0,1,.29-3.81c.38-2.46.86-4.78,1.35-7,2-8.81,3.93-15.82,5.24-20.66.66-2.39,1.18-4.26,1.53-5.54l.41-1.44c.1-.32.16-.48.16-.48s0,.17-.11.5-.21.82-.36,1.44c-.34,1.29-.82,3.17-1.45,5.57-1.25,4.85-3.12,11.87-5.08,20.69-.48,2.2-.95,4.53-1.31,7a20.18,20.18,0,0,0-.27,3.73,2.46,2.46,0,0,0,.57,1.69c.43.46.9.93,1.37,1.41,3.77,3.78,7.86,7.78,12.17,12L150.58,291h-.36l8.84-8.21,4.38-4.07,0,.35-29.7-35.81-.08-.1,0-.12c2.72-8.55,5.23-16.4,7.46-23.38,2.06-7,4.77-13,4.69-18.27a14.11,14.11,0,0,0-1.45-6.76,9.67,9.67,0,0,0-3.5-3.72,12.86,12.86,0,0,0-2.93-1.33l-.8-.23Z" style="fill:#263238"></path><path d="M550.17,191.76l36.64,9.63a13,13,0,0,1,9.7,12.57V320.88H528.78V208S531.36,192.87,550.17,191.76Z" style="fill:#455a64"></path><path d="M576.07,201.9l-.34,0-1,.06a27.75,27.75,0,0,0-3.73.56,24,24,0,0,0-5.6,2,17.06,17.06,0,0,0-6,4.92,12.76,12.76,0,0,0-1.19,1.88,13.62,13.62,0,0,0-.91,2.14,10.36,10.36,0,0,0-.3,1.16,7.82,7.82,0,0,0-.23,1.19,17.31,17.31,0,0,0-.16,2.52c0,3.46,0,7.15,0,11,0,7.78,0,16.33,0,25.3,0,17.94-.06,34.18-.08,46,0,5.86-.06,10.61-.08,13.94,0,1.62,0,2.89,0,3.78,0,.42,0,.74,0,1s0,.34,0,.34a1.55,1.55,0,0,1,0-.34c0-.25,0-.57,0-1,0-.89,0-2.16-.05-3.78,0-3.33,0-8.08-.08-13.94,0-11.79-.05-28-.07-46,0-9,0-17.52,0-25.3,0-3.89,0-7.59,0-11a18.39,18.39,0,0,1,.17-2.57,8.65,8.65,0,0,1,.25-1.23,9.47,9.47,0,0,1,.32-1.19,13.92,13.92,0,0,1,1-2.19,13.38,13.38,0,0,1,1.23-1.92,17.38,17.38,0,0,1,6.2-5,23.44,23.44,0,0,1,5.69-1.95,23.9,23.9,0,0,1,3.76-.46h1A1.8,1.8,0,0,1,576.07,201.9Z" style="fill:#263238"></path><polygon points="157.66 320.62 164.49 335.55 196.73 335.55 202.71 320.62 157.66 320.62" style="fill:#455a64"></polygon><polygon points="157.66 320.62 160.18 326.11 200.51 326.11 202.71 320.62 157.66 320.62" style="opacity:0.30000000000000004"></polygon><polygon points="533.86 320.62 540.69 335.55 572.93 335.55 578.91 320.62 533.86 320.62" style="fill:#455a64"></polygon><polygon points="533.86 320.62 536.37 326.11 576.71 326.11 578.91 320.62 533.86 320.62" style="opacity:0.30000000000000004"></polygon><path d="M196.73,191.5l-36.64,9.62a13,13,0,0,0-9.69,12.57V320.62h67.73V207.73S215.55,192.6,196.73,191.5Z" style="fill:#455a64"></path><path d="M196.73,166.73V191.5s19.19,5.9,21.4,20.66V235l159.67.54V169.24a5.7,5.7,0,0,0-5.34-5.7c-25.38-1.59-133.86-8-169.63-3.67A6.92,6.92,0,0,0,196.73,166.73Z" style="fill:#455a64"></path><path d="M377.8,171.11v64.46l153.84.57s-4-29.25,18.53-44.38l.94-35.68s-78.93,7-94,8.49c-12.06,1.18-55.81,0-72.66-.48A6.75,6.75,0,0,0,377.8,171.11Z" style="fill:#455a64"></path><path d="M543.89,236.14c1.57,2.16,12,9.18,12,9.18H190.1l28-10.29Z" style="fill:#455a64"></path><rect x="196.73" y="278.81" width="359.12" height="41.8" style="fill:#455a64"></rect><rect x="190.52" y="245.32" width="365.33" height="33.49" style="fill:#455a64"></rect><path d="M555.85,278.81q0-1.11-.1-33.49l.1.1-365.31.16h0l.26-.26v33.49l-.26-.26,259.41.11,105.92.15L450.12,279l-259.6.11h-.26v-34h.28l365.31.15H556v.11Q555.86,277.71,555.85,278.81Z" style="fill:#263238"></path><path d="M555.85,245.32l-.39-.16-1.16-.48-4.52-2-17.42-7.58h0l-159.26.13-155-.12h.05l-20.72,7.54-5.47,2-1.41.49-.48.16.47-.19,1.39-.54,5.45-2,20.67-7.66h0l155-.12,159.26.13h.06l17.36,7.69,4.5,2,1.14.52Z" style="fill:#263238"></path><path d="M377.8,235.57a2.29,2.29,0,0,1,.15.69c.07.52.16,1.17.27,2,.21,1.71.56,4.09.78,7.12v0c0,3.65,0,8,.05,12.77,0,9.6-.07,17.8-.17,21h-.18a10.64,10.64,0,0,1,.09-1.57,9.11,9.11,0,0,1,.09,1.57h-.18c-.1-3.21-.17-11.41-.17-21,0-4.73,0-9.12.05-12.77v0c-.18-2.88-.47-5.37-.6-7.05-.07-.8-.12-1.45-.16-2A3.39,3.39,0,0,1,377.8,235.57Z" style="fill:#263238"></path><path d="M218.13,235a2.39,2.39,0,0,1,0-.58c0-.44,0-1,0-1.66,0-1.51,0-3.58,0-6.1s0-5.64-.05-9c0-1.7-.07-3.48-.19-5.33s-.22-3.76-.52-5.68a18.6,18.6,0,0,0-4.62-9.72,17.06,17.06,0,0,0-7.77-4.19,34.81,34.81,0,0,0-6-1c-1.43-.13-2.23-.16-2.23-.2a2.39,2.39,0,0,1,.58,0c.38,0,.94,0,1.66,0a30.79,30.79,0,0,1,6.06.88,17.18,17.18,0,0,1,8,4.2,18.84,18.84,0,0,1,4.79,10c.31,2,.41,3.88.52,5.73s.14,3.65.16,5.35c0,3.41,0,6.48-.06,9.06s-.12,4.66-.17,6.09c0,.68-.06,1.23-.09,1.66A2.23,2.23,0,0,1,218.13,235Z" style="fill:#263238"></path><path d="M170.84,201.64a1.19,1.19,0,0,1,.33,0h1a25.42,25.42,0,0,1,3.77.47,23.45,23.45,0,0,1,5.68,1.94,17.4,17.4,0,0,1,6.2,5,12.67,12.67,0,0,1,1.23,1.93,13,13,0,0,1,1,2.19,7.71,7.71,0,0,1,.32,1.19,8.38,8.38,0,0,1,.25,1.23,18.19,18.19,0,0,1,.18,2.57c0,3.46,0,7.15,0,11,0,7.78,0,16.33,0,25.31,0,17.94-.06,34.18-.08,46,0,5.86-.06,10.61-.08,13.93,0,1.62,0,2.89-.05,3.79,0,.41,0,.74,0,1a1.39,1.39,0,0,1,0,.33,1.39,1.39,0,0,1,0-.33c0-.25,0-.58,0-1,0-.9,0-2.17-.05-3.79,0-3.32,0-8.07-.08-13.93,0-11.79-.05-28-.08-46,0-9,0-17.53,0-25.31,0-3.88,0-7.58,0-11a18.7,18.7,0,0,0-.15-2.51,8.22,8.22,0,0,0-.24-1.2,7.6,7.6,0,0,0-.3-1.16,13.12,13.12,0,0,0-.91-2.13,11.94,11.94,0,0,0-1.18-1.88,17.32,17.32,0,0,0-6-4.93,24.54,24.54,0,0,0-5.59-2,27.5,27.5,0,0,0-3.74-.55l-1-.06A1.68,1.68,0,0,1,170.84,201.64Z" style="fill:#263238"></path><path d="M150.87,320.43c33.53,0,371.45.19,405,.19" style="fill:#455a64"></path><path d="M555.85,320.62c0,.14-90.66.21-202.48.16s-202.5-.21-202.5-.35,90.65-.22,202.5-.17S555.85,320.47,555.85,320.62Z" style="fill:#263238"></path><path d="M232.67,259a5.71,5.71,0,0,1-.35-1.93,23.39,23.39,0,0,1,.1-4.73,24,24,0,0,1,1-4.61,6.26,6.26,0,0,1,.8-1.79c.15.06-.9,2.85-1.32,6.47S232.83,259,232.67,259Z" style="fill:#263238"></path><path d="M238.4,264.74a11.35,11.35,0,0,1-.74-2.68,50.13,50.13,0,0,1-.9-6.63,49,49,0,0,1,0-6.7,12.65,12.65,0,0,1,.37-2.75,18.25,18.25,0,0,1,0,2.76c0,1.71,0,4.06.13,6.65s.48,4.92.74,6.61A20.42,20.42,0,0,1,238.4,264.74Z" style="fill:#263238"></path><path d="M377.62,236.28c-.15,0-.26-15.12-.26-33.77s.11-33.77.26-33.77.26,15.12.26,33.77S377.76,236.28,377.62,236.28Z" style="fill:#263238"></path><path d="M223.57,181.33a18.48,18.48,0,0,1-2,1.92c-1.24,1.16-2.91,2.82-4.62,4.77s-3.12,3.83-4.1,5.21a19,19,0,0,1-1.64,2.23,11.63,11.63,0,0,1,1.33-2.43,46.06,46.06,0,0,1,4-5.36,44.44,44.44,0,0,1,4.76-4.69A11.8,11.8,0,0,1,223.57,181.33Z" style="fill:#263238"></path><path d="M219.82,194.56a10.37,10.37,0,0,1-3.1,1.13,10.52,10.52,0,0,1-3.25.63,10.51,10.51,0,0,1,3.11-1.13A11.19,11.19,0,0,1,219.82,194.56Z" style="fill:#263238"></path><path d="M327.61,196.89a1.32,1.32,0,0,1,.75-.19,3.29,3.29,0,0,1,2,.62,3.08,3.08,0,0,1,1.33,2.84,3.31,3.31,0,0,1-6,1.71,3.11,3.11,0,0,1-.36-3.12,3.26,3.26,0,0,1,1.4-1.59,1.42,1.42,0,0,1,.74-.24s-.25.13-.63.41a3.29,3.29,0,0,0-1.16,1.56,2.72,2.72,0,0,0,.39,2.68,2.85,2.85,0,0,0,5.15-1.46,2.75,2.75,0,0,0-1.08-2.49,3.32,3.32,0,0,0-1.81-.72C327.89,196.87,327.62,196.93,327.61,196.89Z" style="fill:#263238"></path><path d="M338.77,195.23a11.8,11.8,0,0,0-4.42,1.22,12.1,12.1,0,0,0-3.33,3.18,2.75,2.75,0,0,1,.56-1.3,7.34,7.34,0,0,1,2.51-2.33,7.21,7.21,0,0,1,3.28-.95A2.63,2.63,0,0,1,338.77,195.23Z" style="fill:#263238"></path><path d="M333.7,206.48c-.15,0-.52-1.13-1.37-2.33s-1.8-2-1.71-2.09a4,4,0,0,1,2.14,1.79A4.07,4.07,0,0,1,333.7,206.48Z" style="fill:#263238"></path><path d="M325.86,199.39c-.09,0-.24-.47-.67-1.15a6.67,6.67,0,0,0-5.14-3.07c-.8,0-1.31.05-1.33,0a2.37,2.37,0,0,1,1.33-.33,6,6,0,0,1,5.46,3.27A2.37,2.37,0,0,1,325.86,199.39Z" style="fill:#263238"></path><path d="M261.68,196.89a1.32,1.32,0,0,1,.75-.19,3.25,3.25,0,0,1,2,.62,3.09,3.09,0,0,1,1.34,2.84,3.31,3.31,0,0,1-6,1.71,3.11,3.11,0,0,1-.36-3.12,3.21,3.21,0,0,1,1.4-1.59,1.4,1.4,0,0,1,.73-.24s-.24.13-.62.41a3.36,3.36,0,0,0-1.17,1.56,2.75,2.75,0,0,0,.4,2.68,2.84,2.84,0,0,0,5.14-1.46,2.71,2.71,0,0,0-1.08-2.49,3.27,3.27,0,0,0-1.8-.72C262,196.87,261.69,196.93,261.68,196.89Z" style="fill:#263238"></path><path d="M272.84,195.23a9.38,9.38,0,0,0-7.75,4.4c-.06,0,.08-.56.56-1.3a7.34,7.34,0,0,1,2.51-2.33,7.21,7.21,0,0,1,3.28-.95A2.63,2.63,0,0,1,272.84,195.23Z" style="fill:#263238"></path><path d="M267.76,206.48c-.15,0-.51-1.13-1.36-2.33s-1.8-2-1.72-2.09a4,4,0,0,1,2.15,1.79A4,4,0,0,1,267.76,206.48Z" style="fill:#263238"></path><path d="M259.92,199.39c-.08,0-.24-.47-.66-1.15a6.71,6.71,0,0,0-5.15-3.07c-.8,0-1.3.05-1.32,0a2.37,2.37,0,0,1,1.33-.33,6,6,0,0,1,5.46,3.27C260,198.84,260,199.38,259.92,199.39Z" style="fill:#263238"></path><path d="M489.19,197.34a1.42,1.42,0,0,1,.76-.19,3.26,3.26,0,0,1,2,.62,3.1,3.1,0,0,1,1.34,2.84,3.31,3.31,0,0,1-6,1.71,3.08,3.08,0,0,1-.36-3.12,3.2,3.2,0,0,1,1.39-1.59,1.45,1.45,0,0,1,.74-.24s-.24.13-.63.41a3.36,3.36,0,0,0-1.16,1.56,2.72,2.72,0,0,0,.4,2.68,2.84,2.84,0,0,0,5.14-1.46,2.71,2.71,0,0,0-1.08-2.49,3.27,3.27,0,0,0-1.81-.72C489.47,197.32,489.2,197.39,489.19,197.34Z" style="fill:#263238"></path><path d="M500.36,195.68a9.44,9.44,0,0,0-7.75,4.4c-.06,0,.08-.56.56-1.3a7.3,7.3,0,0,1,2.5-2.33,7.38,7.38,0,0,1,3.29-.95A2.76,2.76,0,0,1,500.36,195.68Z" style="fill:#263238"></path><path d="M495.28,206.93c-.15,0-.51-1.13-1.36-2.33s-1.81-2-1.72-2.09a5.32,5.32,0,0,1,3.08,4.42Z" style="fill:#263238"></path><path d="M487.44,199.84c-.08,0-.24-.46-.66-1.14a6.69,6.69,0,0,0-2.21-2.15,6.79,6.79,0,0,0-2.94-.93c-.8-.05-1.3,0-1.32,0a2.32,2.32,0,0,1,1.33-.32,6,6,0,0,1,5.46,3.26C487.47,199.3,487.5,199.83,487.44,199.84Z" style="fill:#263238"></path><path d="M423.26,197.34a1.36,1.36,0,0,1,.75-.19,3.29,3.29,0,0,1,2,.62,3.09,3.09,0,0,1,1.33,2.84,3.31,3.31,0,0,1-6,1.71,3.1,3.1,0,0,1-.35-3.12,3.2,3.2,0,0,1,1.39-1.59,1.42,1.42,0,0,1,.74-.24s-.25.13-.63.41a3.29,3.29,0,0,0-1.16,1.56,2.72,2.72,0,0,0,.39,2.68,2.85,2.85,0,0,0,5.15-1.46,2.73,2.73,0,0,0-1.08-2.49,3.3,3.3,0,0,0-1.81-.72C423.54,197.32,423.27,197.39,423.26,197.34Z" style="fill:#263238"></path><path d="M434.43,195.68a11.7,11.7,0,0,0-4.43,1.23,12,12,0,0,0-3.33,3.17,2.79,2.79,0,0,1,.56-1.3A7.4,7.4,0,0,1,433,195.5,2.82,2.82,0,0,1,434.43,195.68Z" style="fill:#263238"></path><path d="M429.35,206.93c-.15,0-.52-1.13-1.37-2.33s-1.8-2-1.71-2.09a4,4,0,0,1,2.14,1.79A4.07,4.07,0,0,1,429.35,206.93Z" style="fill:#263238"></path><path d="M421.51,199.84c-.09,0-.24-.46-.67-1.14a6.55,6.55,0,0,0-2.2-2.15,6.79,6.79,0,0,0-2.94-.93c-.8-.05-1.31,0-1.33,0a2.36,2.36,0,0,1,1.33-.32,6,6,0,0,1,5.47,3.26A2.42,2.42,0,0,1,421.51,199.84Z" style="fill:#263238"></path><path d="M550.75,190.65s-.11.15-.35.38l-1.1,1c-.48.42-1.07.94-1.7,1.6s-1.4,1.34-2.14,2.22l-1.2,1.33c-.41.47-.79,1-1.21,1.52-.87,1-1.67,2.22-2.54,3.46a54,54,0,0,0-7.73,17.94c-.3,1.48-.62,2.88-.78,4.22-.09.66-.2,1.3-.26,1.92s-.1,1.22-.15,1.79c-.13,1.14-.11,2.17-.14,3.08a22.46,22.46,0,0,0,0,2.33l0,1.48a3.09,3.09,0,0,1,0,.52,1.71,1.71,0,0,1-.08-.52c0-.39-.08-.88-.13-1.47a20.11,20.11,0,0,1-.09-2.34c0-.91,0-2,.06-3.11q.06-.86.12-1.8c0-.63.15-1.27.23-1.94.14-1.35.45-2.77.74-4.27a52.1,52.1,0,0,1,7.81-18.1c.88-1.24,1.7-2.44,2.59-3.46.43-.52.83-1,1.25-1.51l1.23-1.33c.76-.86,1.55-1.54,2.21-2.18a21.71,21.71,0,0,1,1.77-1.53l1.16-.92A2.42,2.42,0,0,1,550.75,190.65Z" style="fill:#263238"></path><path d="M544.07,171.7c-.09,0,.14-1,0-2.56a9.06,9.06,0,0,0-7.89-8.06c-1.56-.22-2.54,0-2.56-.11a1.79,1.79,0,0,1,.68-.19,7.92,7.92,0,0,1,1.92-.07,8.93,8.93,0,0,1,8.21,8.4,7.46,7.46,0,0,1-.11,1.91A1.76,1.76,0,0,1,544.07,171.7Z" style="fill:#263238"></path><path d="M545.3,182.68a13.41,13.41,0,0,1-.26-3.74,13.36,13.36,0,0,1,.26-3.74,13.82,13.82,0,0,1,.26,3.74A13.88,13.88,0,0,1,545.3,182.68Z" style="fill:#263238"></path><path d="M461.68,199a28,28,0,0,1-1.24-3,64.93,64.93,0,0,0-3.34-7,66.56,66.56,0,0,0-4.16-6.49,26.42,26.42,0,0,1-1.87-2.6s.25.18.63.59.91,1,1.53,1.79a48.19,48.19,0,0,1,4.33,6.45,48.87,48.87,0,0,1,3.23,7.07c.33.94.57,1.71.71,2.25A2.88,2.88,0,0,1,461.68,199Z" style="fill:#263238"></path><path d="M460.57,183.75a22.4,22.4,0,0,1-.65-4.79,22.83,22.83,0,0,1-.12-4.83,23,23,0,0,1,.64,4.79A23.25,23.25,0,0,1,460.57,183.75Z" style="fill:#263238"></path><g style="opacity:0.30000000000000004"><path d="M528.89,279.54a2790.85,2790.85,0,0,1-322.73-.83Z"></path></g><g style="opacity:0.30000000000000004"><path d="M384.62,238.37a5.8,5.8,0,0,0-2.36-1.16c-4.92-1.45-10.4-1.41-14.7-4.2-3.28-2.13-5.4-5.61-7.33-9a280.66,280.66,0,0,1-15.64-32.22l-4.85,9.15A277.12,277.12,0,0,0,332,230.1c-.41,2-.78,4.12.1,5.93,1.07,2.22,3.64,3.22,6,3.94a94.68,94.68,0,0,0,44.4,2.43c1.12-.21,2.4-.57,2.82-1.62A2.32,2.32,0,0,0,384.62,238.37Z"></path></g><path d="M401.46,241.69c-21.47,2.85-41.71,1.77-60.22-4.79-4.07-22.25-1.76-40.45,4.78-60.22,18.47-.91,38.7.91,60.23,4.79A166.4,166.4,0,0,1,401.46,241.69Z" style="fill:#22B44D"></path><path d="M396.88,200.35a8.78,8.78,0,0,1-1.05,1.23c-.34.39-.78.86-1.31,1.37s-1.12,1.13-1.83,1.74a60.18,60.18,0,0,1-5.08,4.15,65.7,65.7,0,0,1-6.78,4.3,67.41,67.41,0,0,1-7.29,3.39,58.42,58.42,0,0,1-6.24,2c-1.8.48-3.28.8-4.31,1a9,9,0,0,1-1.6.21,10.13,10.13,0,0,1,1.56-.41c1-.23,2.47-.6,4.26-1.12s3.87-1.23,6.15-2.13a65.46,65.46,0,0,0,14-7.63c2-1.43,3.73-2.81,5.12-4,.72-.6,1.32-1.18,1.86-1.68s1-.93,1.38-1.3A9,9,0,0,1,396.88,200.35Z" style="fill:#263238"></path><path d="M388.83,217.61a115,115,0,0,1-15.44,1.14,57.54,57.54,0,0,1,7.7-.83A55.48,55.48,0,0,1,388.83,217.61Z" style="fill:#263238"></path><path d="M376.29,178.16c.07.13-7.85,4.39-17.69,9.51s-17.86,9.16-17.93,9,7.85-4.38,17.69-9.51S376.22,178,376.29,178.16Z" style="fill:#fff"></path><path d="M406.62,185.82a3.53,3.53,0,0,1-.67.36l-2,.92-7.28,3.34c-6.14,2.82-14.6,6.75-23.88,11.25s-17.62,8.69-23.65,11.76L342,217.08l-1.94,1a3.88,3.88,0,0,1-.7.3,5.63,5.63,0,0,1,.65-.4l1.9-1.06c1.65-.91,4.06-2.21,7.05-3.78,6-3.16,14.3-7.41,23.59-11.9s17.78-8.38,24-11.12c3.09-1.37,5.6-2.45,7.35-3.19l2-.83A7.13,7.13,0,0,1,406.62,185.82Z" style="fill:#fff"></path><path d="M404.11,215.51a6.08,6.08,0,0,1-.59.32l-1.72.82c-1.5.71-3.69,1.69-6.42,2.86-5.44,2.35-13.06,5.38-21.63,8.31s-16.46,5.16-22.2,6.63c-2.88.74-5.21,1.3-6.83,1.65l-1.87.4a2.91,2.91,0,0,1-.66.11,3.25,3.25,0,0,1,.64-.21l1.84-.49,6.78-1.81c5.72-1.56,13.57-3.86,22.13-6.78s16.18-5.89,21.66-8.15l6.48-2.71,1.76-.73A2.77,2.77,0,0,1,404.11,215.51Z" style="fill:#fff"></path><path d="M403.6,234.83a12,12,0,0,1-2.11,1.5,48.53,48.53,0,0,1-5.52,2.92,47.23,47.23,0,0,1-5.85,2.17,11.15,11.15,0,0,1-2.52.58,14.89,14.89,0,0,1,2.41-.93c1.49-.53,3.54-1.31,5.75-2.3s4.15-2,5.54-2.76A14.43,14.43,0,0,1,403.6,234.83Z" style="fill:#fff"></path><path d="M341.15,237.2a2.66,2.66,0,0,1,.1-.61c.1-.44.22-1,.37-1.71.35-1.48.82-3.63,1.36-6.29a206.42,206.42,0,0,0,3.12-21,208.09,208.09,0,0,0,.87-21.19c0-2.71-.09-4.91-.16-6.43,0-.71,0-1.29,0-1.75a3.55,3.55,0,0,1,0-.61,2.52,2.52,0,0,1,.09.61q.06.68.15,1.74c.12,1.52.24,3.72.31,6.43a174.87,174.87,0,0,1-4,42.24c-.59,2.66-1.11,4.79-1.52,6.26l-.47,1.69A2.52,2.52,0,0,1,341.15,237.2Z" style="fill:#263238"></path><g style="opacity:0.30000000000000004"><path d="M395,202.41c-9.73,10.19-20.66,13.93-31.51,16.63a27.15,27.15,0,0,0,31.15-15.39"></path></g><g style="opacity:0.30000000000000004"><path d="M346.5,180.42c-2.6,8.79-2.95,17.79-4.27,26.87s-2.38,18.78-.56,27.52c4.45-17.22,7.1-36.75,4.83-54.39"></path></g></g></svg>