<svg width="36" height="36" viewBox="0 0 36 36" fill="none" xmlns="http://www.w3.org/2000/svg">
<path d="M15.1381 8.25279L16.0845 9.94873C16.9387 11.4792 16.5958 13.487 15.2505 14.8322C15.2505 14.8322 13.6189 16.4641 16.5773 19.4226C19.5348 22.3801 21.1677 20.7494 21.1677 20.7494C22.513 19.4041 24.5207 19.0613 26.0512 19.9154L27.7471 20.8619C30.0583 22.1516 30.3312 25.3926 28.2998 27.4241C27.0792 28.6447 25.5838 29.5945 23.9308 29.6571C21.1482 29.7627 16.4224 29.0584 11.682 24.318C6.94157 19.5775 6.23731 14.8518 6.34281 12.0691C6.40547 10.4161 7.35526 8.92079 8.57589 7.70017C10.6073 5.66878 13.8483 5.94172 15.1381 8.25279Z" fill="#272937"/>
<path d="M19.8368 3.24138C19.9334 2.64508 20.497 2.24059 21.0933 2.33711C21.1302 2.34419 21.2491 2.36638 21.3112 2.38024C21.4357 2.40796 21.6093 2.45062 21.8257 2.51366C22.2585 2.63972 22.8632 2.8474 23.5888 3.18009C25.0418 3.8462 26.9752 5.0114 28.9816 7.01778C30.988 9.02415 32.1532 10.9576 32.8192 12.4105C33.152 13.1362 33.3597 13.7409 33.4857 14.1737C33.5487 14.3901 33.5914 14.5637 33.6191 14.6881C33.633 14.7503 33.6432 14.8003 33.6502 14.8372L33.6586 14.8827C33.755 15.4789 33.3543 16.0661 32.758 16.1626C32.1634 16.2589 31.6032 15.8562 31.5044 15.2628C31.5013 15.2468 31.4929 15.204 31.484 15.1637C31.4659 15.0829 31.4348 14.9548 31.3855 14.7854C31.2868 14.4466 31.1154 13.943 30.8308 13.3222C30.2623 12.0821 29.24 10.3698 27.4347 8.56458C25.6296 6.75936 23.9172 5.73709 22.6772 5.16858C22.0564 4.88398 21.5529 4.71258 21.2139 4.61388C21.0446 4.56454 20.8317 4.51567 20.7509 4.49769C20.1574 4.39877 19.7406 3.83597 19.8368 3.24138Z" fill="#1C274C"/>
<path fill-rule="evenodd" clip-rule="evenodd" d="M20.1666 8.27184C20.3326 7.69101 20.9379 7.35469 21.5188 7.52063L21.2184 8.57231C21.5188 7.52063 21.5188 7.52063 21.5188 7.52063L21.521 7.52125L21.5232 7.52189L21.528 7.5233L21.5393 7.52669L21.5682 7.53567C21.5901 7.5427 21.6177 7.55186 21.6503 7.56348C21.7158 7.58673 21.8024 7.61977 21.9086 7.66527C22.1211 7.75633 22.4113 7.89694 22.768 8.10798C23.4817 8.53043 24.4562 9.23215 25.6009 10.3769C26.7457 11.5217 27.4473 12.4961 27.8698 13.2099C28.0808 13.5665 28.2214 13.8568 28.3126 14.0692C28.3581 14.1754 28.3912 14.262 28.4144 14.3275C28.426 14.3602 28.4351 14.3877 28.4422 14.4097L28.4511 14.4385L28.4545 14.4498L28.4559 14.4547L28.4565 14.4569C28.4565 14.4569 28.4572 14.459 27.4055 14.7595L28.4572 14.459C28.6232 15.0398 28.2868 15.6452 27.706 15.8111C27.1302 15.9756 26.53 15.6465 26.3581 15.0747L26.3527 15.059C26.345 15.0371 26.3289 14.9939 26.302 14.9309C26.248 14.805 26.1502 14.5991 25.9874 14.324C25.6622 13.7746 25.0749 12.9445 24.0541 11.9237C23.0334 10.9029 22.2032 10.3157 21.6538 9.9905C21.3788 9.82772 21.1729 9.72986 21.0469 9.6759C20.9839 9.64891 20.9407 9.63281 20.9188 9.62504L20.9031 9.61966C20.3314 9.44775 20.0021 8.84772 20.1666 8.27184Z" fill="#1C274C"/>
</svg>
