<svg width="35" height="35" viewBox="0 0 35 35" fill="none" xmlns="http://www.w3.org/2000/svg">
<g clip-path="url(#clip0_190_809)">
<path d="M29.2516 5.26139C27.6928 3.69191 25.8373 2.44784 23.7933 1.60147C21.749 0.755111 19.5568 0.323397 17.3441 0.331408C14.3862 0.334298 11.4807 1.11383 8.919 2.59193C6.35726 4.07003 4.2291 6.19483 2.7476 8.75352C1.2661 11.3122 0.483317 14.2151 0.477576 17.1711C0.471856 20.1274 1.24342 23.0331 2.71498 25.5976L0.333496 34.3313L9.26408 31.9938C11.7301 33.3649 14.501 34.0956 17.3229 34.1188C21.8088 34.119 26.1131 32.3483 29.2988 29.1922C32.4847 26.0364 34.2942 21.7505 34.3335 17.2676C34.3186 15.0306 33.8619 12.8186 32.9899 10.7583C32.1179 8.69805 30.8474 6.83006 29.2516 5.26139ZM17.3441 31.2076C14.8302 31.2093 12.3622 30.5339 10.1997 29.2526L9.68934 28.9338L4.39478 30.3363L5.79816 25.1726L5.45795 24.6413C3.64897 21.7231 2.97384 18.243 3.56046 14.8604C4.14707 11.478 5.95468 8.42797 8.64085 6.28825C11.327 4.14851 14.7051 3.06768 18.1353 3.25049C21.5655 3.43328 24.8097 4.86703 27.2528 7.28013C29.9235 9.89003 31.4523 13.4501 31.5055 17.1826C31.4719 20.9139 29.965 24.4809 27.3128 27.1076C24.6608 29.7341 21.078 31.2078 17.3441 31.2076ZM25.0202 20.7101C24.5949 20.4976 22.5324 19.4776 22.1496 19.3501C21.7669 19.2226 21.4692 19.1376 21.1928 19.5626C20.7769 20.1323 20.3295 20.6784 19.8532 21.1989C19.6193 21.4963 19.3641 21.5176 18.9389 21.1989C16.5142 20.2413 14.4942 18.4776 13.2191 16.2051C12.7725 15.4614 13.6443 15.5039 14.4523 13.9101C14.5121 13.7952 14.5431 13.6677 14.5431 13.5383C14.5431 13.4088 14.5121 13.2813 14.4523 13.1664C14.4523 12.9539 13.4955 10.8714 13.1553 10.0426C12.815 9.21387 12.4748 9.34137 12.1984 9.32012H11.3691C11.1543 9.32342 10.9426 9.37253 10.7483 9.46414C10.5539 9.55574 10.3814 9.68777 10.2422 9.85137C9.76508 10.315 9.39295 10.8754 9.15087 11.4949C8.90879 12.1144 8.80239 12.7785 8.83881 13.4426C8.97213 15.0323 9.57118 16.5475 10.5611 17.7989C12.3732 20.5099 14.8565 22.7061 17.7694 24.1738C19.2972 25.0651 21.0726 25.4378 22.8301 25.2363C23.4152 25.1203 23.9696 24.8825 24.4567 24.5383C24.9441 24.1942 25.3534 23.7514 25.6581 23.2388C25.9405 22.6132 26.0293 21.9177 25.9132 21.2414C25.7219 21.0289 25.4454 20.9226 25.0202 20.7101Z" fill="black"/>
</g>
<defs>
<clipPath id="clip0_190_809">
<rect width="35" height="35" fill="white"/>
</clipPath>
</defs>
</svg>
